<?xml version="1.0" encoding="UTF-8"?>
<svg viewBox="0 0 359.19 110.59" xmlns="http://www.w3.org/2000/svg">
    <defs>
        <style>.cls-1{fill:#111111;}.cls-4{fill:#111111;}.cls-1,.cls-2,.cls-3{fill-rule:evenodd;}.cls-2{fill:#1ee1a5;}.cls-3{fill:#0e6650;}</style>
    </defs>
    <polygon class="cls-4" points="70.11 50.76 81.73 51.55 87.55 51.94 96.77 43.28 79.96 40.2"/>
    <path class="cls-4" transform="translate(-123.48 -214.98)" d="M195,265.19l15.83,1.07,8.1-7.61-15.23-2.79-8.7,9.33Zm10.2,2-11.63-.79a.6.6,0,0,1-.39-.17.64.64,0,0,1,0-.9L203,254.74a.65.65,0,0,1,.58-.19l16.82,3.08a.58.58,0,0,1,.35.19.64.64,0,0,1,0,.9l-9.2,8.64a.66.66,0,0,1-.5.19Z"/>
    <polygon class="cls-2" points="79.96 40.2 96.77 43.28 93.22 26.24 77.4 23.79"/>
    <path class="cls-4" transform="translate(-123.48 -214.98)" d="M204,254.63l15.44,2.83-3.27-15.69-14.53-2.24,2.36,15.1Zm16.14,4.25-16.81-3.08a.65.65,0,0,1-.52-.53l-2.55-16.39a.5.5,0,0,1,0-.21.64.64,0,0,1,.73-.53l15.78,2.44a.64.64,0,0,1,.57.5l3.55,17a1,1,0,0,1,0,.25A.64.64,0,0,1,220.14,258.88Z"/>
    <polygon class="cls-3" points="79.96 40.2 77.4 23.79 68.78 32.24 70.11 50.76"/>
    <path class="cls-4" transform="translate(-123.48 -214.98)" d="M202.76,255l-2.32-14.87-7.52,7.37,1.2,16.77,8.64-9.27Zm-1.25-16.29L204.06,255a.66.66,0,0,1-.15.57l-9.84,10.55a.65.65,0,0,1-1.12-.38l-1.32-18.52a.61.61,0,0,1,.19-.5l8.61-8.45a.68.68,0,0,1,.35-.17A.64.64,0,0,1,201.51,238.67Z"/>
    <polygon class="cls-4" points="72.05 78.64 85.98 79.58 92.95 80.05 104 69.67 83.86 65.98"/>
    <path class="cls-4" transform="translate(-123.48 -214.98)" d="M196.91,293.07l19.29,1.3,9.93-9.33-18.56-3.4-10.66,11.43Zm12.51,2.12-13.93-.94a.66.66,0,0,1-.39-.17.63.63,0,0,1,0-.9l11.8-12.66a.65.65,0,0,1,.58-.19L227.6,284a.64.64,0,0,1,.32,1.09l-11,10.36a.69.69,0,0,1-.5.19Z"/>
    <polygon class="cls-2" points="83.86 65.98 104 69.67 99.75 49.25 80.79 46.32"/>
    <path class="cls-4" transform="translate(-123.48 -214.98)" d="M207.9,280.41l18.77,3.44-4-19.06L205,262.06l2.87,18.35Zm19.47,4.86-20.15-3.69a.63.63,0,0,1-.51-.53l-3.06-19.64a.5.5,0,0,1,0-.21.65.65,0,0,1,.73-.53l18.92,2.93a.63.63,0,0,1,.56.5l4.26,20.42a1,1,0,0,1,0,.24A.64.64,0,0,1,227.37,285.27Z"/>
    <polygon class="cls-3" points="83.86 65.98 80.79 46.32 70.46 56.44 72.05 78.64"/>
    <path class="cls-4" transform="translate(-123.48 -214.98)" d="M206.66,280.75l-2.83-18.13-9.23,9.05,1.46,20.44,10.6-11.36ZM204.9,261.2,208,280.83a.63.63,0,0,1-.16.56L196,294a.6.6,0,0,1-.43.22.64.64,0,0,1-.68-.59l-1.59-22.2a.63.63,0,0,1,.19-.49l10.33-10.13a.68.68,0,0,1,.35-.17A.64.64,0,0,1,204.9,261.2Z"/>
    <polygon class="cls-4" points="74.32 108.41 89.61 109.44 97.27 109.95 109.4 98.56 87.28 94.51"/>
    <path class="cls-4" transform="translate(-123.48 -214.98)" d="M199.18,322.84l21.33,1.44,11-10.34L211,310.17l-11.81,12.67Zm13.87,2.21-15.3-1a.6.6,0,0,1-.39-.17.64.64,0,0,1,0-.9l13-13.9a.65.65,0,0,1,.58-.19L233,312.91a.71.71,0,0,1,.35.19.63.63,0,0,1,0,.9L221.2,325.37a.63.63,0,0,1-.5.2Z"/>
    <polygon class="cls-2" points="87.28 94.51 109.4 98.56 104.73 76.15 83.91 72.93"/>
    <path class="cls-4" transform="translate(-123.48 -214.98)" d="M211.32,308.94l20.74,3.8-4.39-21.06-19.51-3,3.16,20.27Zm21.44,5.22-22.11-4.05a.64.64,0,0,1-.52-.53L206.77,288a.5.5,0,0,1,0-.21.62.62,0,0,1,.72-.53l20.78,3.21a.63.63,0,0,1,.56.5l4.67,22.42a.49.49,0,0,1,0,.24A.62.62,0,0,1,232.76,314.16Z"/>
    <polygon class="cls-3" points="87.28 94.51 83.91 72.93 72.58 84.04 74.32 108.41"/>
    <path class="cls-4" transform="translate(-123.48 -214.98)" d="M210.08,309.28l-3.12-20-10.25,10,1.62,22.62,11.75-12.6ZM208,287.81l3.36,21.55a.65.65,0,0,1-.15.56l-12.95,13.89a.65.65,0,0,1-1.12-.38l-1.74-24.37a.65.65,0,0,1,.19-.5L207,287.45a.61.61,0,0,1,.35-.17A.62.62,0,0,1,208,287.81Z"/>
    <polygon class="cls-4" points="77.04 42.97 65.24 34.37 59.33 30.06 57.44 14.31 76.07 24.89"/>
    <path class="cls-4" transform="translate(-123.48 -214.98)" d="M200,258.56l-17.67-12.88a.77.77,0,0,1-.32-.55l-1.9-15.75a.81.81,0,0,1,.7-.89.8.8,0,0,1,.53.13L200,239.17a.8.8,0,0,1,.4.65l1,18.09a.81.81,0,0,1-.76.84.77.77,0,0,1-.55-.19Zm-10.82-9.86,10.44,7.62-.85-16-16.88-9.58,1.66,13.84Z"/>
    <polygon class="cls-2" points="76.07 24.89 57.44 14.31 74.57 0.8 91.74 11.18"/>
    <path class="cls-4" transform="translate(-123.48 -214.98)" d="M199.16,240.56,180.52,230a.81.81,0,0,1-.3-1.09,1.2,1.2,0,0,1,.24-.26l17.09-13.48a.8.8,0,0,1,.91-.06l17.17,10.38a.8.8,0,0,1,.27,1.1.82.82,0,0,1-.19.22l-15.63,13.67a.8.8,0,0,1-.92.1Zm-16.82-11.38,17.12,9.71,14.41-12.61-15.77-9.54Z"/>
    <polygon class="cls-3" points="76.07 24.89 91.74 11.18 93.22 26.24 77.04 42.97"/>
    <path class="cls-4" transform="translate(-123.48 -214.98)" d="M199.05,239.24l15.64-13.68a.8.8,0,0,1,1.13.07.79.79,0,0,1,.19.45l1.49,15.06a.84.84,0,0,1-.22.63L201.09,258.5a.8.8,0,0,1-1.37-.51l-1-18.09a.79.79,0,0,1,.29-.66Zm15.53-11.46-14.21,12.43.85,15.87,14.65-15.16Z"/>
    <polygon class="cls-41" points="52.73 68.19 38.59 57.88 31.51 52.72 29.24 33.85 51.57 46.52"/>
    <path class="cls-4" transform="translate(-123.48 -214.98)" d="M175.7,283.79l-21.18-15.45a.83.83,0,0,1-.32-.55l-2.27-18.87a.8.8,0,0,1,.7-.88.75.75,0,0,1,.53.12l22.29,12.65a.8.8,0,0,1,.4.65L177,283.13a.8.8,0,0,1-1.31.66Zm-13.16-11.57,12.78,9.32-1-19.56-20.57-11.67,2,16.95Z"/>
    <polygon class="cls-2" points="51.57 46.52 29.24 33.85 49.77 17.66 70.34 30.11"/>
    <path class="cls-4" transform="translate(-123.48 -214.98)" d="M174.66,262.19l-22.33-12.66a.8.8,0,0,1-.3-1.09.78.78,0,0,1,.24-.27L172.75,232a.82.82,0,0,1,.91-.06l20.58,12.45a.8.8,0,0,1,.27,1.09.85.85,0,0,1-.2.22L175.58,262.1a.79.79,0,0,1-.92.09Zm-20.51-13.47L175,260.53l17.52-15.33L173.3,233.61Z"/>
    <polygon class="cls-3" points="51.57 46.52 70.34 30.11 72.12 48.14 52.73 68.19"/>
    <path class="cls-4" transform="translate(-123.48 -214.98)" d="M174.55,260.88l18.75-16.4a.78.78,0,0,1,1.12.08.77.77,0,0,1,.2.44l1.77,18a.76.76,0,0,1-.22.63l-19.39,20.05a.78.78,0,0,1-1.12,0,.74.74,0,0,1-.25-.53l-1.15-21.67a.78.78,0,0,1,.29-.66Zm18.63-14.18-17.31,15.15,1,19.45,17.86-18.47Z"/>
    <polygon class="cls-4" points="26.59 94.98 11.06 83.66 3.29 77.99 0.8 57.28 25.32 71.19"/>
    <path class="cls-4" transform="translate(-123.48 -214.98)" d="M149.56,310.57l-23.26-17a.76.76,0,0,1-.32-.55l-2.49-20.71a.79.79,0,0,1,.7-.89.78.78,0,0,1,.52.12l24.48,13.89a.78.78,0,0,1,.4.65l1.27,23.79a.8.8,0,0,1-.75.84.81.81,0,0,1-.55-.18ZM135,298l14.17,10.33L148,286.64l-22.76-12.91,2.26,18.8Z"/>
    <polygon class="cls-2" points="25.32 71.19 0.8 57.28 23.33 39.5 45.92 53.16"/>
    <path class="cls-4" transform="translate(-123.48 -214.98)" d="M148.4,286.86,123.89,273a.79.79,0,0,1-.3-1.09.67.67,0,0,1,.24-.26l22.49-17.75a.77.77,0,0,1,.9-.06l22.6,13.66a.8.8,0,0,1,.27,1.1.7.7,0,0,1-.2.22l-20.57,18a.8.8,0,0,1-.92.1Zm-22.69-14.72,23,13.05,19.36-16.94-21.19-12.81Z"/>
    <polygon class="cls-3" points="25.32 71.19 45.92 53.16 47.88 72.96 26.59 94.98"/>
    <path class="cls-4" transform="translate(-123.48 -214.98)" d="M148.3,285.54l20.58-18a.81.81,0,0,1,1.13.08.86.86,0,0,1,.19.45l2,19.8a.79.79,0,0,1-.22.63l-21.29,22a.79.79,0,0,1-1.13,0,.81.81,0,0,1-.24-.53L148,286.2a.8.8,0,0,1,.3-.66Zm20.46-15.78-19.14,16.75,1.14,21.57,19.77-20.43Z"/>
    <path class="cls-1" transform="translate(-123.48 -214.98)" d="m291.57 295.26l-17.32-45h-12l-17.32 45h10.85l2.83-7.61h19.28l2.83 7.61zm-16.31-16h-14l7-19.35z"/>
    <path class="cls-1" transform="translate(-123.48 -214.98)" d="m304.2 296.07c3.5 0 5.86-0.94 7.14-2.09l-1.82-6.54a4.29 4.29 0 0 1 -3 1c-1.89 0-3-1.55-3-3.64v-34.5h-8.52v36.81c0 5.89 3.2 8.96 9.2 8.96z"/>
    <rect class="cls-1" x="189.41" y="60.33" width="16.18" height="7.28"/>
    <path class="cls-1" transform="translate(-123.48 -214.98)" d="m351.58 296.07c12.07 0 18-6.2 18-14.42 0-16.79-25.81-12-25.81-19.08 0-2.7 2.29-4.45 6.33-4.45a19.33 19.33 0 0 1 13.08 4.88l5.32-7.14c-4.45-4.11-10.38-6.27-17.52-6.27-10.59 0-17.06 6.2-17.06 13.68 0 16.92 25.89 11.46 25.89 19.28 0 2.63-2.5 5-7.82 5a19.74 19.74 0 0 1 -14.29 -6.14l-5.26 7.49c4.25 4.27 10.45 7.17 19.14 7.17z"/>
    <path class="cls-1" transform="translate(-123.48 -214.98)" d="m406.79 295.26v-32.55h-8.63v4.18a12.41 12.41 0 0 0 -10 -5c-8.29 0-14.43 6.47-14.43 17.05 0 10.92 6.27 17.12 14.43 17.12a12.53 12.53 0 0 0 10 -5v4.18zm-16-6.81c-4.92 0-8.29-3.84-8.29-9.5s3.37-9.44 8.29-9.44a9.34 9.34 0 0 1 7.35 3.78v11.46a9.29 9.29 0 0 1 -7.33 3.7z"/>
    <path class="cls-1" transform="translate(-123.48 -214.98)" d="M420.73,284.81V273.29a9.56,9.56,0,0,1,7.41-3.78c4.92,0,8.22,3.85,8.22,9.44s-3.3,9.5-8.22,9.5a9.65,9.65,0,0,1-7.41-3.64Zm0,10.45v-4.18a12.62,12.62,0,0,0,10,5c8.22,0,14.42-6.2,14.42-17.12,0-10.58-6.13-17.05-14.42-17.05a12.32,12.32,0,0,0-10,5V250.3h-8.56v45Z"/>
    <path class="cls-1" transform="translate(-123.48 -214.98)" d="M482.67,295.26V262.71H474v4.17a12.42,12.42,0,0,0-10-5c-8.29,0-14.42,6.47-14.42,17.05,0,10.92,6.26,17.12,14.42,17.12a12.52,12.52,0,0,0,10-5v4.18Zm-16-6.81c-4.92,0-8.29-3.84-8.29-9.5s3.37-9.44,8.29-9.44a9.32,9.32,0,0,1,7.34,3.78v11.46A9.27,9.27,0,0,1,466.7,288.45Z"/>
</svg>
