<?xml version="1.0" encoding="UTF-8"?>
<svg width="400" height="309.34" version="1.1" viewBox="0 0 400 309.34343434343435" xmlns="http://www.w3.org/2000/svg">
    <g fill-rule="evenodd">
        <path d="m222.21 0.532c-2.587 4.834-4.447 13.664-5.154 24.468-0.864 13.209-1.142 15.725-2.186 19.822-2.185 8.574-7.662 17.576-14.906 24.5-7.445 7.116-13.658 9.799-28.993 12.52-18.175 3.225-25.023 6.518-35.631 17.13-10.691 10.695-14.958 20.145-14.549 32.215 0.382 11.281 2.826 15.942 12.496 23.833 9.889 8.069 12.221 12.61 10.166 19.795-1.22 4.267-2.032 5.47-11.891 17.609-8.374 10.311-11.595 19.387-11.605 32.702-0.011 14.651 11.818 22.535 29.54 19.688 3.321-0.534 5.045-1.03 14.036-4.043 29.408-9.855 46.124-7.4 69.808 10.251 7.602 5.665 11.145 7.67 18.251 10.326 22.889 8.555 35.712 6.846 59.53-7.934 16.086-9.983 23.03-10.565 51.38-4.306 15.646 3.454 19.048 3.597 34.343 1.445l3.031-0.427 0.063-125.06 0.064-125.06h-88.754-88.754l-0.285 0.532m-21.51 42.035c-1.613 0.875-2.028 3.87-0.717 5.18 1.298 1.298 4.366 0.827 5.207-0.799 1.553-3.002-1.515-5.995-4.49-4.381m-42.034 20.712c-4.364 1.607-4.304 8.517 0.087 9.966 4.038 1.333 7.31-1.118 7.119-5.332-0.17-3.75-3.608-5.96-7.206-4.634m-50.23 7.529c-1.63 1.63-1.075 4.536 1.019 5.336 3.05 1.164 5.833-1.757 4.331-4.545-1.011-1.879-3.843-2.298-5.35-0.791m-9.3 57.872c-1.12 1.12-0.238 3.138 1.371 3.138 1.241 0 1.768-0.526 1.768-1.767 0-1.242-0.527-1.768-1.768-1.768-0.549 0-1.147 0.173-1.371 0.397m10.278 54.775c-1.121 0.488-1.834 1.741-1.835 3.228-3e-3 3.612 5.384 4.493 6.514 1.066 1.021-3.101-1.693-5.592-4.679-4.294m76.68 56.425c-2.125 2.124-0.073 5.36 2.881 4.544 3.081-0.851 2.375-5.283-0.842-5.283-1.101 0-1.414 0.114-2.039 0.739m41.159 34.433c-2.839 1.913-1.398 6.495 2.042 6.495 2.77 0 4.515-3.314 3.029-5.751-0.884-1.45-3.463-1.828-5.071-0.744" fill="#2af999"/>
    </g>
</svg>
