<?xml version="1.0" encoding="UTF-8"?>
<svg viewBox="0 0 400 333" xmlns="http://www.w3.org/2000/svg">
    <path d="m243.9 0.585c-0.509 0.314-1.248 0.815-1.641 1.114-0.394 0.3-1.64 1.231-2.77 2.07-13.236 9.828-20.419 23.857-21.667 42.317-0.066 0.972-0.203 2.904-0.305 4.293-0.103 1.389-0.166 2.607-0.141 2.707 0.049 0.193-0.38 6.449-0.558 8.151-0.333 3.181-0.444 3.973-0.809 5.808-3.691 18.56-20.925 35.888-37.89 38.098-0.394 0.052-0.887 0.159-1.096 0.239-0.208 0.079-2.14 0.444-4.293 0.811-8.696 1.48-10.83 1.895-13.005 2.531-1.25 0.366-2.553 0.718-2.896 0.783-0.343 0.066-0.741 0.204-0.884 0.309-0.143 0.104-1.112 0.519-2.154 0.922s-2.292 0.955-2.778 1.227c-0.486 0.271-1.338 0.741-1.894 1.043-6.862 3.732-19.247 15.295-21.112 19.71-0.055 0.13-0.767 1.357-1.583 2.726-3.437 5.77-4.789 10.024-5.109 16.071-0.419 7.924 1.196 14.622 4.718 19.571 1.723 2.42 2.477 3.139 7.556 7.195 7.257 5.797 9.628 8.668 10.728 12.997 1.325 5.211-0.745 11.659-5.608 17.471-0.448 0.535-1.623 1.996-2.612 3.246s-1.961 2.443-2.159 2.651c-3.376 3.543-9.693 12.997-9.693 14.507 0 0.104-0.156 0.548-0.348 0.986-0.958 2.186-2.476 7.609-2.768 9.886-2.037 15.908 1.428 23.596 12.306 27.305 7.715 2.631 15.531 1.832 29.321-2.997 7.871-2.757 11.888-3.86 16.666-4.577 0.417-0.062 1.496-0.234 2.399-0.382 12.503-2.049 24.168-0.634 34.273 4.156 1.003 0.475 1.877 0.864 1.941 0.864 1.182 0 12.904 7.553 16.24 10.464 1.313 1.147 5.873 4.302 7.521 5.205 0.833 0.456 1.686 0.961 1.894 1.121s1.117 0.613 2.02 1.006 2.21 0.972 2.904 1.287c3.727 1.69 13.468 4.721 17.803 5.539 1.042 0.196 2.178 0.432 2.525 0.524 0.348 0.091 2.904 0.207 5.682 0.257 5.405 0.097 6.761-0.059 11.49-1.321 1.32-0.352 2.513-0.662 2.652-0.689s0.366-0.115 0.505-0.196 0.593-0.229 1.01-0.328c2.563-0.611 11.415-4.915 16.481-8.012 0.871-0.533 1.639-0.968 1.707-0.968s0.595-0.341 1.17-0.758c0.575-0.416 1.19-0.757 1.366-0.757s0.357-0.102 0.404-0.227c0.128-0.345 4.484-2.934 7.233-4.299 7.896-3.919 17.105-4.794 29.088-2.766 1.597 0.271 3.359 0.551 3.914 0.623 1.139 0.149 6.399 1.291 13.889 3.017 2.778 0.64 5.335 1.213 5.682 1.274s0.9 0.171 1.228 0.246c0.328 0.074 1.181 0.198 1.894 0.275 0.714 0.076 1.364 0.18 1.446 0.23 0.489 0.299 6.38 0.379 9.195 0.125 3.337-0.301 12.709-1.415 14.204-1.688l0.821-0.149v-136.72-136.71l-77.588 8e-3 -77.589 8e-3 -0.926 0.569m-40.094 14.523c-2.913 1.563-1.956 6.724 1.248 6.724 1.067 0 1.995-0.643 2.902-2.009 1.965-2.96-1.045-6.38-4.15-4.715m-2.537 52.001c-1.663 0.834-2.046 2.857-0.78 4.123 1.081 1.081 2.651 0.892 3.881-0.468 1.859-2.053-0.575-4.922-3.101-3.655m-42.554 20.938c-3.697 1.953-3.538 6.944 0.273 8.536 3.231 1.35 6.902-1.592 6.336-5.078-0.465-2.863-4.118-4.775-6.609-3.458m-49.051 6.77c-1.708 0.749-1.989 2.793-0.577 4.205 1.385 1.385 4.092 0.573 4.384-1.315 0.322-2.075-1.87-3.739-3.807-2.89m-9.61 58.769c-0.713 0.712-0.018 1.901 0.934 1.599 0.277-0.088 0.576-0.387 0.664-0.665 0.303-0.952-0.886-1.647-1.598-0.934m8.924 55.187c-1.459 1.573-0.361 4.358 1.719 4.358 2.474 0 3.96-3.979 1.794-4.802-1.31-0.498-2.816-0.308-3.513 0.444m78.105 55.033c-0.231 0.061-0.6 0.492-0.821 0.956-1.125 2.372 1.554 4.282 3.407 2.429 1.75-1.75-0.019-4.065-2.586-3.385m132.04 12.362c-0.49 0.491-0.159 1.105 0.597 1.105 0.659 0 0.763-0.085 0.694-0.568-0.08-0.561-0.918-0.91-1.291-0.537m55.973 5.272c-0.08 0.209-0.074 0.663 0.013 1.01 0.229 0.912 1.584 0.912 1.812 0 0.241-0.96-0.039-1.389-0.906-1.389-0.455 0-0.833 0.156-0.919 0.379m-147.24 17.287c-2.652 1.618-1.682 5.313 1.395 5.313 3.06 0 3.967-4.281 1.156-5.456-1.123-0.469-1.589-0.443-2.551 0.143m-163.21 8.596c0 0.139 0.171 0.253 0.379 0.253 0.209 0 0.379-0.114 0.379-0.253s-0.17-0.252-0.379-0.252c-0.208 0-0.379 0.113-0.379 0.252" fill="#04fb8b" fill-rule="evenodd"/>
</svg>
