<svg xmlns="http://www.w3.org/2000/svg" viewBox="0 0 400 333">
    <title>background</title>
    <path id="path1"
          d="M243.897 0.585 C 243.388 0.899,242.649 1.400,242.256 1.699 C 241.862 1.999,240.616 2.930,239.486 3.769 C 226.250 13.597,219.067 27.626,217.819 46.086 C 217.753 47.058,217.616 48.990,217.514 50.379 C 217.411 51.768,217.348 52.986,217.373 53.086 C 217.422 53.279,216.993 59.535,216.815 61.237 C 216.482 64.418,216.371 65.210,216.006 67.045 C 212.315 85.605,195.081 102.933,178.116 105.143 C 177.722 105.195,177.229 105.302,177.020 105.382 C 176.812 105.461,174.880 105.826,172.727 106.193 C 164.031 107.673,161.897 108.088,159.722 108.724 C 158.472 109.090,157.169 109.442,156.826 109.507 C 156.483 109.573,156.085 109.711,155.942 109.816 C 155.799 109.920,154.830 110.335,153.788 110.738 C 152.746 111.141,151.496 111.693,151.010 111.965 C 150.524 112.236,149.672 112.706,149.116 113.008 C 142.254 116.740,129.869 128.303,128.004 132.718 C 127.949 132.848,127.237 134.075,126.421 135.444 C 122.984 141.214,121.632 145.468,121.312 151.515 C 120.893 159.439,122.508 166.137,126.030 171.086 C 127.753 173.506,128.507 174.225,133.586 178.281 C 140.843 184.078,143.214 186.949,144.314 191.278 C 145.639 196.489,143.569 202.937,138.706 208.749 C 138.258 209.284,137.083 210.745,136.094 211.995 C 135.105 213.245,134.133 214.438,133.935 214.646 C 130.559 218.189,124.242 227.643,124.242 229.153 C 124.242 229.257,124.086 229.701,123.894 230.139 C 122.936 232.325,121.418 237.748,121.126 240.025 C 119.089 255.933,122.554 263.621,133.432 267.330 C 141.147 269.961,148.963 269.162,162.753 264.333 C 170.624 261.576,174.641 260.473,179.419 259.756 C 179.836 259.694,180.915 259.522,181.818 259.374 C 194.321 257.325,205.986 258.740,216.091 263.530 C 217.094 264.005,217.968 264.394,218.032 264.394 C 219.214 264.394,230.936 271.947,234.272 274.858 C 235.585 276.005,240.145 279.160,241.793 280.063 C 242.626 280.519,243.479 281.024,243.687 281.184 C 243.895 281.344,244.804 281.797,245.707 282.190 C 246.610 282.583,247.917 283.162,248.611 283.477 C 252.338 285.167,262.079 288.198,266.414 289.016 C 267.456 289.212,268.592 289.448,268.939 289.540 C 269.287 289.631,271.843 289.747,274.621 289.797 C 280.026 289.894,281.382 289.738,286.111 288.476 C 287.431 288.124,288.624 287.814,288.763 287.787 C 288.902 287.760,289.129 287.672,289.268 287.591 C 289.407 287.510,289.861 287.362,290.278 287.263 C 292.841 286.652,301.693 282.348,306.759 279.251 C 307.630 278.718,308.398 278.283,308.466 278.283 C 308.534 278.283,309.061 277.942,309.636 277.525 C 310.211 277.109,310.826 276.768,311.002 276.768 C 311.178 276.768,311.359 276.666,311.406 276.541 C 311.534 276.196,315.890 273.607,318.639 272.242 C 326.535 268.323,335.744 267.448,347.727 269.476 C 349.324 269.747,351.086 270.027,351.641 270.099 C 352.780 270.248,358.040 271.390,365.530 273.116 C 368.308 273.756,370.865 274.329,371.212 274.390 C 371.559 274.451,372.112 274.561,372.440 274.636 C 372.768 274.710,373.621 274.834,374.334 274.911 C 375.048 274.987,375.698 275.091,375.780 275.141 C 376.269 275.440,382.160 275.520,384.975 275.266 C 388.312 274.965,397.684 273.851,399.179 273.578 L 400.000 273.429 400.000 136.714 L 400.000 0.000 322.412 0.008 L 244.823 0.016 243.897 0.585 M203.803 15.108 C 200.890 16.671,201.847 21.832,205.051 21.832 C 206.118 21.832,207.046 21.189,207.953 19.823 C 209.918 16.863,206.908 13.443,203.803 15.108 M201.266 67.109 C 199.603 67.943,199.220 69.966,200.486 71.232 C 201.567 72.313,203.137 72.124,204.367 70.764 C 206.226 68.711,203.792 65.842,201.266 67.109 M158.712 88.047 C 155.015 90.000,155.174 94.991,158.985 96.583 C 162.216 97.933,165.887 94.991,165.321 91.505 C 164.856 88.642,161.203 86.730,158.712 88.047 M109.661 94.817 C 107.953 95.566,107.672 97.610,109.084 99.022 C 110.469 100.407,113.176 99.595,113.468 97.707 C 113.790 95.632,111.598 93.968,109.661 94.817 M100.051 153.586 C 99.338 154.298,100.033 155.487,100.985 155.185 C 101.262 155.097,101.561 154.798,101.649 154.520 C 101.952 153.568,100.763 152.873,100.051 153.586 M108.975 208.773 C 107.516 210.346,108.614 213.131,110.694 213.131 C 113.168 213.131,114.654 209.152,112.488 208.329 C 111.178 207.831,109.672 208.021,108.975 208.773 M187.080 263.806 C 186.849 263.867,186.480 264.298,186.259 264.762 C 185.134 267.134,187.813 269.044,189.666 267.191 C 191.416 265.441,189.647 263.126,187.080 263.806 M319.118 276.168 C 318.628 276.659,318.959 277.273,319.715 277.273 C 320.374 277.273,320.478 277.188,320.409 276.705 C 320.329 276.144,319.491 275.795,319.118 276.168 M375.091 281.440 C 375.011 281.649,375.017 282.103,375.104 282.450 C 375.333 283.362,376.688 283.362,376.916 282.450 C 377.157 281.490,376.877 281.061,376.010 281.061 C 375.555 281.061,375.177 281.217,375.091 281.440 M227.853 298.727 C 225.201 300.345,226.171 304.040,229.248 304.040 C 232.308 304.040,233.215 299.759,230.404 298.584 C 229.281 298.115,228.815 298.141,227.853 298.727 M64.646 307.323 C 64.646 307.462,64.817 307.576,65.025 307.576 C 65.234 307.576,65.404 307.462,65.404 307.323 C 65.404 307.184,65.234 307.071,65.025 307.071 C 64.817 307.071,64.646 307.184,64.646 307.323"
          stroke="none" fill="#04fb8b" fill-rule="evenodd"/>
</svg>