<svg version="1" xmlns="http://www.w3.org/2000/svg" width="2560" height="2560" viewBox="0 0 1920.000000 1920.000000"><path d="M1289.5 32.2c-4.5 2.6-235.5 184.3-275.2 216.4-17.4 14.2-19.3 16.3-19.3 21.3 0 2.9 11.7 103.4 13.4 114.9.4 2.6.2 3.3-.9 2.9-.7-.3-27.4-16.3-59.3-35.5-31.8-19.3-59.7-35.9-62-37.1-6.9-3.5-8.9-2.9-20.3 5.5C855.8 328.1 570 553.5 542 576.1c-15.8 12.6-17.4 14.3-18.3 17.7-.5 2 3.5 37.6 13.2 117.7 1.7 13.7 2.9 25.1 2.6 25.3-.2.2-19.6-11.3-43.2-25.5-23.5-14.3-45.5-27.4-48.7-29.3-7.4-4.2-13.1-4.5-17.9-1-8.5 6.3-316.3 249.2-352.6 278.3-19.5 15.7-27.7 22.9-28.6 25.1-1 2.7.8 20 14.1 130.1 23.1 191.4 27.3 224.7 28.9 227.1 2.2 3.4 4.4 5 114 85 225.2 164.1 280.4 204 284.1 205.4 6 2.3 5.1 3.2 155.3-152 179.8-185.8 203.8-210.8 212.1-220.5l4.3-4.9-.6-8.6c-.4-4.7-2.9-31.7-5.7-60-2.8-28.3-5-52.4-4.8-53.6.3-2 1.7-1.2 14.3 8 40.2 29.3 58 41.9 61.2 43.2 2.7 1.2 4.2 1.3 6.7.4 4.1-1.3 13.6-10.9 156.7-159 63.5-65.7 118.8-123 122.9-127.2l7.5-7.7 34.9 2.4c19.3 1.4 35.4 2.6 35.9 2.8.5.1-16 17-36.7 37.4l-37.6 37.1v6c0 13.5 24.8 361.3 26.6 372.4 1.2 7.5 2.4 7.8 47.9 10.8 17 1.2 31.1 2.3 31.3 2.4.1.2-14.9 15.1-33.4 33.2-18.4 18-34.5 34.1-35.6 35.6-1.9 2.8-2 3.1-.3 29.1 1.9 31.1 20.4 291.9 24 339.2 4.2 54.2 4.1 53.8 10.9 55 4.3.7 63.7 4.9 229.6 16 77.8 5.2 145.4 9.8 150.1 10.1 6.1.4 9.3.3 11-.6 1.3-.7 8.5-7 15.9-13.9 126-118.1 164.1-154.1 177.5-167.2l15.9-15.7-2.3-12.4c-6-31.3-70.4-342.4-75.2-362.9-1.1-4.8-2.8-9.4-3.8-10.3-2.3-2.1-10-3.6-53.1-10.1-20.1-3.1-37.3-5.9-38.3-6.3-1.4-.6 5.1-7.1 33-33.4 36.1-33.8 49.3-46.9 49.3-48.6 0-3.2-7.8-41.6-32.6-160.6-38.7-185.7-39.1-187.7-41.5-190.2-2.6-2.7-4.5-3.1-67.9-12.9-26.7-4.1-48.9-7.7-49.4-7.8-.5-.2 10.3-10.8 24-23.7 37.2-34.9 46.4-44.1 46.4-46.6 0-3-11.1-57.8-36-176.8-15.5-74.7-21-102.7-21-107.8 0-7.8-1.6-25.5-13-141.3-9-90.9-11.7-115.5-12.9-118.7-1.2-3.2-45.1-30.1-223.6-137.6-76-45.7-74.7-45-80-42zm165 124.3c49 29.6 92.5 56 96.8 58.5l7.8 4.7-120.6 105.4c-66.3 58-120.9 105.3-121.3 105.1-.4-.1-64.7-36.6-142.9-80.9-113.3-64.3-142-81-141-82 .6-.6 59.9-47.5 131.6-104.1l130.5-102.9 35 21.2c19.3 11.6 75.2 45.4 124.1 75zm127 196.1c5.8 58.8 10.6 108.1 10.7 109.6.2 2.3-16.4 19.8-122.2 129.3l-122.5 126.7-.3-4.4c-.2-2.3-3.4-61.9-7.2-132.3l-6.8-128 3.1-3.2c4.6-4.6 234.1-205.2 234.4-204.9.2.1 5 48.4 10.8 107.2zM1042 439.8c87.2 52.7 158.5 96.1 158.5 96.4 0 1.2-292 255.8-293.1 255.6-2.5-.6-346.4-196.2-346.2-196.9.2-.4 72.1-57.4 159.8-126.7 116.7-92.1 159.9-125.7 161-125.1.8.4 72.8 44 160 96.7zM1626.5 618c14 67.3 25.3 122.5 25.1 122.7-.5.5-241.5-43.5-243.7-44.5-1.3-.5 20.2-23.3 95.4-101 53.3-55.1 97.1-100.1 97.3-99.9.2.2 11.9 55.4 25.9 122.7zm-400 78.5c6.9 70.9 12.7 130.2 13 131.7.4 2.3-14.8 18.4-148.7 156.8-82 84.7-149.3 153.9-149.6 153.6-.5-.6-17.1-307.7-17.2-318.3v-6.2l144.2-126.2c141.8-124 144.3-126.2 145-123.3.4 1.6 6.4 60.9 13.3 131.9zm59.3 32.9c16.9 12.3 31.7 23.2 33 24.2l2.3 1.9-27.8 29.8c-22.5 24.2-27.9 29.5-28.4 28-.4-1-2.8-23.9-5.4-50.8-2.5-27-4.9-50.5-5.2-52.3-.3-1.7-.2-3.2.1-3.2.4 0 14.5 10.1 31.4 22.4zm-669 85.7c96.6 58.4 175.8 106.3 175.9 106.3.1.1-72.7 63.9-161.7 141.9L469.1 1205l-191.7-108.8C172 1036.4 85.8 987.1 85.8 986.6c0-.4 79.2-63.3 175.9-139.7 115.2-91 176.4-138.7 177.6-138.5.9.2 80.8 48.2 177.5 106.7zm944.9 26.3c79.4 12.2 144.5 22.4 144.7 22.7.5.5 66.7 318.1 66.4 318.4-.5.2-312.8-57.2-313.2-57.6-.6-.5-47.6-302-47.6-304.8 0-1.7.5-2 2.8-1.5 1.5.3 67.6 10.5 146.9 22.8zm-146.8 137.3c12.8 82.1 23.1 150.1 22.9 151.2-.3 1.9-175.6 190.6-176.4 189.9-.5-.6-24.5-336.9-24.2-339.6.3-2.5 152.9-152.6 153.9-151.4.3.4 11 67.9 23.8 149.9zM819.5 1096c8 81.1 14.4 148.3 14.3 149.2-.2 1-74.3 78.3-164.8 171.8-130.2 134.6-164.6 169.7-165.1 168.3-.4-1-4.8-80.6-9.8-176.8-5-96.3-9.2-176.5-9.4-178.3-.2-3.2 4.6-7.5 159.8-143.3 88-77 160.1-139.6 160.2-139.2.2.5 6.8 67.2 14.8 148.3zm809.5 192.6c88.3 13.6 160.6 24.8 160.7 24.9.5.3 73.3 350.9 73.1 351.5-.3.7-345.4-62.3-346.1-63.1-.5-.5-52.7-335.7-52.7-337.8 0-.9.8-1.1 2.3-.8 1.2.3 74.4 11.7 162.7 25.3zm-159.6 150.1c14.2 91.2 25.9 166.6 25.9 167.5.2 1.6-195.1 212.3-196 211.5-.2-.2-6.4-85.2-13.8-188.8l-13.5-188.4 9.7-9.7c23.2-23.1 160.8-157.7 161.3-157.8.3 0 12.2 74.6 26.4 165.7z"/></svg>