<?xml version="1.0" encoding="UTF-8"?>
<!DOCTYPE svg PUBLIC "-//W3C//DTD SVG 1.0//EN" "http://www.w3.org/TR/2001/REC-SVG-20010904/DTD/svg10.dtd">
<!-- Creator: CorelDRAW X8 -->
<svg xmlns="http://www.w3.org/2000/svg" xml:space="preserve" width="5.79311in" height="1.15137in" version="1.0" style="shape-rendering:geometricPrecision; text-rendering:geometricPrecision; image-rendering:optimizeQuality; fill-rule:evenodd; clip-rule:evenodd"
viewBox="0 0 6232 1239"
 xmlns:xlink="http://www.w3.org/1999/xlink">
 <defs>
  <style type="text/css">
   <![CDATA[
    .fil15 {fill:#2d2d2d}
    .fil16 {fill:#fff}
    .fil11 {fill:#DBA204}
    .fil9 {fill:#E3BB44}
    .fil7 {fill:#E8BC1C}
    .fil8 {fill:#E8CE0C}
    .fil13 {fill:#EF9A03}
    .fil12 {fill:#F0C21A}
    .fil0 {fill:#F0F0F0}
    .fil1 {fill:#F8CA1F}
    .fil4 {fill:#F9BA0D}
    .fil3 {fill:#FCD55E}
    .fil14 {fill:#FED90E}
    .fil2 {fill:#FFE61D}
    .fil6 {fill:#FFEF73}
    .fil10 {fill:#f2ae37;fill-rule:nonzero}
    .fil5 {fill:#f2ae37;fill-rule:nonzero}
   ]]>
  </style>
 </defs>
 <g id="Layer_x0020_1">
  <metadata id="CorelCorpID_0Corel-Layer"/>
  <g id="_1587756617152">
   <path class="fil1" d="M778 896c87,24 229,39 389,39 161,0 303,-15 390,-39 57,-16 91,-35 91,-55 0,-52 -215,-95 -481,-95 -265,0 -480,43 -480,95 0,20 33,39 91,55z"/>
   <path class="fil2" d="M1167 935c-160,0 -302,-15 -389,-39 -58,-16 -91,-35 -91,-55 0,-52 215,-95 480,-95 266,0 481,43 481,95 0,20 -34,39 -91,55 -87,24 -229,39 -390,39zm-467 -21c108,33 277,54 467,54 190,0 360,-21 467,-54 76,-23 121,-53 121,-84 0,-76 -263,-138 -588,-138 -324,0 -588,62 -588,138 0,31 46,61 121,84z"/>
   <path class="fil3" d="M1167 968c-190,0 -359,-21 -467,-54 -75,-23 -121,-53 -121,-84l0 134 0 60c0,25 1,39 34,55 101,49 311,82 554,82 243,0 453,-33 555,-82 33,-16 33,-30 33,-55l0 -60 0 -134c0,31 -45,61 -121,84 -107,33 -277,54 -467,54z"/>
   <path class="fil4" d="M727 845c0,-51 210,-92 469,-92 160,0 301,16 386,40 -84,-28 -238,-47 -415,-47 -265,0 -480,43 -480,95 0,20 33,39 91,55 60,16 145,29 245,35 0,0 0,0 0,0 -84,-7 -155,-18 -207,-32 -56,-15 -89,-34 -89,-54z"/>
   <path class="fil5" d="M1152 1003c0,-9 7,-16 15,-16 8,0 15,7 15,16l0 123c0,9 -7,16 -15,16 -8,0 -15,-7 -15,-16l0 -123zm582 -86c0,-9 -7,-17 -15,-17 -8,0 -15,8 -15,17l0 125c0,9 7,16 15,16 8,0 15,-7 15,-16l0 -125zm-69 28c0,-9 -7,-16 -15,-16 -8,0 -15,7 -15,16l0 125c0,9 7,17 15,17 8,0 15,-8 15,-17l0 -125zm-69 19c0,-9 -7,-16 -15,-16 -8,0 -15,7 -15,16l0 124c0,9 7,16 15,16 8,0 15,-7 15,-16l0 -124zm-69 13c0,-9 -7,-16 -15,-16 -8,0 -15,7 -15,16l0 124c0,9 7,16 15,16 8,0 15,-7 15,-16l0 -124zm-69 10c0,-9 -7,-16 -15,-16 -8,0 -15,7 -15,16l0 124c0,8 7,16 15,16 8,0 15,-8 15,-16l0 -124zm-69 7c0,-9 -7,-16 -15,-16 -8,0 -15,7 -15,16l0 124c0,9 7,16 15,16 8,0 15,-7 15,-16l0 -124zm-69 5c0,-9 -7,-16 -15,-16 -8,0 -15,7 -15,16l0 125c0,9 7,16 15,16 8,0 15,-7 15,-16l0 -125zm-69 3c0,-9 -7,-16 -15,-16 -8,0 -15,7 -15,16l0 123c0,9 7,16 15,16 8,0 15,-7 15,-16l0 -123zm-650 -85c0,-9 6,-17 14,-17 9,0 15,8 15,17l0 125c0,9 -6,16 -15,16 -8,0 -14,-7 -14,-16l0 -125zm69 28c0,-9 6,-16 14,-16 9,0 15,7 15,16l0 125c0,9 -6,17 -15,17 -8,0 -14,-8 -14,-17l0 -125zm68 19c0,-9 7,-16 15,-16 9,0 15,7 15,16l0 124c0,9 -6,16 -15,16 -8,0 -15,-7 -15,-16l0 -124zm69 13c0,-9 7,-16 15,-16 9,0 15,7 15,16l0 124c0,9 -6,16 -15,16 -8,0 -15,-7 -15,-16l0 -124zm69 10c0,-9 7,-16 15,-16 9,0 15,7 15,16l0 124c0,8 -6,16 -15,16 -8,0 -15,-8 -15,-16l0 -124zm69 7c0,-9 7,-16 15,-16 8,0 15,7 15,16l0 124c0,9 -7,16 -15,16 -8,0 -15,-7 -15,-16l0 -124zm69 5c0,-9 7,-16 15,-16 8,0 15,7 15,16l0 125c0,9 -7,16 -15,16 -8,0 -15,-7 -15,-16l0 -125zm69 3c0,-9 7,-16 15,-16 8,0 15,7 15,16l0 123c0,9 -7,16 -15,16 -8,0 -15,-7 -15,-16l0 -123z"/>
   <path class="fil6" d="M1648 841c0,20 -34,39 -91,55 -56,15 -133,27 -224,33 1,0 1,0 1,0 105,-6 196,-18 258,-35 58,-16 91,-35 91,-56 0,-52 -215,-94 -480,-94 -59,0 -115,2 -167,6 42,-3 86,-4 131,-4 177,0 331,19 415,47 42,14 66,30 66,48z"/>
   <path class="fil1" d="M864 604c87,24 229,39 389,39 161,0 303,-15 390,-39 57,-16 91,-35 91,-55 0,-53 -215,-95 -481,-95 -265,0 -480,42 -480,95 0,20 34,39 91,55z"/>
   <path class="fil2" d="M1253 643c-160,0 -302,-15 -389,-39 -57,-16 -91,-35 -91,-55 0,-53 215,-95 480,-95 266,0 481,42 481,95 0,20 -34,39 -91,55 -87,24 -229,39 -390,39zm-466 -21c107,33 276,54 466,54 191,0 360,-21 467,-54 76,-24 121,-53 121,-84 0,-76 -263,-138 -588,-138 -324,0 -587,62 -587,138 0,31 45,60 121,84z"/>
   <path class="fil3" d="M1253 676c-190,0 -359,-21 -466,-54 -76,-24 -121,-53 -121,-84l0 134 0 60c0,25 0,39 33,55 102,49 312,82 554,82 243,0 453,-33 555,-82 33,-16 33,-30 33,-55l0 -60 0 -134c0,31 -45,60 -121,84 -107,33 -276,54 -467,54z"/>
   <path class="fil4" d="M813 553c0,-51 210,-92 469,-92 160,0 301,16 386,40 -83,-28 -238,-47 -415,-47 -265,0 -480,42 -480,95 0,20 34,39 91,55 60,16 145,28 245,35 0,0 0,0 0,0 -83,-7 -155,-18 -207,-32 -56,-15 -89,-34 -89,-54z"/>
   <path class="fil5" d="M1239 711c0,-9 6,-16 14,-16 9,0 15,7 15,16l0 123c0,9 -6,16 -15,16 -8,0 -14,-7 -14,-16l0 -123zm581 -87c0,-9 -7,-16 -15,-16 -8,0 -15,7 -15,16l0 126c0,8 7,16 15,16 8,0 15,-8 15,-16l0 -126zm-69 29c0,-9 -7,-17 -15,-17 -8,0 -15,8 -15,17l0 125c0,9 7,16 15,16 8,0 15,-7 15,-16l0 -125zm-69 19c0,-9 -7,-16 -15,-16 -8,0 -15,7 -15,16l0 124c0,9 7,16 15,16 8,0 15,-7 15,-16l0 -124zm-69 13c0,-9 -7,-16 -15,-16 -8,0 -15,7 -15,16l0 124c0,9 7,16 15,16 8,0 15,-7 15,-16l0 -124zm-69 10c0,-9 -7,-16 -15,-16 -8,0 -15,7 -15,16l0 123c0,9 7,17 15,17 8,0 15,-8 15,-17l0 -123zm-69 7c0,-9 -6,-16 -15,-16 -8,0 -15,7 -15,16l0 124c0,9 7,16 15,16 9,0 15,-7 15,-16l0 -124zm-69 5c0,-9 -6,-16 -15,-16 -8,0 -15,7 -15,16l0 125c0,9 7,16 15,16 9,0 15,-7 15,-16l0 -125zm-69 3c0,-9 -6,-16 -15,-16 -8,0 -15,7 -15,16l0 123c0,9 7,16 15,16 9,0 15,-7 15,-16l0 -123zm-650 -86c0,-9 6,-16 15,-16 8,0 14,7 14,16l0 126c0,8 -6,16 -14,16 -9,0 -15,-8 -15,-16l0 -126zm69 29c0,-9 6,-17 15,-17 8,0 14,8 14,17l0 125c0,9 -6,16 -14,16 -9,0 -15,-7 -15,-16l0 -125zm69 19c0,-9 6,-16 15,-16 8,0 14,7 14,16l0 124c0,9 -6,16 -14,16 -9,0 -15,-7 -15,-16l0 -124zm69 13c0,-9 6,-16 15,-16 8,0 14,7 14,16l0 124c0,9 -6,16 -14,16 -9,0 -15,-7 -15,-16l0 -124zm69 10c0,-9 6,-16 14,-16 9,0 15,7 15,16l0 123c0,9 -6,17 -15,17 -8,0 -14,-8 -14,-17l0 -123zm69 7c0,-9 6,-16 14,-16 9,0 15,7 15,16l0 124c0,9 -6,16 -15,16 -8,0 -14,-7 -14,-16l0 -124zm69 5c0,-9 6,-16 14,-16 9,0 15,7 15,16l0 125c0,9 -6,16 -15,16 -8,0 -14,-7 -14,-16l0 -125zm69 3c0,-9 6,-16 14,-16 9,0 15,7 15,16l0 123c0,9 -6,16 -15,16 -8,0 -14,-7 -14,-16l0 -123z"/>
   <path class="fil6" d="M1734 549c0,20 -34,39 -91,55 -55,15 -133,27 -223,33 0,0 0,0 0,0 105,-6 196,-18 259,-35 57,-16 90,-35 90,-56 0,-52 -215,-94 -480,-94 -59,0 -115,2 -166,6 41,-3 85,-4 130,-4 177,0 332,19 415,47 42,14 66,30 66,48z"/>
   <path class="fil1" d="M812 276c87,24 229,39 389,39 161,0 303,-15 390,-39 57,-15 91,-34 91,-55 0,-52 -215,-94 -481,-94 -265,0 -480,42 -480,94 0,21 34,40 91,55z"/>
   <path class="fil2" d="M1201 315c-160,0 -302,-15 -389,-39 -57,-15 -91,-34 -91,-55 0,-52 215,-94 480,-94 266,0 481,42 481,94 0,21 -34,40 -91,55 -87,24 -229,39 -390,39zm-466 -21c107,33 276,54 466,54 191,0 360,-21 467,-54 76,-23 121,-52 121,-84 0,-76 -263,-138 -588,-138 -324,0 -587,62 -587,138 0,32 45,61 121,84z"/>
   <path class="fil3" d="M1201 348c-190,0 -359,-21 -466,-54 -76,-23 -121,-52 -121,-84l0 135 0 59c0,26 0,39 33,55 101,49 312,83 554,83 243,0 453,-34 555,-83 33,-16 33,-29 33,-55l0 -59 0 -135c0,32 -45,61 -121,84 -107,33 -276,54 -467,54z"/>
   <path class="fil4" d="M761 226c0,-51 210,-93 469,-93 160,0 301,16 386,40 -84,-28 -238,-46 -415,-46 -265,0 -480,42 -480,94 0,21 34,40 91,55 60,17 145,29 245,35 0,0 0,0 0,0 -84,-6 -155,-17 -207,-32 -56,-15 -89,-33 -89,-53z"/>
   <path class="fil5" d="M1186 383c0,-9 7,-16 15,-16 9,0 15,7 15,16l0 124c0,9 -6,16 -15,16 -8,0 -15,-7 -15,-16l0 -124zm582 -86c0,-9 -7,-16 -15,-16 -8,0 -15,7 -15,16l0 125c0,9 7,16 15,16 8,0 15,-7 15,-16l0 -125zm-69 28c0,-9 -7,-16 -15,-16 -8,0 -15,7 -15,16l0 126c0,9 7,16 15,16 8,0 15,-7 15,-16l0 -126zm-69 20c0,-9 -7,-16 -15,-16 -8,0 -15,7 -15,16l0 123c0,9 7,17 15,17 8,0 15,-8 15,-17l0 -123zm-69 12c0,-9 -7,-16 -15,-16 -8,0 -15,7 -15,16l0 124c0,9 7,16 15,16 8,0 15,-7 15,-16l0 -124zm-69 10c0,-9 -7,-16 -15,-16 -8,0 -15,7 -15,16l0 124c0,9 7,16 15,16 8,0 15,-7 15,-16l0 -124zm-69 8c0,-9 -7,-16 -15,-16 -8,0 -15,7 -15,16l0 123c0,9 7,16 15,16 8,0 15,-7 15,-16l0 -123zm-69 5c0,-9 -7,-17 -15,-17 -8,0 -15,8 -15,17l0 124c0,9 7,17 15,17 8,0 15,-8 15,-17l0 -124zm-69 2c0,-8 -6,-16 -15,-16 -8,0 -15,8 -15,16l0 124c0,9 7,16 15,16 9,0 15,-7 15,-16l0 -124zm-650 -85c0,-9 6,-16 15,-16 8,0 14,7 14,16l0 125c0,9 -6,16 -14,16 -9,0 -15,-7 -15,-16l0 -125zm69 28c0,-9 6,-16 14,-16 9,0 15,7 15,16l0 126c0,9 -6,16 -15,16 -8,0 -14,-7 -14,-16l0 -126zm69 20c0,-9 6,-16 14,-16 9,0 15,7 15,16l0 123c0,9 -6,17 -15,17 -8,0 -14,-8 -14,-17l0 -123zm69 12c0,-9 6,-16 14,-16 9,0 15,7 15,16l0 124c0,9 -6,16 -15,16 -8,0 -14,-7 -14,-16l0 -124zm69 10c0,-9 6,-16 14,-16 9,0 15,7 15,16l0 124c0,9 -6,16 -15,16 -8,0 -14,-7 -14,-16l0 -124zm69 8c0,-9 6,-16 14,-16 9,0 15,7 15,16l0 123c0,9 -6,16 -15,16 -8,0 -14,-7 -14,-16l0 -123zm69 5c0,-9 6,-17 14,-17 9,0 15,8 15,17l0 124c0,9 -6,17 -15,17 -8,0 -14,-8 -14,-17l0 -124zm68 2c0,-8 7,-16 15,-16 9,0 15,8 15,16l0 124c0,9 -6,16 -15,16 -8,0 -15,-7 -15,-16l0 -124z"/>
   <path class="fil6" d="M1682 221c0,21 -34,40 -91,55 -56,15 -133,27 -223,34 0,0 0,0 0,0 105,-6 196,-19 258,-36 58,-15 91,-35 91,-55 0,-52 -215,-95 -480,-95 -59,0 -115,2 -166,6 41,-2 85,-3 130,-3 177,0 331,18 415,46 42,14 66,31 66,48z"/>
   <path class="fil7" d="M778 896c35,10 80,18 132,24 37,-51 68,-108 90,-168 -183,13 -313,48 -313,89 0,20 33,39 91,55z"/>
   <path class="fil8" d="M910 920c-52,-6 -97,-14 -132,-24 -58,-16 -91,-35 -91,-55 0,-41 130,-76 313,-89 7,-18 13,-37 18,-56 -252,16 -439,70 -439,134 0,31 46,61 121,84 50,15 114,28 186,37 9,-10 16,-20 24,-31z"/>
   <path class="fil9" d="M886 951c-72,-9 -136,-22 -186,-37 -75,-23 -121,-53 -121,-84l0 134 0 60c0,25 1,39 34,55 22,11 50,21 82,30 74,-39 139,-93 191,-158z"/>
   <path class="fil4" d="M727 845c0,-37 110,-68 269,-83 1,-3 3,-7 4,-10 -183,13 -313,48 -313,89 0,20 33,39 91,55 35,10 80,18 132,24l1 -2c-36,-5 -68,-12 -95,-19 -56,-15 -89,-34 -89,-54z"/>
   <path class="fil10" d="M738 1084c11,-7 21,-13 30,-20l0 -100c0,-9 -6,-16 -15,-16 -8,0 -15,7 -15,16l0 120zm69 -51c11,-9 21,-18 30,-28l0 -28c0,-9 -6,-16 -15,-16 -8,0 -15,7 -15,16l0 56zm-206 -116c0,-9 6,-17 14,-17 9,0 15,8 15,17l0 125c0,9 -6,16 -15,16 -8,0 -14,-7 -14,-16l0 -125zm69 28c0,-9 6,-16 14,-16 9,0 15,7 15,16l0 125c0,9 -6,17 -15,17 -8,0 -14,-8 -14,-17l0 -125z"/>
   <path class="fil7" d="M864 604c44,12 102,22 169,28 3,-15 5,-31 7,-47 4,-41 5,-81 2,-121 -160,15 -269,47 -269,85 0,20 34,39 91,55z"/>
   <path class="fil8" d="M1033 632c-67,-6 -125,-16 -169,-28 -57,-16 -91,-35 -91,-55 0,-38 109,-70 269,-85 -2,-18 -4,-36 -7,-54 -216,20 -369,70 -369,128 0,31 45,60 121,84 61,19 144,34 239,43 2,-11 5,-22 7,-33z"/>
   <path class="fil9" d="M1026 665c-95,-9 -178,-24 -239,-43 -76,-24 -121,-53 -121,-84l0 134 0 60c0,25 0,39 33,55 56,27 146,49 255,64 33,-59 57,-121 72,-186z"/>
   <path class="fil4" d="M813 553c0,-34 92,-63 229,-79 0,-4 0,-7 0,-10 -160,15 -269,47 -269,85 0,20 34,39 91,55 44,12 102,22 169,28l0 -1c-51,-6 -96,-15 -131,-24 -56,-15 -89,-34 -89,-54z"/>
   <path class="fil10" d="M966 829c10,-19 18,-38 26,-58l0 -76c0,-9 -6,-16 -15,-16 -8,0 -14,7 -14,16l0 123c0,4 1,8 3,11zm-279 -205c0,-9 6,-16 15,-16 8,0 14,7 14,16l0 126c0,8 -6,16 -14,16 -9,0 -15,-8 -15,-16l0 -126zm69 29c0,-9 6,-17 15,-17 8,0 14,8 14,17l0 125c0,9 -6,16 -14,16 -9,0 -15,-7 -15,-16l0 -125zm69 19c0,-9 6,-16 15,-16 8,0 14,7 14,16l0 124c0,9 -6,16 -14,16 -9,0 -15,-7 -15,-16l0 -124zm69 13c0,-9 6,-16 15,-16 8,0 14,7 14,16l0 124c0,9 -6,16 -14,16 -9,0 -15,-7 -15,-16l0 -124z"/>
   <path class="fil7" d="M812 276c50,14 118,25 198,32 -20,-59 -50,-115 -89,-164 -121,18 -200,45 -200,77 0,21 34,40 91,55z"/>
   <path class="fil8" d="M1010 308c-80,-7 -148,-18 -198,-32 -57,-15 -91,-34 -91,-55 0,-32 79,-59 200,-77 -14,-17 -29,-33 -45,-49 -158,25 -262,67 -262,115 0,32 45,61 121,84 71,22 171,39 286,48 -4,-12 -7,-23 -11,-34z"/>
   <path class="fil9" d="M1021 342c-115,-9 -215,-26 -286,-48 -76,-23 -121,-52 -121,-84l0 135 0 59c0,26 0,39 33,55 79,38 222,67 396,78 2,-66 -5,-132 -22,-195z"/>
   <path class="fil11" d="M761 226c0,-29 66,-54 168,-71 -3,-4 -5,-7 -8,-11 -121,18 -200,45 -200,77 0,21 34,40 91,55 50,14 118,25 198,32l0 -1c-64,-7 -118,-16 -160,-28 -56,-15 -89,-33 -89,-53z"/>
   <path class="fil10" d="M635 297c0,-9 6,-16 15,-16 8,0 14,7 14,16l0 125c0,9 -6,16 -14,16 -9,0 -15,-7 -15,-16l0 -125zm69 28c0,-9 6,-16 14,-16 9,0 15,7 15,16l0 126c0,9 -6,16 -15,16 -8,0 -14,-7 -14,-16l0 -126zm69 20c0,-9 6,-16 14,-16 9,0 15,7 15,16l0 123c0,9 -6,17 -15,17 -8,0 -14,-8 -14,-17l0 -123zm69 12c0,-9 6,-16 14,-16 9,0 15,7 15,16l0 124c0,9 -6,16 -15,16 -8,0 -14,-7 -14,-16l0 -124zm69 10c0,-9 6,-16 14,-16 9,0 15,7 15,16l0 124c0,9 -6,16 -15,16 -8,0 -14,-7 -14,-16l0 -124zm69 8c0,-9 6,-16 14,-16 9,0 15,7 15,16l0 123c0,9 -6,16 -15,16 -8,0 -14,-7 -14,-16l0 -123z"/>
   <path class="fil2" d="M4 556c-34,314 163,574 440,581 278,7 530,-242 564,-556 33,-314 -164,-574 -441,-581 -277,-7 -529,242 -563,556z"/>
   <path class="fil1" d="M88 558c-29,261 136,478 367,484 231,6 441,-202 469,-463 28,-261 -136,-478 -367,-484 -231,-6 -441,202 -469,463z"/>
   <path class="fil4" d="M452 122c-167,63 -299,233 -321,437 -27,249 121,457 334,481 6,1 11,1 16,1 -5,1 -11,1 -17,1 -3,0 -6,0 -9,0 -231,-6 -396,-223 -367,-484 23,-215 169,-394 349,-447 39,-11 79,-17 120,-16 9,0 17,1 26,2 -45,1 -89,9 -131,25z"/>
   <path class="fil6" d="M892 578c24,-216 -81,-402 -246,-470 182,52 302,245 278,471 -25,226 -185,412 -378,454 179,-59 323,-239 346,-455z"/>
   <path class="fil12" d="M299 628c10,24 39,38 63,31 25,-6 36,-30 26,-53 -15,-34 -10,-44 26,-53 36,-9 48,-3 63,31 10,23 39,37 63,31 25,-6 37,-30 26,-53 -10,-24 -38,-38 -63,-31 -36,8 -48,3 -63,-32 -10,-23 -39,-37 -63,-31 -25,6 -37,30 -26,53 15,35 10,45 -26,54 -25,6 -36,30 -26,53zm38 85c-10,-24 -39,-38 -63,-32 -25,7 -36,31 -26,54 10,23 39,37 63,31 25,-6 36,-30 26,-53zm267 -66c10,23 38,37 63,31 24,-6 36,-30 26,-53 -15,-35 -11,-45 26,-54 24,-6 36,-30 25,-53 -15,-35 -10,-45 26,-54 25,-6 36,-30 26,-53 -10,-24 -38,-38 -63,-32 -25,7 -36,30 -26,54 15,34 10,44 -26,53 -24,6 -36,30 -26,54 15,34 11,44 -26,53 -24,6 -36,30 -25,54z"/>
   <path class="fil13" d="M283 619c10,24 38,38 63,32 24,-7 36,-30 26,-54 -15,-34 -10,-44 26,-53 36,-9 48,-3 63,31 10,23 38,37 63,31 25,-6 36,-30 26,-53 -10,-23 -39,-38 -63,-31 -36,9 -48,3 -63,-32 -11,-23 -39,-37 -64,-31 -24,6 -36,30 -26,53 16,35 11,45 -25,54 -25,6 -37,30 -26,53zm38 85c-11,-24 -39,-38 -63,-31 -25,6 -37,30 -26,53 10,23 38,37 63,31 24,-6 36,-30 26,-53zm266 -66c11,23 39,37 63,31 25,-6 37,-30 26,-53 -15,-35 -10,-45 26,-54 25,-6 36,-30 26,-53 -15,-35 -10,-45 26,-54 25,-6 36,-30 26,-53 -10,-24 -39,-38 -63,-32 -25,7 -37,31 -26,54 15,34 10,44 -26,53 -25,6 -36,30 -26,54 15,34 10,44 -26,53 -24,6 -36,30 -26,54z"/>
   <path class="fil14" d="M963 604c1,-8 2,-15 3,-23 0,-4 1,-9 1,-13 0,0 0,0 0,-1 0,-1 0,-2 0,-3 3,-32 3,-64 1,-96 -1,-14 -3,-28 -4,-42 -1,-5 -2,-9 -2,-14 -1,-3 -2,-7 -3,-11 -2,-16 -6,-30 -10,-45 -4,-15 -8,-30 -14,-45 -7,-20 -15,-39 -24,-57 -8,-15 -15,-29 -24,-42 0,0 0,0 0,0 -2,-3 -3,-5 -4,-7 -21,-31 -44,-60 -70,-85 -7,-6 -13,-12 -20,-17 -20,-18 -42,-33 -65,-46 -57,-33 -123,-53 -193,-57 10,0 21,0 32,0 68,2 131,19 187,48 24,12 47,27 68,44 6,5 12,9 18,14 35,31 66,68 92,110 0,1 1,3 2,4 0,0 0,0 0,1 8,12 15,25 22,39 13,28 25,59 34,90 4,16 8,32 11,49 1,3 1,5 1,7 1,4 2,8 2,12 2,11 3,23 5,34 0,7 1,14 1,20 2,33 2,66 -1,99 0,1 -1,1 -1,2 0,0 0,0 0,1 0,2 0,5 0,7 -1,9 -3,19 -4,28 -2,13 -4,25 -7,38 -1,6 -3,13 -4,20 -3,13 -7,26 -11,38 -1,4 -2,7 -3,11 -8,22 -16,44 -26,66 -4,9 -8,18 -12,26 -13,26 -27,50 -43,74 0,0 0,0 -1,1 0,0 0,0 0,0 -8,12 -16,23 -24,33 -6,8 -12,15 -18,22 -2,3 -4,6 -7,9 -15,16 -30,32 -46,47 -11,10 -23,20 -34,29 -14,11 -29,22 -44,32 -10,6 -19,11 -29,17 -9,5 -19,10 -29,15 -69,34 -145,52 -222,50 -3,0 -6,0 -9,-1 71,-3 140,-23 204,-56 18,-10 36,-21 54,-33 11,-8 22,-16 33,-24 16,-13 31,-26 45,-40 12,-11 23,-23 34,-36 11,-11 20,-23 30,-36 8,-10 16,-21 23,-33 1,0 1,0 1,0 0,-1 1,-2 1,-3 16,-23 29,-47 42,-72 13,-27 24,-54 33,-82 2,-4 3,-8 4,-12 6,-19 11,-39 16,-59 3,-15 6,-31 8,-46z"/>
   <path class="fil15" d="M5718 647c-4,47 -6,122 23,163 32,44 94,45 144,45 54,0 114,-2 152,-46 34,-40 42,-114 46,-164 3,-46 6,-123 -23,-163 -32,-43 -97,-44 -145,-44 -53,0 -114,2 -151,45 -35,40 -43,114 -46,164zm204 -329c86,0 186,3 251,69 63,65 63,175 57,260 -6,89 -23,196 -92,259 -70,64 -169,69 -259,69 -86,0 -186,-3 -250,-70 -67,-68 -64,-171 -58,-260 6,-92 19,-194 93,-259 72,-64 167,-68 258,-68z"/>
   <path class="fil15" d="M4399 702l195 0 -76 -232c-1,-2 -3,-7 -4,-11 -3,4 -5,10 -6,12l-109 231zm229 110l-278 0 -73 155 -153 0 280 -572c27,-55 56,-77 118,-77 60,0 90,22 109,79l201 570 -152 0 -52 -155z"/>
   <path class="fil16" d="M2762 662l198 0c10,0 11,-6 11,-14 1,-19 -5,-39 -20,-51 -21,-17 -52,-18 -78,-18 -33,0 -65,1 -90,27 -16,16 -19,35 -21,56zm-8 107c0,16 0,35 2,48 8,40 42,44 77,44l300 0c6,40 23,76 57,105l2 1 -395 0c-61,0 -115,-9 -150,-65 -31,-49 -28,-121 -24,-178 5,-75 12,-154 74,-204 52,-43 122,-47 186,-47 53,0 113,2 159,32 57,37 66,100 62,163 -2,30 -9,58 -32,80 -17,16 -37,21 -60,21l-258 0z"/>
   <path class="fil16" d="M2262 581l-18 256c0,5 -2,16 1,21 4,3 13,3 18,3l74 0c37,0 69,-6 89,-41 15,-24 19,-65 21,-93 2,-26 4,-79 -7,-104 -14,-33 -45,-42 -78,-42l-100 0zm7 -107l121 0c71,0 135,16 170,84 25,49 25,113 21,166 -4,54 -13,115 -43,161 -40,63 -106,82 -177,82l-147 0c-30,0 -59,-1 -82,-24 -19,-19 -23,-43 -21,-68l38 -550 130 0 -10 149z"/>
   <path class="fil15" d="M5048 505l-32 462 -140 0 38 -553c5,-63 53,-96 114,-96 46,0 83,14 106,55l231 410 32 -458 140 0 -38 550c-5,64 -48,100 -111,100 -48,0 -83,-16 -108,-59l-231 -409c0,-1 -1,-2 -1,-2z"/>
   <path class="fil15" d="M3650 505l-31 462 -140 0 38 -553c4,-63 52,-96 113,-96 46,0 83,14 106,55l231 410 32 -458 140 0 -38 550c-4,64 -48,100 -111,100 -48,0 -83,-16 -108,-59l-230 -409c-1,-1 -1,-2 -2,-2z"/>
   <path class="fil16" d="M3193 581l-64 0 7 -107 64 0 11 -149 130 0 -10 149 130 0 -8 107 -130 0 -12 174c-1,28 -7,69 16,89 17,15 48,17 70,17l40 0 -8 106 -76 0c-49,0 -94,-4 -132,-37 -39,-34 -47,-80 -43,-129l15 -220z"/>
  </g>
 </g>
</svg>
