<?xml version="1.0" encoding="UTF-8"?>
<svg viewBox="0 0 417.1 82.9" xmlns="http://www.w3.org/2000/svg">
    <defs>
        <style>.cls-1{fill:#f1f1f1;}.cls-1,.cls-10,.cls-11,.cls-12,.cls-14,.cls-15,.cls-16,.cls-17,.cls-2,.cls-3,.cls-4,
            .cls-5,.cls-6,.cls-7,.cls-8,.cls-9{fill-rule:evenodd;}.cls-13,.cls-2{fill:#f8c811;}.cls-3{fill:#ffe600;}
            .cls-4{fill:#fed455;}.cls-5{fill:#f7b917;}.cls-6{fill:#ec9822;}.cls-7{fill:#feef6e;}.cls-8{fill:#e5ba21;}
            .cls-9{fill:#e6cc1e;}.cls-10{fill:#e1b934;}.cls-11{fill:#d98a27;}.cls-12{fill:#daa128;}
            .cls-14{fill:#eec01b;}.cls-15{fill:#fdd900;}.cls-16{fill:#2d2d2d;}.cls-17{fill:#f7f4f4;}</style>
    </defs>
    <path class="cls-1" transform="translate(-104.28 -197.52)" d="m170.91 264.27c-32 0-57.93 3.61-57.93 8.07s25.94 8.07 57.93 8.07 57.93-3.61 57.93-8.07-25.93-8.07-57.93-8.07z"/>
    <path class="cls-2" transform="translate(-104.28 -197.52)" d="m156.32 257.48c5.84 1.58 15.35 2.62 26.08 2.62s20.23-1 26.07-2.62c3.83-1 6.09-2.32 6.09-3.7 0-3.49-14.4-6.32-32.16-6.32s-32.16 2.83-32.16 6.32c0 1.38 2.26 2.66 6.08 3.7z"/>
    <path class="cls-3" transform="translate(-104.28 -197.52)" d="m182.4 260.1c-10.73 0-20.24-1-26.08-2.62-3.82-1-6.08-2.32-6.08-3.7 0-3.49 14.4-6.32 32.16-6.32s32.16 2.83 32.16 6.32c0 1.38-2.26 2.66-6.09 3.7-5.84 1.58-15.34 2.62-26.07 2.62zm-31.24-1.43c7.19 2.21 18.51 3.63 31.24 3.63s24-1.42 31.24-3.63c5.08-1.55 8.09-3.5 8.09-5.61 0-5.1-17.61-9.24-39.33-9.24s-39.34 4.14-39.34 9.24c0 2.11 3.02 4.06 8.1 5.61z"/>
    <path class="cls-4" transform="translate(-104.28 -197.52)" d="m182.4 262.3c-12.73 0-24.05-1.42-31.24-3.63-5.08-1.55-8.1-3.5-8.1-5.61v13c0 1.7 0 2.63 2.22 3.69 6.81 3.27 20.87 5.51 37.12 5.51s30.31-2.24 37.12-5.51c2.2-1.06 2.21-2 2.21-3.69v-13c0 2.11-3 4.06-8.09 5.61-7.19 2.21-18.51 3.63-31.24 3.63z"/>
    <path class="cls-5" transform="translate(-104.28 -197.52)" d="m153 254.08c0-3.41 14-6.17 31.36-6.17 10.72 0 20.18 1.06 25.84 2.67-5.59-1.87-15.92-3.12-27.75-3.12-17.76 0-32.16 2.83-32.16 6.32 0 1.38 2.26 2.66 6.08 3.7a87.44 87.44 0 0 0 16.42 2.33 78.58 78.58 0 0 1 -13.86 -2.13c-3.78-1.01-5.93-2.26-5.93-3.6z"/>
    <path class="cls-6" transform="translate(-104.28 -197.52)" d="M181.4,264.64a1,1,0,1,1,2,0v8.25a1,1,0,1,1-2,0v-8.25Zm38.92-5.79a1,1,0,1,0-2,0v8.38a1,1,0,1,0,2,0v-8.38Zm-4.61,1.89a1,1,0,1,0-2,0v8.41a1,1,0,1,0,2,0v-8.41Zm-4.62,1.31a1,1,0,1,0-2,0v8.28a1,1,0,1,0,2,0v-8.28Zm-4.62.85a1,1,0,1,0-2,0v8.3a1,1,0,1,0,2,0v-8.3Zm-4.61.67a1,1,0,1,0-2,0v8.27a1,1,0,1,0,2,0v-8.27Zm-4.62.49a1,1,0,1,0-2,0v8.27a1,1,0,1,0,2,0v-8.27Zm-4.61.33a1,1,0,1,0-2,0v8.35a1,1,0,1,0,2,0v-8.35Zm-4.62.19a1,1,0,1,0-2,0v8.25a1,1,0,1,0,2,0v-8.25Zm-43.54-5.73a1,1,0,1,1,2,0v8.38a1,1,0,1,1-2,0v-8.38Zm4.62,1.89a1,1,0,1,1,2,0v8.41a1,1,0,1,1-2,0v-8.41Zm4.62,1.31a1,1,0,1,1,2,0v8.28a1,1,0,1,1-2,0v-8.28Zm4.61.85a1,1,0,1,1,2,0v8.3a1,1,0,1,1-2,0v-8.3Zm4.62.67a1,1,0,1,1,2,0v8.27a1,1,0,1,1-2,0v-8.27Zm4.62.49a1,1,0,1,1,2,0v8.27a1,1,0,1,1-2,0v-8.27Zm4.61.33a1,1,0,1,1,2,0v8.35a1,1,0,1,1-2,0v-8.35Zm4.62.19a1,1,0,1,1,2,0v8.25a1,1,0,1,1-2,0Z"/>
    <path class="cls-7" transform="translate(-104.28 -197.52)" d="m214.56 253.78c0 1.38-2.26 2.66-6.09 3.7a83.85 83.85 0 0 1 -14.94 2.23 88.73 88.73 0 0 0 17.32 -2.39c3.83-1 6.08-2.31 6.08-3.69 0-3.49-14.39-6.32-32.15-6.32-3.91 0-7.66 0.13-11.13 0.39 2.78-0.16 5.72-0.24 8.75-0.24 11.83 0 22.16 1.25 27.75 3.12 2.85 0.94 4.41 2.03 4.41 3.2z"/>
    <path class="cls-2" transform="translate(-104.28 -197.52)" d="m162.09 237.93c5.84 1.58 15.35 2.61 26.08 2.61s20.23-1 26.07-2.61c3.83-1 6.08-2.32 6.08-3.7 0-3.49-14.39-6.32-32.15-6.32s-32.17 2.83-32.17 6.32c0 1.38 2.26 2.66 6.09 3.7z"/>
    <path class="cls-3" transform="translate(-104.28 -197.52)" d="m188.17 240.54c-10.73 0-20.24-1-26.08-2.61-3.83-1-6.08-2.32-6.08-3.7 0-3.49 14.4-6.32 32.16-6.32s32.15 2.83 32.15 6.32c0 1.38-2.25 2.66-6.08 3.7-5.84 1.58-15.34 2.61-26.07 2.61zm-31.25-1.42c7.19 2.2 18.51 3.63 31.25 3.63s24.05-1.43 31.24-3.63c5.08-1.56 8.09-3.5 8.09-5.61 0-5.1-17.61-9.24-39.33-9.24s-39.34 4.14-39.34 9.24c0 2.11 3.02 4.05 8.09 5.61z"/>
    <path class="cls-4" transform="translate(-104.28 -197.52)" d="m188.17 242.75c-12.74 0-24.06-1.43-31.25-3.63-5.07-1.56-8.09-3.5-8.09-5.61v13c0 1.7 0 2.63 2.21 3.68 6.82 3.27 20.88 5.52 37.13 5.52s30.3-2.25 37.12-5.52c2.2-1 2.21-2 2.21-3.68v-13c0 2.11-3 4.05-8.09 5.61-7.19 2.2-18.51 3.63-31.24 3.63z"/>
    <path class="cls-5" transform="translate(-104.28 -197.52)" d="m158.72 234.53c0-3.41 14-6.17 31.36-6.17 10.72 0 20.18 1.06 25.84 2.67-5.59-1.87-15.93-3.12-27.75-3.12-17.76 0-32.16 2.83-32.16 6.32 0 1.38 2.25 2.66 6.08 3.7a87.55 87.55 0 0 0 16.42 2.32 77.79 77.79 0 0 1 -13.85 -2.12c-3.74-1.01-5.94-2.26-5.94-3.6z"/>
    <path class="cls-6" transform="translate(-104.28 -197.52)" d="M187.17,245.09a1,1,0,1,1,2,0v8.25a1,1,0,1,1-2,0v-8.25Zm38.92-5.79a1,1,0,1,0-2,0v8.38a1,1,0,1,0,2,0V239.3Zm-4.62,1.89a1,1,0,1,0-2,0v8.41a1,1,0,1,0,2,0v-8.41Zm-4.61,1.31a1,1,0,1,0-2,0v8.28a1,1,0,1,0,2,0V242.5Zm-4.62.84a1,1,0,1,0-2,0v8.31a1,1,0,1,0,2,0v-8.31Zm-4.61.68a1,1,0,1,0-2,0v8.27a1,1,0,1,0,2,0V244Zm-4.62.49a1,1,0,1,0-2,0v8.27a1,1,0,1,0,2,0v-8.27Zm-4.62.33a1,1,0,1,0-2,0v8.35a1,1,0,1,0,2,0v-8.35Zm-4.61.19a1,1,0,1,0-2,0v8.25a1,1,0,1,0,2,0V245Zm-43.54-5.73a1,1,0,1,1,2,0v8.38a1,1,0,1,1-2,0V239.3Zm4.62,1.89a1,1,0,1,1,2,0v8.41a1,1,0,1,1-2,0v-8.41Zm4.61,1.31a1,1,0,1,1,2,0v8.28a1,1,0,1,1-2,0V242.5Zm4.62.84a1,1,0,1,1,2,0v8.31a1,1,0,1,1-2,0v-8.31Zm4.62.68a1,1,0,1,1,2,0v8.27a1,1,0,1,1-2,0V244Zm4.61.49a1,1,0,1,1,2,0v8.27a1,1,0,1,1-2,0v-8.27Zm4.62.33a1,1,0,1,1,2,0v8.35a1,1,0,1,1-2,0v-8.35Zm4.62.19a1,1,0,1,1,2,0v8.25a1,1,0,1,1-2,0Z"/>
    <path class="cls-7" transform="translate(-104.28 -197.52)" d="m220.32 234.23c0 1.38-2.25 2.66-6.08 3.7a83.85 83.85 0 0 1 -14.94 2.23 89.51 89.51 0 0 0 17.32 -2.39c3.83-1 6.08-2.31 6.08-3.7 0-3.48-14.4-6.31-32.16-6.31-3.91 0-7.65 0.13-11.12 0.39 2.78-0.16 5.71-0.24 8.75-0.24 11.82 0 22.16 1.25 27.75 3.12 2.8 0.97 4.4 2.03 4.4 3.2z"/>
    <path class="cls-2" transform="translate(-104.28 -197.52)" d="m158.61 216c5.84 1.59 15.34 2.62 26.07 2.62s20.24-1 26.08-2.62c3.82-1 6.08-2.32 6.08-3.7 0-3.49-14.4-6.32-32.16-6.32s-32.15 2.83-32.15 6.32c0 1.39 2.25 2.7 6.08 3.7z"/>
    <path class="cls-3" transform="translate(-104.28 -197.52)" d="m184.68 218.63c-10.73 0-20.23-1-26.07-2.62-3.83-1-6.08-2.32-6.08-3.7 0-3.49 14.39-6.32 32.15-6.32s32.16 2.83 32.16 6.32c0 1.38-2.26 2.66-6.08 3.7-5.84 1.59-15.35 2.62-26.08 2.62zm-31.24-1.42c7.19 2.2 18.51 3.62 31.24 3.62s24-1.42 31.24-3.62c5.08-1.56 8.1-3.51 8.1-5.62 0-5.1-17.61-9.24-39.34-9.24s-39.33 4.14-39.33 9.24c0 2.11 3.01 4.06 8.09 5.62z"/>
    <path class="cls-4" transform="translate(-104.28 -197.52)" d="m184.68 220.83c-12.73 0-24.05-1.42-31.24-3.62-5.08-1.56-8.09-3.51-8.09-5.62v13c0 1.69 0 2.62 2.21 3.68 6.81 3.27 20.88 5.52 37.12 5.52s30.31-2.25 37.12-5.52c2.21-1.06 2.22-2 2.22-3.68v-13c0 2.11-3 4.06-8.1 5.62-7.19 2.2-18.5 3.62-31.24 3.62z"/>
    <path class="cls-5" transform="translate(-104.28 -197.52)" d="m155.23 212.61c0-3.4 14-6.16 31.36-6.16 10.72 0 20.18 1.06 25.84 2.67-5.58-1.87-15.92-3.13-27.75-3.13-17.76 0-32.15 2.83-32.15 6.32 0 1.38 2.25 2.66 6.08 3.7a86.49 86.49 0 0 0 16.39 2.33 79.64 79.64 0 0 1 -13.86 -2.12c-3.71-1.02-5.91-2.22-5.91-3.61z"/>
    <path class="cls-6" transform="translate(-104.28 -197.52)" d="M183.69,223.17a1,1,0,1,1,2,0v8.25a1,1,0,1,1-2,0v-8.25Zm38.92-5.78a1,1,0,1,0-2,0v8.38a1,1,0,1,0,2,0v-8.38ZM218,219.27a1,1,0,1,0-2,0v8.42a1,1,0,1,0,2,0v-8.42Zm-4.62,1.31a1,1,0,1,0-2,0v8.29a1,1,0,1,0,2,0v-8.29Zm-4.61.85a1,1,0,1,0-2,0v8.3a1,1,0,1,0,2,0v-8.3Zm-4.62.67a1,1,0,1,0-2,0v8.27a1,1,0,1,0,2,0V222.1Zm-4.61.49a1,1,0,1,0-2,0v8.27a1,1,0,1,0,2,0v-8.27Zm-4.62.33a1,1,0,1,0-2,0v8.36a1,1,0,1,0,2,0v-8.36Zm-4.62.19a1,1,0,1,0-2,0v8.26a1,1,0,1,0,2,0v-8.26Zm-43.53-5.72a1,1,0,1,1,2,0v8.38a1,1,0,1,1-2,0v-8.38Zm4.61,1.88a1,1,0,1,1,2,0v8.42a1,1,0,1,1-2,0v-8.42Zm4.62,1.31a1,1,0,1,1,2,0v8.29a1,1,0,1,1-2,0v-8.29Zm4.62.85a1,1,0,1,1,2,0v8.3a1,1,0,1,1-2,0v-8.3Zm4.61.67a1,1,0,1,1,2,0v8.27a1,1,0,1,1-2,0V222.1Zm4.62.49a1,1,0,1,1,2,0v8.27a1,1,0,1,1-2,0v-8.27Zm4.61.33a1,1,0,1,1,2,0v8.36a1,1,0,1,1-2,0v-8.36Zm4.62.19a1,1,0,1,1,2,0v8.26a1,1,0,1,1-2,0Z"/>
    <path class="cls-7" transform="translate(-104.28 -197.52)" d="m216.84 212.31c0 1.38-2.26 2.66-6.08 3.7a82.93 82.93 0 0 1 -14.95 2.23 88.84 88.84 0 0 0 17.32 -2.38c3.82-1 6.08-2.32 6.08-3.7 0-3.49-14.4-6.32-32.16-6.32-3.91 0-7.66 0.14-11.13 0.39 2.79-0.15 5.72-0.24 8.75-0.24 11.83 0 22.17 1.26 27.75 3.13 2.81 0.93 4.42 2.03 4.42 3.19z"/>
    <path class="cls-8" transform="translate(-104.28 -197.52)" d="m156.32 257.48a66.2 66.2 0 0 0 8.86 1.63 47.47 47.47 0 0 0 6 -11.26c-12.24 0.9-21 3.21-21 5.93 0.06 1.38 2.32 2.66 6.14 3.7z"/>
    <path class="cls-9" transform="translate(-104.28 -197.52)" d="m165.18 259.11a66.2 66.2 0 0 1 -8.86 -1.63c-3.82-1-6.08-2.32-6.08-3.7 0-2.72 8.72-5 21-5.93 0.45-1.22 0.86-2.47 1.21-3.73-16.89 1-29.35 4.65-29.35 8.94 0 2.11 3 4.06 8.1 5.61a76.11 76.11 0 0 0 12.44 2.5c0.51-0.67 1.04-1.35 1.54-2.06z"/>
    <path class="cls-10" transform="translate(-104.28 -197.52)" d="M163.6,261.17a76.11,76.11,0,0,1-12.44-2.5c-5.08-1.55-8.1-3.5-8.1-5.61v13c0,1.7,0,2.63,2.22,3.69a36.14,36.14,0,0,0,5.54,2A41.05,41.05,0,0,0,163.6,261.17Z"/>
    <path class="cls-5" transform="translate(-104.28 -197.52)" d="M153,254.08c0-2.47,7.36-4.59,18-5.58.08-.21.17-.43.25-.65-12.24.9-21,3.21-21,5.93,0,1.38,2.26,2.66,6.08,3.7a67.68,67.68,0,0,0,8.86,1.64l.1-.14a57.8,57.8,0,0,1-6.4-1.3C155.15,256.67,153,255.42,153,254.08Z"/>
    <path class="cls-11" transform="translate(-104.28 -197.52)" d="M153.71,270.06c.67-.44,1.34-.89,2-1.36v-6.65a1,1,0,1,0-2,0v8Zm4.61-3.44c.68-.59,1.35-1.2,2-1.83V262.9a1,1,0,1,0-2,0v3.72Zm-13.85-7.77a1,1,0,1,1,2,0v8.38a1,1,0,1,1-2,0v-8.38Zm4.62,1.89a1,1,0,1,1,2,0v8.41a1,1,0,1,1-2,0Z"/>
    <path class="cls-8" transform="translate(-104.28 -197.52)" d="m162.09 237.93a73.34 73.34 0 0 0 11.31 1.91c0.19-1.06 0.35-2.13 0.46-3.2a44.63 44.63 0 0 0 0.14 -8.09c-10.66 1-18 3.19-18 5.68 0 1.38 2.26 2.66 6.09 3.7z"/>
    <path class="cls-9" transform="translate(-104.28 -197.52)" d="m173.4 239.84a73.34 73.34 0 0 1 -11.31 -1.91c-3.83-1-6.08-2.32-6.08-3.7 0-2.49 7.33-4.65 18-5.68-0.09-1.21-0.24-2.42-0.43-3.62-14.5 1.36-24.74 4.69-24.74 8.58 0 2.11 3 4.05 8.09 5.61a85.63 85.63 0 0 0 16.07 2.88q0.21-1.06 0.4-2.16z"/>
    <path class="cls-10" transform="translate(-104.28 -197.52)" d="M173,242a85.63,85.63,0,0,1-16-2.91c-5.07-1.56-8.09-3.5-8.09-5.61v13c0,1.7,0,2.63,2.22,3.68,3.77,1.81,9.76,3.31,17.11,4.29A48.12,48.12,0,0,0,173,242Z"/>
    <path class="cls-5" transform="translate(-104.28 -197.52)" d="m158.72 234.53c0-2.26 6.14-4.23 15.32-5.3v-0.68c-10.66 1-18 3.19-18 5.68 0 1.38 2.25 2.66 6.08 3.7a73.34 73.34 0 0 0 11.31 1.91v-0.09a64.16 64.16 0 0 1 -8.77 -1.62c-3.74-1.01-5.94-2.26-5.94-3.6z"/>
    <path class="cls-11" transform="translate(-104.28 -197.52)" d="M168.94,253c.64-1.25,1.23-2.54,1.76-3.84V244a1,1,0,1,0-2,0v8.27a1.1,1.1,0,0,0,.23.69Zm-18.7-13.68a1,1,0,1,1,2,0v8.38a1,1,0,1,1-2,0V239.3Zm4.62,1.89a1,1,0,1,1,2,0v8.41a1,1,0,1,1-2,0v-8.41Zm4.61,1.31a1,1,0,1,1,2,0v8.28a1,1,0,1,1-2,0V242.5Zm4.62.84a1,1,0,1,1,2,0v8.31a1,1,0,1,1-2,0Z"/>
    <path class="cls-8" transform="translate(-104.28 -197.52)" d="m158.61 216a79.24 79.24 0 0 0 13.27 2.1 36.33 36.33 0 0 0 -6 -10.93c-8.11 1.15-13.4 3-13.4 5.13 0.04 1.39 2.3 2.7 6.13 3.7z"/>
    <path class="cls-9" transform="translate(-104.28 -197.52)" d="m171.88 218.11a79.24 79.24 0 0 1 -13.27 -2.1c-3.83-1-6.09-2.32-6.09-3.7 0-2.11 5.29-4 13.4-5.13a33.44 33.44 0 0 0 -3 -3.28c-10.58 1.66-17.54 4.48-17.54 7.69 0 2.11 3 4.06 8.09 5.62a93 93 0 0 0 19.14 3.18c-0.24-0.77-0.48-1.53-0.73-2.28z"/>
    <path class="cls-10" transform="translate(-104.28 -197.52)" d="M172.58,220.39a93,93,0,0,1-19.14-3.18c-5.08-1.56-8.09-3.51-8.09-5.62v13c0,1.69,0,2.62,2.21,3.68,5.28,2.53,14.91,4.45,26.53,5.19A43,43,0,0,0,172.58,220.39Z"/>
    <path class="cls-12" transform="translate(-104.28 -197.52)" d="m155.23 212.61c0-1.9 4.37-3.59 11.24-4.72l-0.55-0.71c-8.11 1.15-13.4 3-13.4 5.13 0 1.38 2.26 2.66 6.09 3.7a79.24 79.24 0 0 0 13.27 2.1v-0.06a69.85 69.85 0 0 1 -10.7 -1.83c-3.75-1.02-5.95-2.22-5.95-3.61z"/>
    <path class="cls-11" transform="translate(-104.28 -197.52)" d="M146.76,217.39a1,1,0,1,1,2,0v8.38a1,1,0,1,1-2,0v-8.38Zm4.61,1.88a1,1,0,1,1,2,0v8.42a1,1,0,1,1-2,0v-8.42Zm4.62,1.31a1,1,0,1,1,2,0v8.29a1,1,0,1,1-2,0v-8.29Zm4.62.85a1,1,0,1,1,2,0v8.3a1,1,0,1,1-2,0v-8.3Zm4.61.67a1,1,0,1,1,2,0v8.27a1,1,0,1,1-2,0V222.1Zm4.62.49a1,1,0,1,1,2,0v8.27a1,1,0,1,1-2,0Z"/>
    <path class="cls-3" transform="translate(-104.28 -197.52)" d="m104.54 234.71c-2.27 21 10.93 38.41 29.49 38.88s35.42-16.18 37.69-37.19-10.94-38.4-29.49-38.87-35.43 16.18-37.69 37.18z"/>
    <ellipse class="cls-13" transform="translate(-234.84 86.8) rotate(-69.9)" cx="138.13" cy="235.56" rx="32.19" ry="27.6"/>
    <path class="cls-5" transform="translate(-104.28 -197.52)" d="M134.52,205.69c-11.15,4.19-20,15.61-21.48,29.24-1.8,16.65,8.1,30.58,22.39,32.19l1.06.1-1.14,0h-.64c-15.45-.39-26.45-14.88-24.56-32.38,1.55-14.39,11.34-26.33,23.37-29.89a25.77,25.77,0,0,1,8-1.08c.6,0,1.19.05,1.77.11A26.34,26.34,0,0,0,134.52,205.69Z"/>
    <path class="cls-7" transform="translate(-104.28 -197.52)" d="m164 236.21c1.56-14.45-5.45-26.91-16.5-31.43 12.21 3.44 20.23 16.34 18.59 31.48s-12.38 27.57-25.27 30.38c11.99-3.94 21.63-15.98 23.18-30.43z"/>
    <path class="cls-14" transform="translate(-104.28 -197.52)" d="M124.29,239.55a3.8,3.8,0,0,0,4.23,2.1,2.5,2.5,0,0,0,1.73-3.57c-1-2.3-.68-3,1.74-3.58s3.21-.2,4.23,2.1a3.82,3.82,0,0,0,4.23,2.1,2.51,2.51,0,0,0,1.73-3.58A3.8,3.8,0,0,0,138,233c-2.42.6-3.22.2-4.23-2.1a3.79,3.79,0,0,0-4.23-2.1,2.51,2.51,0,0,0-1.73,3.58c1,2.3.68,3-1.74,3.58a2.51,2.51,0,0,0-1.73,3.57Zm2.55,5.67a3.8,3.8,0,0,0-4.23-2.09,2.5,2.5,0,0,0-1.73,3.57,3.79,3.79,0,0,0,4.23,2.1,2.51,2.51,0,0,0,1.73-3.58Zm17.84-4.43a3.78,3.78,0,0,0,4.22,2.1,2.5,2.5,0,0,0,1.74-3.57c-1-2.3-.69-3,1.73-3.58a2.51,2.51,0,0,0,1.73-3.58c-1-2.3-.68-3,1.73-3.57a2.51,2.51,0,0,0,1.74-3.58,3.8,3.8,0,0,0-4.23-2.1,2.51,2.51,0,0,0-1.74,3.58c1,2.3.69,3-1.73,3.57a2.51,2.51,0,0,0-1.73,3.58c1,2.3.68,3-1.73,3.58A2.5,2.5,0,0,0,144.68,240.79Z"/>
    <path class="cls-6" transform="translate(-104.28 -197.52)" d="M123.2,239a3.8,3.8,0,0,0,4.23,2.09,2.5,2.5,0,0,0,1.73-3.57c-1-2.3-.68-3,1.73-3.58s3.22-.2,4.23,2.1a3.8,3.8,0,0,0,4.23,2.1,2.51,2.51,0,0,0,1.74-3.58,3.8,3.8,0,0,0-4.23-2.1c-2.42.6-3.22.2-4.23-2.1a3.82,3.82,0,0,0-4.23-2.1,2.51,2.51,0,0,0-1.73,3.58c1,2.3.68,3-1.74,3.58A2.51,2.51,0,0,0,123.2,239Zm2.55,5.67a3.8,3.8,0,0,0-4.23-2.1,2.51,2.51,0,0,0-1.74,3.57,3.8,3.8,0,0,0,4.23,2.1,2.5,2.5,0,0,0,1.74-3.57Zm17.83-4.43a3.82,3.82,0,0,0,4.23,2.1,2.52,2.52,0,0,0,1.74-3.58c-1-2.3-.69-3,1.73-3.58a2.51,2.51,0,0,0,1.73-3.58c-1-2.3-.69-3,1.73-3.57a2.51,2.51,0,0,0,1.73-3.58,3.79,3.79,0,0,0-4.23-2.1,2.51,2.51,0,0,0-1.73,3.58c1,2.3.69,3-1.73,3.58a2.5,2.5,0,0,0-1.73,3.57c1,2.3.68,3-1.73,3.58A2.51,2.51,0,0,0,143.58,240.2Z"/>
    <path class="cls-15" transform="translate(-104.28 -197.52)" d="M168.72,237.93c.07-.51.14-1,.19-1.53l.09-.87v-.05c0-.06,0-.13,0-.19a43.23,43.23,0,0,0,0-6.43c-.07-1-.17-1.92-.3-2.86-.05-.3-.09-.59-.14-.88s-.09-.53-.14-.79c-.18-1-.41-2-.67-3s-.59-2-.94-3a35.2,35.2,0,0,0-1.66-3.87c-.48-1-1-1.89-1.56-2.78a.05.05,0,0,1,0,0l-.29-.45a31.86,31.86,0,0,0-4.69-5.68c-.42-.39-.84-.78-1.28-1.15a29.34,29.34,0,0,0-4.36-3.08,28.47,28.47,0,0,0-13-3.76c.72,0,1.44,0,2.17,0a28.49,28.49,0,0,1,12.49,3.18,29.31,29.31,0,0,1,4.58,2.95c.4.32.79.64,1.17,1a31.84,31.84,0,0,1,6.17,7.35l.15.25,0,.05c.51.85,1,1.73,1.43,2.63a37.26,37.26,0,0,1,2.28,6c.3,1.07.55,2.16.76,3.28l.09.49c0,.26.09.52.13.79.12.75.21,1.5.28,2.27.05.45.08.9.11,1.35a42,42,0,0,1-.11,6.62.49.49,0,0,1,0,.12v0c0,.16,0,.33-.05.49-.07.63-.15,1.26-.24,1.88-.13.85-.28,1.69-.46,2.52-.09.45-.19.9-.3,1.34-.21.87-.45,1.73-.71,2.58-.07.23-.14.47-.22.7a44.34,44.34,0,0,1-1.7,4.42c-.27.6-.55,1.19-.84,1.78a45.77,45.77,0,0,1-2.86,4.9l-.06.08,0,0c-.51.76-1.05,1.5-1.61,2.22-.37.49-.76,1-1.16,1.44l-.5.57a39.06,39.06,0,0,1-3.11,3.19c-.73.67-1.49,1.32-2.26,1.93-1,.75-1.94,1.46-2.95,2.12q-.93.6-1.89,1.14c-.66.37-1.33.72-2,1.05a32,32,0,0,1-14.8,3.3l-.64,0A32.7,32.7,0,0,0,147,269.79a38.42,38.42,0,0,0,3.63-2.19c.76-.52,1.51-1.07,2.24-1.64a39.19,39.19,0,0,0,3-2.63c.79-.77,1.56-1.58,2.3-2.42s1.34-1.57,2-2.4,1.07-1.46,1.57-2.22l0,0c0-.05.07-.1.1-.16a43.48,43.48,0,0,0,2.77-4.85,46.6,46.6,0,0,0,2.25-5.5l.24-.76c.41-1.29.76-2.61,1-3.95C168.39,240,168.57,239,168.72,237.93Z"/>
    <path class="cls-16" transform="translate(-104.28 -197.52)" d="M486.94,240.83c-.21,3.12-.35,8.16,1.57,10.87,2.13,3,6.29,3,9.6,3,3.62,0,7.63-.13,10.18-3.09,2.27-2.64,2.87-7.62,3.09-10.93.22-3.09.42-8.24-1.55-10.91-2.13-2.87-6.44-3-9.67-3-3.55,0-7.61.15-10.12,3-2.34,2.69-2.87,7.6-3.1,11Zm13.7-22c5.76,0,12.45.19,16.76,4.63s4.21,11.72,3.82,17.4c-.41,5.95-1.51,13.08-6.15,17.31s-11.3,4.6-17.32,4.6c-5.77,0-12.46-.19-16.77-4.63-4.45-4.59-4.28-11.5-3.87-17.41.42-6.15,1.32-13,6.21-17.32S494.51,218.8,500.64,218.8Z"/>
    <path class="cls-16" transform="translate(-104.28 -197.52)" d="M398.68,244.49h13.09l-5.15-15.55c0-.13-.14-.43-.24-.7a8.33,8.33,0,0,0-.4.81l-7.3,15.44ZM414,251.86H395.44l-4.89,10.41H380.32L399,224c1.8-3.69,3.74-5.16,7.9-5.16,4,0,6,1.49,7.32,5.26l13.41,38.21H417.52Z"/>
    <path class="cls-17" transform="translate(-104.28 -197.52)" d="M289.11,241.84h13.28c.65,0,.7-.39.74-1a4,4,0,0,0-1.37-3.39c-1.41-1.13-3.49-1.21-5.21-1.21-2.2,0-4.37.07-6,1.77a5.8,5.8,0,0,0-1.44,3.79Zm-.49,7.14a16.4,16.4,0,0,0,.14,3.2c.52,2.7,2.81,2.95,5.13,2.95h20a11.38,11.38,0,0,0,3.83,7l.13.12H291.47c-4.06,0-7.67-.67-10-4.37-2.11-3.31-1.86-8.12-1.6-11.91.35-5,.76-10.3,4.94-13.7,3.48-2.83,8.14-3.15,12.43-3.15,3.53,0,7.61.15,10.66,2.16,3.81,2.51,4.41,6.71,4.12,10.94a7.48,7.48,0,0,1-2.08,5.31,5.59,5.59,0,0,1-4.06,1.43Z"/>
    <path class="cls-17" transform="translate(-104.28 -197.52)" d="M255.64,236.39l-1.18,17.14c0,.35-.14,1.09.09,1.38s.87.22,1.16.22h5c2.45,0,4.61-.42,6-2.72,1-1.65,1.27-4.38,1.39-6.24s.24-5.25-.49-6.94c-.89-2.23-3-2.84-5.2-2.84Zm.49-7.13h8.12c4.74,0,9,1.07,11.35,5.61,1.7,3.28,1.67,7.54,1.43,11.13s-.87,7.68-2.86,10.73c-2.73,4.2-7.11,5.54-11.88,5.54h-9.82c-2,0-4-.12-5.5-1.63a5.59,5.59,0,0,1-1.41-4.59l2.53-36.78h8.72Z"/>
    <path class="cls-16" transform="translate(-104.28 -197.52)" d="m442.13 231.3l-2.13 31h-9.37l2.54-37c0.3-4.26 3.52-6.44 7.6-6.44 3.07 0 5.55 0.95 7.1 3.7l15.48 27.41 2.1-30.64h9.37l-2.52 36.79c-0.3 4.33-3.23 6.68-7.44 6.68-3.2 0-5.56-1-7.2-3.94l-15.46-27.44s-0.04-0.08-0.07-0.12z"/>
    <path class="cls-16" transform="translate(-104.28 -197.52)" d="M348.59,231.3l-2.12,31h-9.38l2.55-37c.29-4.26,3.51-6.44,7.59-6.44,3.07,0,5.55.95,7.11,3.7l15.47,27.41,2.11-30.64h9.37l-2.53,36.79c-.3,4.33-3.23,6.68-7.43,6.68-3.2,0-5.57-1-7.21-3.94l-15.45-27.38Z"/>
    <path class="cls-17" transform="translate(-104.28 -197.52)" d="M318,236.39h-4.29l.49-7.13h4.29l.68-10h8.73l-.69,10h8.7l-.48,7.13H326.7l-.8,11.67c-.12,1.83-.49,4.58,1.05,5.95,1.12,1,3.24,1.12,4.65,1.12h2.69l-.49,7.14h-5.15c-3.23,0-6.27-.33-8.79-2.52s-3.12-5.32-2.89-8.64Z"/>
</svg>
