<?xml version="1.0" encoding="UTF-8"?>
<!DOCTYPE svg  PUBLIC '-//W3C//DTD SVG 20010904//EN'  'http://www.w3.org/TR/2001/REC-SVG-20010904/DTD/svg10.dtd'>
<svg width="2100pt" height="1100pt" version="1.0" viewBox="0 0 2100.000000 1100.000000" xmlns="http://www.w3.org/2000/svg">
<metadata>Created by potrace 1.16, written by Peter Selinger 2001-2019</metadata>
<g transform="translate(0 1100) scale(.1 -.1)">
<path d="m10126 10025c-386-63-751-263-992-546-215-252-347-537-394-849-14-97-14-344 0-451 52-388 267-778 568-1029 271-227 574-351 933-381 440-38 863 99 1192 384 220 192 403 512 467 822 32 153 53 511 34 583l-6 22h-778-777l-136-280c-76-155-137-283-137-285 0-3 250-5 555-5s555-2 555-3c0-15-45-130-71-180-95-187-290-338-514-399-66-18-107-21-240-21-192 0-266 16-422 93-263 130-442 352-520 648-22 83-26 118-26 247 0 165 11 234 63 377 60 166 200 350 346 454 81 58 212 119 309 145 162 42 411 34 568-20 191-66 348-191 454-363 20-32 40-58 45-58 7 0 592 276 607 286 6 5-65 126-120 204-76 109-237 264-354 342-183 122-384 205-602 249-141 28-472 36-607 14z"/>
<path d="m1410 9986c0-2 36-77 80-167l80-164v-1251-1251l-78-164-79-164 955-3c525-1 957-1 958 1 4 3 174 605 174 613 0 2-284 4-630 4h-630v1273 1272l-415 3c-228 1-415 0-415-2z"/>
<path d="m3730 8405v-1585h935 935v310 310h-595-595v345 345l462 2 461 3 83 295c46 162 83 296 84 298 0 1-245 2-545 2h-545v320 320h595 595v310 310h-935-935v-1585z"/>
<path d="m6832 9785l102-204-61-153c-34-84-276-684-538-1333-263-649-485-1201-496-1227l-19-48h348 348l114 298c62 163 116 300 120 305 3 4 287 8 631 8h624l16-33c9-18 65-156 124-305l107-273h355c280 0 354 3 350 13-66 165-1054 2640-1138 2855l-120 302h-485-484l102-205zm760-1220c99-269 183-498 186-507 4-17-19-18-392-18-218 0-396 4-396 8 0 7 287 761 394 1037 8 19 9 19 18-5 5-14 91-245 190-515z"/>
<path d="m12173 8923c3-940 6-1077 20-1147 116-562 437-889 972-992 138-27 425-25 571 4 183 36 312 87 447 175 254 166 417 420 500 779 21 91 21 113 24 1171l4 1077-341-2-340-3v-910c0-907-6-1106-35-1220-23-92-88-214-143-272-63-65-113-97-209-130-67-22-95-26-198-27-87 0-136 5-180 18-190 56-309 185-377 406l-23 75-3 1033-3 1032h-345-345l4-1067z"/>
<path d="m15010 8405v-1585h935 935v310 310h-595-595v345 345h459c429 0 460 1 465 18 31 105 156 562 156 571 0 8-146 11-540 11h-540v320 320h595 595v310 310h-935-935v-1585z"/>
<path d="m17602 9120c-241-63-433-246-518-495-25-71-28-95-28-215-1-115 3-146 22-210 81-258 279-450 532-517 99-26 273-23 375 5 427 122 656 586 489 996-64 157-205 307-358 380-50 25-121 51-157 60-92 22-263 20-357-4zm353-359c80-37 153-109 192-188 25-53 28-68 28-168 0-98-3-116-27-167-37-80-107-152-187-191-61-30-72-32-171-32-93 0-112 3-162 27-159 74-256 252-229 419 26 158 146 290 298 329 71 18 186 5 258-29z"/>
<path d="m18655 9108c-3-7-4-328-3-713l3-700 178-3 177-2v240 240h179 178l42 149c22 81 41 153 41 160 0 8-62 11-220 11h-220v150 150h255 255l-2 163-3 162-428 3c-337 2-429 0-432-10z"/>
<path d="m7200 6308c-564-58-1072-420-1319-938-150-315-193-641-130-991 27-151 68-272 149-434 86-174 189-313 337-456 225-217 507-362 828-426 139-28 503-25 641 5 486 105 870 403 1072 832 99 210 137 366 153 625 6 99 8 213 4 253l-7 72h-780-779l-135-276c-74-152-134-280-134-285s224-9 550-9c630 0 568 13 521-106-96-244-318-423-592-479-106-22-297-23-395-1-634 138-960 853-662 1451 180 359 548 563 948 525 309-29 552-176 691-418 17-29 36-51 43-49 6 3 145 69 309 147l297 143-31 56c-145 257-382 479-649 605-279 132-614 187-930 154z"/>
<path d="m18265 6310c-384-49-715-275-871-595-69-143-87-223-88-400 0-162 16-252 69-371 81-183 266-363 468-454 105-47 222-79 477-131 351-71 406-90 492-167 78-70 109-194 77-302-29-98-133-180-269-216-100-26-264-23-365 8-206 61-381 219-442 398-14 40-27 64-35 62-16-5-530-291-542-303-13-12 9-76 61-178 168-330 491-546 907-607 148-22 432-14 557 15 426 98 729 387 814 775 24 107 17 329-14 434-88 303-325 529-676 646-44 15-195 49-335 77-140 27-282 56-315 65-175 46-264 156-253 314 14 187 192 320 429 320 147 0 253-33 355-110 62-47 127-141 145-210 7-27 18-50 23-50 6 0 139 63 296 140 229 112 284 143 282 157-2 10-25 63-52 118-146 298-414 488-775 550-111 19-327 27-420 15z"/>
<path d="m1454 6168c24-51 60-126 80-165l36-73v-1253-1253l-80-163c-44-89-80-165-80-167s432-4 960-4 960 3 960 6c0 4 148 537 166 596 5 17-31 18-623 20l-628 3v1273 1272h-417-417l43-92z"/>
<path d="m3730 4675v-1585h935 935v310 310l-592 2-593 3v345 345l460 5 460 5 81 290 81 290-541 5-541 5v318 318l593-1h592v310 310h-935-935v-1585z"/>
<path d="m9170 4675v-1585h935 935v310 310h-595-595v350 350h460 459l15 53c56 195 146 522 146 529 0 4-243 8-540 8h-540v320 320l593 2 592 3 3 308 2 307h-935-935v-1585z"/>
<path d="m11220 6255c0-3 30-65 68-138l67-132 5-1445 5-1445 328-3 327-2v1027l1 1028 20-24c11-13 344-476 741-1028l721-1003h343 344v1585 1585h-330-330v-1042-1043l-32 46c-18 25-348 494-733 1043l-699 996h-423c-233 0-423-2-423-5z"/>
<path d="m14482 4678l3-1583 555-3c575-3 712 3 871 38 330 72 661 268 872 516 98 116 159 209 222 339 62 128 88 201 122 345 34 145 43 415 19 577-46 311-194 615-409 840-241 252-509 397-882 480l-120 27-628 3-627 4 2-1583zm1153 932c402-45 720-333 811-735 27-116 24-311-5-430-67-278-259-512-515-631-153-70-192-77-493-81l-273-5v939c0 517 3 943 7 946 10 11 367 8 468-3z"/>
<path d="m1744 2600c-106-21-225-115-270-214-32-69-43-165-44-356 0-278 22-376 106-467 118-129 318-167 479-92 92 43 184 158 209 262l6 27h-89-89l-26-44c-50-85-118-122-212-114-80 7-141 49-179 123l-30 59v236 236l30 59c68 133 236 167 345 69 20-18 45-51 55-74l18-40h90 89l-6 28c-15 62-68 155-113 200-93 92-228 130-369 102z"/>
<path d="m8120 2385v-215l-52 39c-79 61-152 74-249 45-61-18-130-81-156-141-38-92-37-437 2-530 32-76 121-139 214-150 63-7 151 19 195 57 18 17 36 30 40 30 3 0 6-18 6-40v-40h80 80v580 580h-80-80v-215zm-83-302c60-28 78-83 78-233 0-110-3-131-23-172-27-55-68-78-140-78-61 0-109 30-136 84-15 31-19 63-20 150-1 61 3 128 7 148 9 42 49 95 81 108 35 15 116 11 153-7z"/>
<path d="m9150 2020v-580h360 360v85 85h-275-275v495 495h-85-85v-580z"/>
<path d="m10030 2515v-85h85 85v85 85h-85-85v-85z"/>
<path d="m12510 2020v-580h90 90v580 580h-90-90v-580z"/>
<path d="m15860 2588c-98-28-139-97-140-235v-93h-45-45v-65-65h45 45v-345-345h80 80v345 345h80 80v65 65h-80-80v74c0 96 9 106 96 106h64v80 80l-72-1c-40 0-89-5-108-11z"/>
<path d="m13800 2385v-125h-40-40v-65-65h40 40v-262c0-151 5-279 11-300 13-48 67-101 118-116 21-7 64-12 95-12h56v80 80h-44c-77 0-76-3-76 281v249h60 60v65 65h-60-60v125 125h-80-80v-125z"/>
<path d="m2565 2259c-82-20-176-105-214-193-19-45-29-204-20-310 13-151 62-232 177-288 60-30 75-33 152-33 99 1 153 21 220 81 58 52 89 118 101 217 13 96 4 255-17 326-20 67-97 151-165 181-59 25-173 35-234 19zm172-176c19-9 47-34 61-56 26-39 27-46 27-176 0-125-2-139-24-174-61-99-211-103-283-6-44 59-48 261-8 345 36 74 144 107 227 67z"/>
<path d="m3475 2261c-40-10-95-39-122-64l-23-20v41 42h-80-80v-410-410h80 80v271c0 309 3 322 75 364 85 50 195 22 235-60 18-38 20-62 20-308v-267h80 80v274c0 267 0 274 23 307 12 18 38 44 57 57 29 20 45 23 95 20 71-4 114-30 139-82 14-29 16-76 16-305v-271h81 80l-3 318-3 317-31 55c-59 103-174 154-300 133-71-12-143-45-175-80l-22-23-43 40c-64 59-167 83-259 61z"/>
<path d="m4865 2261c-40-10-95-39-122-64l-23-20v41 42h-80-80v-410-410h80 80v271c0 309 3 322 75 364 85 50 195 22 235-60 18-38 20-62 20-308v-267h80 80v274c0 267 0 274 23 307 12 18 38 44 57 57 29 20 45 23 95 20 71-4 114-30 139-82 14-29 16-76 16-305v-271h81 80l-3 318-3 317-31 55c-59 103-174 154-300 133-71-12-143-45-175-80l-22-23-43 40c-64 59-167 83-259 61z"/>
<path d="m6064 2250c-38-12-76-34-104-60l-43-40 64-49 64-49 28 26c24 23 39 27 104 30 139 8 193-27 193-123v-53l-152-3c-143-4-157-6-209-32-106-52-153-166-118-291 14-49 82-124 136-148 98-43 245-32 309 24l34 30v-36-36h81 80l-3 318-3 317-28 57c-44 89-121 127-277 134-76 3-107 0-156-16zm306-510c0-112-43-150-170-150-111 0-170 36-170 103 0 77 42 96 213 97h127v-50z"/>
<path d="m7041 2256c-24-8-61-28-82-45s-40-31-43-31-6 18-6 40v40h-75-75v-410-410h74 75l3 273c3 251 5 275 23 306 31 53 67 74 132 79 48 3 64 0 92-20 77-52 76-47 79-359l3-279h80 80l-3 313c-3 292-4 315-24 357-56 122-205 187-333 146z"/>
<path d="m10711 2256c-24-8-61-28-82-45s-40-31-43-31-6 18-6 40v40h-75-75v-410-410h74 75l3 273c3 251 5 275 23 306 31 53 67 74 132 79 48 3 64 0 92-20 77-52 76-47 79-359l3-279h80 80l-3 313c-3 292-4 315-24 357-56 122-205 187-333 146z"/>
<path d="m11507 2256c-155-43-238-182-240-401-1-177 46-295 147-362 65-44 115-57 216-57 99 0 166 25 239 90l44 40-60 52c-58 50-61 51-77 33-10-11-40-29-69-41-129-56-257 9-282 143l-7 37h257 258l-6 113c-3 68-12 132-23 162-24 68-111 155-179 179-69 23-160 29-218 12zm191-175c37-26 57-60 67-114l7-37h-176c-97 0-176 3-176 8 0 4 5 25 11 47 25 90 79 128 174 122 44-2 70-9 93-26z"/>
<path d="m13211 2256c-24-8-61-28-82-45s-40-31-43-31-6 18-6 40v40h-75-75v-410-410h74 75l3 273c3 251 5 275 23 306 31 53 67 74 132 79 48 3 64 0 92-20 77-52 76-47 79-359l3-279h80 80l-3 313c-3 292-4 315-24 357-56 122-205 187-333 146z"/>
<path d="m14447 2256c-155-43-238-182-240-401-1-177 46-295 147-362 65-44 115-57 216-57 99 0 166 25 239 90l44 40-60 52c-58 50-61 51-77 33-10-11-40-29-69-41-129-56-257 9-282 143l-7 37h257 258l-6 113c-3 68-12 132-23 162-24 68-111 155-179 179-69 23-160 29-218 12zm191-175c37-26 57-60 67-114l7-37h-176c-97 0-176 3-176 8 0 4 5 25 11 47 25 90 79 128 174 122 44-2 70-9 93-26z"/>
<path d="m15341 2255c-24-7-61-27-82-44s-40-31-43-31-6 18-6 40v40h-80-80v-410-410h80 80v253c0 264 6 315 43 355 50 55 135 69 194 32l32-19 60 72 60 72-22 17c-29 23-111 48-156 47-20 0-56-6-80-14z"/>
<path d="m16264 2250c-38-12-76-34-104-60l-43-40 64-49 64-49 28 26c24 23 39 27 104 30 139 8 193-27 193-123v-53l-152-3c-143-4-157-6-209-32-106-52-153-166-118-291 14-49 82-124 136-148 98-43 245-32 309 24l34 30v-36-36h81 80l-3 318-3 317-28 57c-44 89-121 127-277 134-76 3-107 0-156-16zm306-510c0-112-43-150-170-150-111 0-170 36-170 103 0 77 42 96 213 97h127v-50z"/>
<path d="m17159 2257c-63-18-130-59-169-104-105-119-128-369-50-530 72-146 249-224 405-178 83 24 204 107 194 132-2 5-28 30-57 57l-53 49-27-25c-92-86-244-76-309 20-60 90-52 290 15 366 65 73 217 73 294-1l28-26 54 49c29 27 54 54 55 60 2 19-78 85-135 111-66 30-177 39-245 20z"/>
<path d="m17877 2256c-155-43-238-182-240-401-1-177 46-295 147-362 65-44 115-57 216-57 99 0 166 25 239 90l44 40-60 52c-58 50-61 51-77 33-10-11-40-29-69-41-129-56-257 9-282 143l-7 37h257 258l-6 113c-3 68-12 132-23 162-24 68-111 155-179 179-69 23-160 29-218 12zm191-175c37-26 57-60 67-114l7-37h-176c-97 0-176 3-176 8 0 4 5 25 11 47 25 90 79 128 174 122 44-2 70-9 93-26z"/>
<path d="m10030 1850v-410h85 85v410 410h-85-85v-410z"/>
<path d="m8450 1885v-85h240 240v85 85h-240-240v-85z"/>
</g>
</svg>
