<svg id="svg" version="1.1" width="400" height="353.2041728763041" viewBox="0 0 400 353.2041728763041" xmlns="http://www.w3.org/2000/svg" xmlns:xlink="http://www.w3.org/1999/xlink" style="display: block;"><g id="svgg"><path id="path0" d="M27.939 20.891 C 24.217 21.767,21.557 24.580,20.854 28.383 C 20.370 31.003,20.616 212.371,21.106 213.794 C 21.740 215.639,23.823 217.926,25.779 218.926 L 27.529 219.821 186.319 219.897 L 345.109 219.972 345.302 219.094 C 345.408 218.610,345.955 217.612,346.518 216.875 C 347.081 216.138,347.541 215.308,347.541 215.030 C 347.541 213.879,335.467 202.704,330.253 199.029 C 328.368 197.700,326.779 196.579,326.722 196.538 C 326.229 196.185,327.108 194.039,327.746 194.039 C 328.963 194.039,328.610 193.610,324.069 189.570 C 315.143 181.631,290.214 167.634,281.829 165.854 C 276.339 164.689,274.980 164.071,271.125 160.985 C 269.670 159.820,268.237 158.867,267.941 158.867 C 264.200 158.867,252.163 154.349,242.444 149.297 C 236.616 146.267,236.960 146.379,236.960 147.507 C 236.960 147.980,236.743 149.039,236.477 149.861 L 235.995 151.355 237.075 153.602 C 237.835 155.182,238.561 156.186,239.521 156.985 C 242.571 159.526,243.219 160.147,243.219 160.534 C 243.219 160.756,243.627 161.150,244.126 161.408 C 245.177 161.951,245.601 162.872,245.609 164.624 C 245.613 165.561,245.798 166.047,246.354 166.574 C 247.232 167.407,247.364 169.569,246.655 171.535 C 246.391 172.268,246.221 173.905,246.213 175.782 C 246.191 180.966,242.959 181.303,241.887 176.233 C 241.775 175.702,241.544 175.182,241.374 175.077 C 241.204 174.972,240.067 173.531,238.847 171.875 C 232.089 162.703,229.040 160.308,220.485 157.449 C 218.466 156.774,216.654 155.973,216.216 155.562 C 213.958 153.441,200.838 155.157,188.762 159.155 C 178.841 162.439,176.627 162.843,169.585 162.657 C 161.937 162.456,161.472 162.270,158.612 158.278 C 155.773 154.317,157.248 150.657,165.212 141.894 C 175.584 130.483,187.685 121.840,201.937 115.663 C 203.905 114.810,205.618 114.013,205.744 113.890 C 205.871 113.768,205.310 112.383,204.498 110.812 C 203.686 109.241,202.857 107.405,202.655 106.732 C 202.236 105.332,202.516 105.449,196.141 104.025 C 191.491 102.986,190.888 102.954,188.965 103.637 C 187.705 104.084,187.296 104.099,185.497 103.761 C 181.800 103.066,181.868 103.114,176.623 97.606 C 171.239 91.954,171.265 91.994,170.953 89.027 C 170.697 86.606,170.543 86.512,168.157 87.316 C 166.042 88.028,163.018 88.115,159.255 87.571 C 156.197 87.128,156.101 87.203,156.503 89.701 C 156.916 92.260,156.534 92.724,154.642 91.964 C 151.411 90.665,144.992 88.524,144.683 88.643 C 144.494 88.715,144.278 89.524,144.202 90.440 C 143.892 94.178,142.278 94.604,131.739 93.732 C 124.139 93.103,122.641 92.581,118.502 89.120 C 115.984 87.014,113.129 85.904,109.165 85.491 C 106.319 85.194,105.888 85.072,105.308 84.399 L 104.655 83.641 103.222 84.974 C 102.433 85.707,101.285 86.688,100.671 87.153 C 100.056 87.619,99.548 88.218,99.542 88.485 C 99.504 90.268,97.274 91.903,95.231 91.648 C 92.922 91.360,88.936 90.630,86.084 89.974 L 83.494 89.378 81.570 87.228 L 79.646 85.079 75.635 84.700 C 65.661 83.760,62.308 82.129,57.760 76.006 L 55.879 73.472 54.199 73.322 C 52.175 73.141,51.408 72.538,51.150 70.925 C 51.027 70.155,50.805 69.747,50.511 69.747 C 49.321 69.747,49.051 66.044,50.219 65.751 C 50.676 65.636,51.031 65.281,51.146 64.824 C 51.364 63.954,53.012 63.761,53.651 64.531 C 54.306 65.319,56.334 65.122,56.334 64.270 C 56.334 61.865,57.024 61.181,58.505 62.115 C 59.543 62.770,84.892 62.006,86.563 61.270 C 87.273 60.957,88.033 60.830,88.501 60.946 C 88.924 61.051,89.993 61.254,90.877 61.398 C 91.853 61.556,92.966 62.003,93.709 62.533 C 94.382 63.014,95.201 63.491,95.529 63.593 C 96.686 63.953,97.825 66.372,97.714 68.234 L 97.615 69.896 100.004 70.052 C 101.770 70.167,102.678 70.384,103.486 70.883 C 104.467 71.489,104.605 71.508,104.848 71.074 C 105.283 70.298,109.580 70.107,111.357 70.786 C 113.380 71.558,117.536 71.266,121.575 70.068 C 129.767 67.638,133.418 67.708,139.639 70.414 C 143.131 71.934,153.230 70.997,158.059 68.705 C 161.681 66.985,161.704 66.368,158.197 64.987 C 156.189 64.196,156.168 64.121,157.502 62.493 C 158.913 60.771,159.056 59.968,158.263 58.223 C 157.902 57.430,157.566 56.110,157.516 55.291 C 157.466 54.471,157.414 53.743,157.401 53.674 C 157.388 53.604,157.042 53.863,156.631 54.248 C 155.666 55.155,155.280 56.605,155.504 58.492 C 155.737 60.462,155.419 60.243,153.641 57.210 C 151.766 54.013,151.637 52.841,152.869 50.208 C 154.070 47.643,154.067 47.626,152.303 46.493 C 150.828 45.547,148.599 43.253,148.881 42.972 C 148.960 42.893,149.558 43.068,150.209 43.362 C 151.779 44.069,153.699 43.852,155.062 42.812 C 155.629 42.380,156.232 42.027,156.403 42.027 C 156.573 42.027,156.803 41.390,156.913 40.611 C 157.254 38.193,158.398 36.289,161.024 33.772 C 164.513 30.429,165.988 28.886,166.669 27.869 L 167.268 26.975 167.095 29.657 C 166.999 31.133,166.775 32.855,166.598 33.485 C 166.135 35.131,166.404 35.109,167.494 33.410 C 169.758 29.882,172.642 28.340,180.626 26.389 C 185.356 25.233,189.270 22.802,189.270 21.020 C 189.270 20.499,30.145 20.371,27.939 20.891 M0.148 176.453 C 0.148 258.830,0.182 292.530,0.224 251.341 C 0.265 210.153,0.265 142.753,0.224 101.565 C 0.182 60.376,0.148 94.076,0.148 176.453 M82.563 77.983 C 82.563 80.150,84.512 82.560,86.749 83.163 C 88.068 83.518,88.424 83.422,88.099 82.800 C 85.995 78.765,84.946 77.496,83.711 77.496 C 82.848 77.496,82.563 77.617,82.563 77.983 M221.378 137.395 C 219.436 138.627,213.134 141.511,210.301 142.465 C 208.999 142.903,207.888 143.399,207.832 143.567 C 207.644 144.131,219.678 144.577,220.418 144.034 C 221.593 143.173,222.653 141.471,222.653 140.446 C 222.653 139.745,222.934 138.920,223.412 138.216 C 224.691 136.333,223.689 135.929,221.378 137.395 M35.953 241.748 C 30.546 242.573,29.810 244.223,29.808 255.531 C 29.806 264.893,29.943 265.726,31.786 267.569 C 33.466 269.249,33.277 269.317,36.682 265.797 L 39.637 262.742 39.640 255.812 L 39.642 248.882 48.584 248.882 L 57.526 248.882 57.526 255.589 L 57.526 262.295 50.890 262.295 L 44.253 262.295 40.755 265.802 C 38.832 267.730,37.258 269.413,37.258 269.540 C 37.258 269.667,42.791 269.732,49.553 269.685 L 61.848 269.598 63.592 268.742 C 64.894 268.102,65.554 267.541,66.200 266.522 L 67.064 265.159 67.064 256.852 L 67.064 248.544 64.941 245.311 C 63.767 243.523,62.535 241.979,62.184 241.856 C 61.250 241.531,38.002 241.435,35.953 241.748 M66.874 241.794 C 66.802 241.912,68.458 244.714,70.555 248.022 C 72.651 251.330,76.589 257.537,79.306 261.817 L 84.245 269.598 87.583 269.682 L 90.921 269.766 96.653 261.049 C 99.805 256.255,103.942 249.980,105.846 247.105 C 107.750 244.230,109.277 241.840,109.239 241.793 C 108.868 241.337,98.769 241.737,98.411 242.222 C 98.188 242.524,95.823 246.254,93.155 250.509 C 90.487 254.764,88.186 258.281,88.042 258.324 C 87.897 258.367,85.488 254.684,82.687 250.140 L 77.596 241.878 72.301 241.729 C 69.389 241.647,66.947 241.676,66.874 241.794 M125.904 241.658 L 113.657 241.735 111.376 245.085 L 109.095 248.435 109.078 259.016 L 109.061 269.598 123.979 269.675 L 138.897 269.752 138.897 266.024 L 138.897 262.295 128.748 262.295 L 118.599 262.295 118.689 260.581 L 118.778 258.867 125.569 258.787 L 132.360 258.707 132.275 255.509 L 132.191 252.310 125.410 252.230 L 118.629 252.150 118.629 250.516 L 118.629 248.882 128.772 248.882 L 138.916 248.882 138.832 245.255 C 138.782 243.113,138.626 241.618,138.450 241.604 C 138.286 241.591,132.641 241.615,125.904 241.658 M143.235 241.664 C 143.144 241.754,143.070 248.113,143.070 255.795 L 143.070 269.761 147.845 269.680 L 152.619 269.598 152.688 259.314 L 152.757 249.031 160.283 248.952 L 167.809 248.872 167.809 251.078 C 167.809 253.780,168.134 253.642,161.773 253.647 L 157.079 253.651 157.079 256.350 L 157.079 259.048 158.793 260.622 C 159.735 261.487,162.410 263.895,164.736 265.971 L 168.965 269.747 175.391 269.747 C 178.926 269.747,181.809 269.646,181.797 269.523 C 181.785 269.400,179.237 267.105,176.134 264.422 C 169.820 258.964,169.978 259.168,171.883 258.907 C 176.115 258.327,177.198 256.617,177.198 250.522 C 177.198 243.909,176.200 242.397,171.386 241.720 C 169.109 241.400,143.549 241.349,143.235 241.664 M179.261 241.767 C 179.198 241.869,181.916 248.211,185.302 255.860 L 191.459 269.766 194.612 269.682 L 197.765 269.598 198.212 268.691 C 198.458 268.193,199.848 265.141,201.301 261.910 C 202.754 258.679,204.044 256.036,204.168 256.036 C 204.292 256.036,205.726 259.087,207.354 262.817 L 210.314 269.598 213.746 269.681 L 217.179 269.765 221.845 259.100 C 224.411 253.234,227.174 246.937,227.984 245.107 C 228.795 243.276,229.380 241.700,229.285 241.604 C 228.923 241.243,220.990 241.422,220.486 241.803 C 220.077 242.113,217.622 247.609,215.028 254.023 C 214.234 255.985,214.170 255.908,211.568 249.905 C 210.294 246.965,208.913 243.851,208.498 242.984 L 207.744 241.407 204.626 241.453 C 200.901 241.507,201.650 240.668,198.061 248.808 C 196.453 252.455,195.058 255.436,194.961 255.432 C 194.863 255.428,193.519 252.343,191.973 248.577 C 190.427 244.810,189.086 241.728,188.993 241.726 C 181.342 241.605,179.355 241.613,179.261 241.767 M240.549 242.325 C 236.838 247.662,222.643 268.829,222.467 269.287 C 222.212 269.951,232.222 269.981,232.772 269.318 C 232.968 269.082,235.575 265.099,238.566 260.468 C 241.558 255.837,244.130 252.012,244.283 251.969 C 244.435 251.926,246.237 254.528,248.286 257.751 C 250.335 260.975,252.915 264.992,254.019 266.679 L 256.026 269.747 261.279 269.747 C 265.683 269.747,266.506 269.679,266.370 269.325 C 266.220 268.933,258.206 256.577,251.819 246.890 C 250.286 244.565,248.897 242.444,248.733 242.177 C 248.163 241.247,241.210 241.373,240.549 242.325 M259.439 241.704 C 259.370 241.772,259.314 243.415,259.314 245.355 L 259.314 248.882 265.421 248.882 L 271.527 248.882 271.606 259.240 L 271.684 269.598 276.453 269.598 L 281.222 269.598 281.300 259.240 L 281.379 248.882 286.238 248.882 L 291.096 248.882 293.312 245.529 C 294.530 243.685,295.528 242.070,295.528 241.940 C 295.529 241.703,259.674 241.469,259.439 241.704 M333.662 241.821 C 333.587 242.016,333.561 248.346,333.603 255.887 L 333.681 269.598 338.450 269.598 L 343.219 269.598 343.300 264.307 L 343.382 259.016 352.019 259.016 L 360.656 259.016 360.656 264.382 L 360.656 269.747 365.428 269.747 L 370.200 269.747 370.122 255.663 L 370.045 241.580 365.425 241.580 L 360.805 241.580 360.656 246.498 L 360.507 251.416 351.937 251.495 L 343.368 251.574 343.368 246.683 C 343.368 242.720,343.287 241.762,342.942 241.629 C 342.046 241.285,333.802 241.455,333.662 241.821 M297.455 246.274 L 294.488 250.820 294.487 257.989 L 294.486 265.159 295.386 266.578 C 296.078 267.670,296.678 268.180,297.994 268.797 L 299.702 269.598 311.028 269.694 C 327.794 269.837,329.500 269.099,329.506 261.699 L 329.508 258.569 325.358 258.475 C 319.715 258.348,319.821 258.309,319.821 260.512 L 319.821 262.295 311.923 262.295 L 304.024 262.295 304.024 255.589 L 304.024 248.882 311.923 248.882 L 319.821 248.882 319.821 250.522 L 319.821 252.161 324.774 252.161 L 329.727 252.161 329.600 249.255 C 329.413 244.969,328.367 243.298,325.169 242.170 C 324.147 241.809,321.777 241.729,312.170 241.729 L 300.421 241.729 297.455 246.274 M13.540 348.102 C 13.811 348.540,14.890 348.699,15.100 348.333 C 15.208 348.143,15.194 348.080,15.069 348.193 C 14.944 348.305,14.513 348.272,14.110 348.119 C 13.708 347.966,13.451 347.958,13.540 348.102 " stroke="none" fill="#2b2f31" fill-rule="evenodd"></path><path id="path1" d="M193.907 20.936 C 193.844 21.143,193.576 22.556,193.312 24.077 C 192.718 27.496,191.981 29.507,190.452 31.872 C 189.802 32.878,189.270 33.776,189.270 33.866 C 189.270 34.385,194.660 32.976,195.873 32.140 C 199.365 29.734,195.899 36.443,190.934 41.701 C 188.802 43.959,188.878 44.059,192.772 44.092 C 194.124 44.104,195.231 44.234,195.231 44.382 C 195.231 44.680,192.708 46.876,190.134 48.819 C 187.469 50.830,187.395 50.951,187.807 52.646 C 188.275 54.581,188.328 54.615,190.031 54.113 C 190.842 53.873,192.289 53.474,193.247 53.226 L 194.990 52.775 196.526 53.758 C 197.371 54.299,198.633 55.481,199.329 56.385 C 200.863 58.374,202.100 58.860,204.878 58.563 C 207.290 58.304,209.940 58.973,211.051 60.120 C 211.879 60.975,219.097 70.927,220.615 73.307 C 221.979 75.446,221.880 78.969,220.417 80.309 C 218.990 81.616,218.989 82.787,220.412 83.950 L 221.451 84.799 221.643 88.525 C 221.872 92.963,221.847 92.923,225.775 95.145 C 232.915 99.183,236.666 103.310,238.315 108.942 C 239.928 114.453,241.273 116.833,243.867 118.771 C 247.563 121.531,252.855 125.876,259.251 131.400 C 261.907 133.694,261.991 133.766,263.189 134.753 C 263.599 135.091,264.471 135.864,265.127 136.471 C 265.782 137.078,268.591 139.448,271.367 141.738 C 274.144 144.028,277.272 146.706,278.319 147.690 C 280.810 150.031,283.454 151.638,285.203 151.873 C 299.481 153.798,308.380 158.245,313.691 166.108 C 314.111 166.729,314.904 167.735,315.454 168.343 C 316.004 168.951,317.636 170.790,319.081 172.429 C 324.421 178.486,333.218 187.007,335.983 188.801 C 336.769 189.311,336.829 189.307,337.832 188.687 C 338.604 188.210,339.264 188.065,340.415 188.117 C 341.770 188.179,342.048 188.088,342.651 187.388 C 344.395 185.361,346.811 186.874,350.000 191.990 C 351.870 194.991,353.009 200.549,352.168 202.564 C 351.528 204.094,353.033 207.059,355.500 209.131 C 357.691 210.970,357.952 211.301,357.964 212.254 C 357.980 213.559,356.772 217.953,356.162 218.810 C 355.847 219.253,355.589 219.701,355.589 219.806 C 355.589 219.910,359.445 219.957,364.158 219.909 C 373.930 219.809,374.015 219.790,376.829 217.047 C 379.731 214.219,379.434 225.253,379.434 120.417 L 379.434 28.338 378.794 26.628 C 377.985 24.467,376.021 22.339,373.983 21.418 L 372.429 20.715 283.226 20.638 C 211.760 20.577,193.999 20.636,193.907 20.936 M399.849 126.975 C 399.849 180.827,399.884 202.858,399.925 175.931 C 399.967 149.005,399.967 104.944,399.925 78.018 C 399.884 51.092,399.849 73.122,399.849 126.975 M337.376 33.830 C 339.883 35.307,340.142 37.297,338.591 43.159 L 337.628 46.796 334.686 46.796 C 333.068 46.796,331.746 46.695,331.750 46.572 C 331.753 46.449,332.086 45.075,332.489 43.517 C 333.723 38.750,333.512 38.152,330.588 38.152 C 327.807 38.152,328.081 37.497,323.543 54.989 C 318.760 73.428,318.868 72.131,322.109 72.131 C 324.608 72.131,325.291 71.380,326.244 67.586 L 326.749 65.574 329.693 65.574 C 331.313 65.574,332.638 65.674,332.637 65.797 C 332.631 67.530,330.677 72.798,329.434 74.434 C 326.809 77.888,316.470 78.278,314.040 75.014 C 312.844 73.408,313.123 71.804,317.531 54.920 C 322.651 35.311,323.010 34.592,328.316 33.274 C 330.020 32.850,336.375 33.241,337.376 33.830 M351.416 33.431 C 351.416 33.621,349.203 42.326,346.498 52.775 C 343.793 63.224,341.580 71.854,341.580 71.952 C 341.580 72.051,343.122 72.131,345.007 72.131 C 347.555 72.131,348.433 72.227,348.428 72.504 C 348.425 72.709,348.181 73.815,347.888 74.963 L 347.354 77.049 340.890 77.130 C 335.824 77.192,334.425 77.128,334.422 76.831 C 334.419 76.623,336.928 66.695,339.997 54.769 L 345.577 33.085 348.497 33.085 C 350.512 33.085,351.416 33.192,351.416 33.431 M368.400 33.308 C 368.397 33.431,365.868 43.323,362.780 55.291 L 357.166 77.049 354.216 77.049 C 351.432 77.049,351.272 77.016,351.368 76.453 C 351.443 76.010,358.630 47.920,362.178 34.203 L 362.467 33.085 365.436 33.085 C 367.069 33.085,368.403 33.186,368.400 33.308 M73.696 62.211 C 74.147 62.279,74.885 62.279,75.335 62.211 C 75.786 62.142,75.417 62.086,74.516 62.086 C 73.614 62.086,73.245 62.142,73.696 62.211 M62.221 62.505 C 62.589 62.576,63.193 62.576,63.562 62.505 C 63.931 62.434,63.629 62.376,62.891 62.376 C 62.154 62.376,61.852 62.434,62.221 62.505 M56.403 63.785 C 56.403 64.359,56.464 64.594,56.539 64.307 C 56.614 64.020,56.614 63.551,56.539 63.264 C 56.464 62.977,56.403 63.212,56.403 63.785 M106.781 70.548 C 107.068 70.623,107.537 70.623,107.824 70.548 C 108.111 70.473,107.876 70.412,107.303 70.412 C 106.729 70.412,106.494 70.473,106.781 70.548 M113.487 71.447 C 113.856 71.518,114.460 71.518,114.829 71.447 C 115.197 71.376,114.896 71.318,114.158 71.318 C 113.420 71.318,113.118 71.376,113.487 71.447 M142.548 71.442 C 142.835 71.517,143.305 71.517,143.592 71.442 C 143.879 71.367,143.644 71.306,143.070 71.306 C 142.496 71.306,142.262 71.367,142.548 71.442 M144.039 90.462 C 144.043 91.118,144.104 91.351,144.175 90.980 C 144.246 90.609,144.244 90.073,144.169 89.788 C 144.094 89.503,144.036 89.806,144.039 90.462 M167.139 162.654 C 167.507 162.726,168.111 162.726,168.480 162.654 C 168.849 162.583,168.547 162.525,167.809 162.525 C 167.072 162.525,166.770 162.583,167.139 162.654 M69.001 241.634 C 73.367 241.849,77.727 241.859,77.600 241.654 C 77.524 241.531,75.155 241.457,72.337 241.488 C 69.519 241.520,68.018 241.585,69.001 241.634 M101.863 241.652 C 103.051 241.709,104.996 241.709,106.185 241.652 C 107.373 241.595,106.401 241.549,104.024 241.549 C 101.647 241.549,100.674 241.595,101.863 241.652 M119.916 241.654 C 123.328 241.702,128.828 241.702,132.136 241.654 C 135.445 241.606,132.653 241.567,125.931 241.567 C 119.210 241.567,116.503 241.606,119.916 241.654 M182.178 241.651 C 183.277 241.709,185.155 241.709,186.351 241.652 C 187.546 241.596,186.647 241.549,184.352 241.548 C 182.057 241.548,181.078 241.594,182.178 241.651 M243.006 241.651 C 243.955 241.711,245.430 241.710,246.285 241.650 C 247.140 241.590,246.364 241.542,244.560 241.542 C 242.757 241.543,242.058 241.592,243.006 241.651 M268.501 241.654 C 273.308 241.700,281.087 241.700,285.789 241.654 C 290.490 241.608,286.557 241.570,277.049 241.570 C 267.541 241.570,263.694 241.608,268.501 241.654 M306.483 241.654 C 309.557 241.702,314.586 241.702,317.660 241.654 C 320.734 241.605,318.219 241.566,312.072 241.566 C 305.924 241.566,303.409 241.605,306.483 241.654 M67.194 256.334 C 67.194 260.678,67.236 262.455,67.287 260.283 C 67.338 258.111,67.338 254.557,67.287 252.385 C 67.236 250.212,67.194 251.990,67.194 256.334 M108.927 258.867 C 108.927 264.605,108.967 266.910,109.016 263.990 C 109.065 261.069,109.065 256.375,109.016 253.558 C 108.967 250.740,108.927 253.130,108.927 258.867 M152.741 259.463 C 152.741 264.873,152.782 267.128,152.831 264.475 C 152.880 261.821,152.880 257.395,152.831 254.639 C 152.782 251.883,152.742 254.054,152.741 259.463 M294.315 257.526 C 294.315 261.215,294.358 262.724,294.410 260.879 C 294.463 259.035,294.463 256.017,294.410 254.173 C 294.358 252.329,294.315 253.838,294.315 257.526 M347.931 251.490 C 350.195 251.540,353.817 251.540,355.979 251.489 C 358.141 251.439,356.289 251.397,351.863 251.397 C 347.437 251.397,345.667 251.439,347.931 251.490 M159.687 253.575 C 161.039 253.630,163.253 253.630,164.605 253.575 C 165.958 253.520,164.851 253.475,162.146 253.475 C 159.441 253.475,158.335 253.520,159.687 253.575 M360.480 264.382 C 360.480 267.250,360.525 268.424,360.580 266.990 C 360.634 265.555,360.634 263.208,360.580 261.773 C 360.525 260.339,360.480 261.513,360.480 264.382 M38.434 264.009 L 37.407 265.127 38.525 264.100 C 39.565 263.143,39.779 262.891,39.552 262.891 C 39.502 262.891,38.999 263.394,38.434 264.009 M209.240 283.747 C 205.266 284.110,203.895 284.593,202.136 286.248 C 199.568 288.664,199.412 289.697,199.407 304.263 L 199.404 316.574 201.091 319.017 C 202.019 320.361,203.312 322.231,203.964 323.172 C 205.717 325.701,204.664 325.579,225.736 325.707 C 255.426 325.888,254.844 326.237,254.844 308.297 L 254.844 298.957 242.060 298.957 L 229.276 298.957 225.964 303.852 C 224.143 306.545,222.653 308.823,222.653 308.915 C 222.653 309.007,226.710 309.118,231.669 309.161 L 240.686 309.240 240.771 311.997 L 240.857 314.754 227.284 314.754 L 213.711 314.754 213.711 304.471 L 213.711 294.188 230.644 294.188 L 247.576 294.188 248.863 292.325 C 249.570 291.300,251.151 289.010,252.375 287.236 C 253.600 285.462,254.555 283.970,254.499 283.919 C 254.253 283.701,211.523 283.539,209.240 283.747 M30.177 304.689 L 30.253 325.633 52.310 325.633 L 74.367 325.633 74.460 321.162 C 74.512 318.703,74.472 316.256,74.372 315.723 L 74.191 314.754 58.857 314.754 L 43.523 314.754 43.445 299.329 L 43.368 283.905 36.734 283.824 L 30.100 283.744 30.177 304.689 M80.847 304.694 L 80.924 325.633 101.341 325.716 C 125.194 325.812,122.638 326.106,124.738 323.024 C 125.659 321.672,127.285 319.295,128.352 317.741 C 129.419 316.187,130.173 314.876,130.028 314.828 C 129.883 314.780,122.061 314.710,112.646 314.673 L 95.529 314.605 95.443 311.997 L 95.357 309.389 105.503 309.389 L 115.648 309.389 115.648 304.620 L 115.648 299.851 105.538 299.851 L 95.427 299.851 95.329 297.609 C 95.275 296.375,95.276 295.235,95.330 295.075 C 95.393 294.891,100.941 294.784,110.457 294.784 L 125.484 294.784 125.484 289.270 L 125.484 283.756 103.128 283.756 L 80.771 283.756 80.847 304.694 M158.503 284.277 C 158.252 284.564,156.847 286.610,155.380 288.823 C 153.914 291.036,151.842 294.121,150.775 295.678 C 149.709 297.235,145.963 302.794,142.451 308.030 C 138.939 313.266,134.890 319.293,133.453 321.423 C 132.016 323.553,130.952 325.408,131.089 325.545 C 131.225 325.681,134.681 325.757,138.768 325.713 L 146.200 325.633 148.435 322.275 C 149.665 320.428,151.333 317.879,152.143 316.612 C 158.012 307.423,163.629 298.957,163.855 298.958 C 163.981 298.959,164.856 300.200,165.800 301.715 C 166.744 303.231,168.354 305.776,169.377 307.370 C 174.091 314.718,177.632 320.208,179.378 322.876 L 181.279 325.782 188.983 325.782 C 193.255 325.782,196.760 325.662,196.853 325.513 C 196.944 325.365,196.106 323.856,194.990 322.160 C 193.873 320.464,192.309 318.070,191.514 316.841 C 189.634 313.933,186.105 308.543,181.466 301.490 C 175.979 293.148,171.396 286.143,170.594 284.873 L 169.888 283.756 164.424 283.756 C 159.593 283.756,158.907 283.816,158.503 284.277 M263.603 284.181 C 263.514 284.415,263.489 292.228,263.548 301.543 C 263.712 327.398,261.796 325.633,289.717 325.633 C 318.432 325.633,316.622 327.428,316.473 299.106 L 316.393 283.905 309.762 283.824 L 303.130 283.744 303.100 298.429 C 303.084 306.506,303.051 313.450,303.026 313.860 L 302.981 314.605 289.940 314.683 L 276.900 314.760 276.900 299.258 L 276.900 283.756 270.333 283.756 C 264.919 283.756,263.738 283.830,263.603 284.181 M325.259 304.628 L 325.335 325.500 347.839 325.500 L 370.343 325.500 370.424 320.130 L 370.505 314.759 354.478 314.682 L 338.450 314.605 338.450 311.923 L 338.450 309.240 347.601 309.161 L 356.753 309.082 356.841 304.295 C 356.958 297.981,358.099 298.659,347.364 298.659 L 338.275 298.659 338.363 296.498 L 338.450 294.337 354.322 294.260 L 370.194 294.183 370.194 288.969 L 370.194 283.756 347.688 283.756 L 325.182 283.756 325.259 304.628 " stroke="none" fill="#fa9928" fill-rule="evenodd"></path><path id="path2" d="M113.338 0.224 C 161.002 0.265,238.998 0.265,286.662 0.224 C 334.326 0.182,295.328 0.148,200.000 0.148 C 104.672 0.148,65.674 0.182,113.338 0.224 M24.019 1.233 C 24.163 1.466,23.943 1.529,23.307 1.435 C 22.783 1.358,22.460 1.419,22.557 1.577 C 22.658 1.740,22.256 1.778,21.573 1.669 C 20.937 1.567,20.216 1.619,19.970 1.785 C 19.643 2.005,19.803 2.045,20.566 1.934 L 21.610 1.783 20.715 2.124 C 20.224 2.311,19.671 2.583,19.486 2.728 C 19.302 2.872,18.942 2.910,18.685 2.812 C 18.428 2.713,17.975 2.784,17.678 2.970 C 17.210 3.263,17.237 3.284,17.884 3.134 C 18.441 3.005,18.356 3.111,17.551 3.554 C 16.958 3.880,16.298 4.186,16.085 4.234 C 15.872 4.282,15.486 4.498,15.226 4.713 C 14.227 5.541,12.468 6.561,12.260 6.433 C 12.141 6.359,11.848 6.437,11.610 6.605 C 11.271 6.846,11.306 6.873,11.773 6.734 C 12.267 6.587,12.241 6.659,11.624 7.153 C 11.215 7.481,10.681 7.917,10.438 8.122 C 10.196 8.327,9.884 8.458,9.745 8.413 C 9.607 8.368,9.560 8.439,9.641 8.570 C 9.723 8.702,9.232 9.342,8.550 9.993 C 7.869 10.645,7.565 10.876,7.875 10.507 C 8.732 9.486,8.277 9.707,7.284 10.793 C 6.802 11.320,6.643 11.572,6.930 11.353 C 7.217 11.134,7.452 11.089,7.452 11.253 C 7.452 11.703,6.686 12.246,6.408 11.994 C 6.273 11.873,6.264 11.947,6.386 12.159 C 6.682 12.671,5.954 13.586,5.647 13.089 C 5.351 12.610,4.670 13.896,4.852 14.591 C 4.927 14.877,4.740 15.434,4.438 15.827 C 4.062 16.317,3.885 16.401,3.877 16.095 C 3.867 15.698,3.834 15.698,3.577 16.095 C 3.204 16.672,3.198 17.075,3.565 16.848 C 3.734 16.743,3.722 17.039,3.536 17.575 C 3.171 18.622,2.852 18.803,3.124 17.809 C 3.284 17.225,3.265 17.206,2.977 17.666 C 2.795 17.956,2.725 18.442,2.821 18.745 C 2.936 19.106,2.738 19.542,2.248 20.006 C 1.837 20.396,1.500 20.849,1.500 21.013 C 1.500 21.177,1.643 21.110,1.819 20.864 C 2.069 20.514,2.101 20.578,1.967 21.162 C 1.873 21.572,1.795 22.083,1.792 22.298 C 1.790 22.512,1.688 22.627,1.565 22.552 C 1.099 22.269,1.077 28.938,1.060 176.602 C 1.044 320.117,1.075 330.189,1.527 330.551 C 1.630 330.633,1.797 331.170,1.899 331.744 C 2.035 332.507,2.011 332.627,1.809 332.191 C 1.622 331.788,1.527 331.740,1.516 332.042 C 1.507 332.288,1.629 332.690,1.788 332.936 C 1.947 333.182,2.079 333.253,2.082 333.093 C 2.084 332.934,2.295 333.102,2.551 333.466 C 2.806 333.831,2.932 334.263,2.831 334.427 C 2.730 334.590,2.797 334.724,2.981 334.724 C 3.164 334.724,3.222 334.873,3.109 335.056 C 2.996 335.238,3.089 335.504,3.315 335.647 C 3.637 335.851,3.642 335.908,3.336 335.912 C 3.121 335.914,3.030 336.053,3.133 336.219 C 3.236 336.386,3.432 336.453,3.570 336.368 C 3.707 336.283,3.763 336.516,3.695 336.885 C 3.626 337.254,3.653 337.379,3.754 337.162 C 3.942 336.762,4.686 337.507,4.708 338.119 C 4.714 338.264,4.830 338.465,4.967 338.566 C 5.588 339.020,6.564 340.732,6.376 341.036 C 6.259 341.226,6.299 341.292,6.468 341.188 C 6.873 340.937,8.163 342.344,7.908 342.757 C 7.794 342.941,7.879 343.049,8.100 343.003 C 8.317 342.958,8.458 343.099,8.413 343.316 C 8.368 343.533,8.449 343.638,8.593 343.548 C 8.953 343.326,10.195 344.693,9.913 345.003 C 9.789 345.140,9.853 345.157,10.056 345.040 C 10.281 344.910,10.917 345.328,11.684 346.110 C 12.376 346.815,12.825 347.201,12.681 346.968 C 12.528 346.719,12.734 346.780,13.184 347.117 C 13.604 347.432,13.887 347.789,13.814 347.910 C 13.740 348.031,13.878 348.054,14.119 347.962 C 14.361 347.869,14.838 348.072,15.178 348.412 C 15.519 348.753,15.939 349.031,16.113 349.031 C 16.287 349.031,16.347 349.164,16.247 349.326 C 16.144 349.491,16.257 349.547,16.502 349.453 C 16.743 349.360,17.320 349.504,17.785 349.773 C 18.249 350.042,18.361 350.173,18.033 350.065 C 16.654 349.610,16.577 349.608,17.288 350.041 C 17.697 350.291,18.266 350.426,18.552 350.340 C 18.837 350.255,19.240 350.292,19.446 350.423 C 19.652 350.554,19.888 350.675,19.970 350.691 C 20.052 350.707,20.497 350.877,20.958 351.068 C 21.420 351.259,22.023 351.418,22.300 351.420 C 22.735 351.424,22.742 351.466,22.355 351.729 C 22.034 351.948,22.236 351.977,23.068 351.833 C 23.900 351.688,24.170 351.727,24.020 351.970 C 23.864 352.222,68.519 352.308,199.817 352.308 C 316.236 352.307,375.886 352.207,376.007 352.010 C 376.108 351.847,376.417 351.723,376.694 351.735 C 377.105 351.752,377.088 351.803,376.602 352.012 C 376.112 352.222,376.096 352.272,376.513 352.289 C 376.791 352.301,377.127 352.136,377.258 351.922 C 377.579 351.400,379.896 350.748,380.714 350.950 C 381.075 351.039,381.203 351.035,380.999 350.941 C 380.363 350.649,380.582 350.358,381.744 349.955 C 382.358 349.742,383.741 349.044,384.817 348.405 C 385.892 347.766,386.991 347.243,387.258 347.243 C 387.526 347.243,387.840 347.088,387.957 346.899 C 388.096 346.674,388.024 346.627,387.751 346.764 C 387.521 346.878,387.719 346.664,388.191 346.288 C 388.664 345.912,389.933 344.698,391.011 343.592 C 392.090 342.485,393.148 341.580,393.363 341.580 C 393.578 341.580,393.896 341.211,394.069 340.760 C 394.891 338.628,395.985 336.807,396.357 336.950 C 396.574 337.034,396.669 336.967,396.567 336.801 C 396.279 336.337,397.017 334.389,397.392 334.621 C 397.599 334.749,397.648 334.643,397.528 334.330 C 397.424 334.059,397.602 333.266,397.924 332.567 L 398.509 331.297 398.361 332.340 L 398.213 333.383 398.665 332.204 C 399.106 331.053,399.395 26.419,398.955 25.979 C 398.667 25.691,398.809 24.108,399.106 24.292 C 399.270 24.393,399.404 24.271,399.404 24.021 C 399.404 23.764,399.231 23.632,399.006 23.718 C 398.580 23.882,398.436 23.018,398.805 22.504 C 399.022 22.200,398.581 20.098,398.349 20.330 C 398.279 20.400,398.344 20.884,398.494 21.406 C 398.644 21.928,398.669 22.355,398.551 22.355 C 398.432 22.355,398.149 21.718,397.921 20.939 C 397.508 19.529,397.464 19.300,397.341 17.884 C 397.280 17.195,397.257 17.184,397.024 17.735 C 396.801 18.262,396.747 18.219,396.560 17.362 C 396.444 16.829,396.240 16.393,396.108 16.393 C 395.845 16.393,395.371 15.201,395.477 14.806 C 395.514 14.671,395.384 14.660,395.188 14.781 C 394.943 14.932,394.893 14.841,395.028 14.489 C 395.136 14.208,395.124 14.040,395.002 14.115 C 394.880 14.190,394.384 13.694,393.900 13.013 C 393.416 12.331,393.249 11.958,393.529 12.183 C 393.849 12.439,394.039 12.470,394.039 12.265 C 394.039 12.085,393.670 11.742,393.219 11.502 C 392.768 11.262,391.729 10.356,390.909 9.490 C 390.089 8.623,389.687 8.112,390.015 8.353 C 390.567 8.760,390.581 8.754,390.202 8.271 C 389.977 7.984,389.626 7.750,389.422 7.750 C 388.898 7.750,387.446 6.558,387.623 6.272 C 387.704 6.141,387.403 5.959,386.955 5.867 C 386.507 5.775,385.872 5.481,385.544 5.212 C 385.216 4.944,385.115 4.810,385.320 4.914 C 385.525 5.017,385.693 4.946,385.693 4.755 C 385.693 4.564,385.513 4.476,385.294 4.560 C 385.074 4.645,384.102 4.327,383.133 3.854 C 382.164 3.381,381.203 2.991,380.999 2.987 C 380.516 2.979,380.516 2.484,380.999 2.263 C 381.203 2.169,381.096 2.158,380.759 2.240 C 380.027 2.417,375.766 1.383,376.051 1.097 C 376.161 0.988,296.951 0.898,200.030 0.897 C 68.869 0.896,23.864 0.982,24.019 1.233 M382.414 3.193 C 382.660 3.285,383.130 3.483,383.458 3.633 C 384.044 3.903,384.044 3.900,383.475 3.444 C 383.157 3.189,382.687 2.991,382.432 3.004 C 382.030 3.024,382.028 3.050,382.414 3.193 M189.270 20.969 C 189.270 22.969,185.765 25.110,180.030 26.614 C 172.555 28.573,170.346 29.712,168.040 32.793 C 166.175 35.286,165.983 35.351,166.518 33.308 C 166.743 32.448,167.001 30.738,167.091 29.508 L 167.255 27.273 166.596 28.167 C 166.234 28.659,164.283 30.671,162.261 32.638 C 158.348 36.444,157.088 38.372,157.082 40.561 C 157.079 41.508,156.917 41.733,155.641 42.560 C 153.048 44.241,151.926 44.385,149.823 43.310 C 149.357 43.072,148.920 42.933,148.852 43.001 C 148.671 43.182,151.783 46.173,152.869 46.861 C 153.992 47.572,154.015 47.924,153.065 49.932 C 151.614 53.000,151.707 53.824,153.937 57.610 C 155.248 59.836,155.714 60.137,155.420 58.569 C 155.141 57.082,155.493 55.599,156.372 54.554 C 157.442 53.283,157.675 53.417,157.675 55.302 C 157.675 56.365,157.887 57.370,158.271 58.122 C 159.231 60.003,159.026 60.976,157.280 62.819 C 156.174 63.988,156.345 64.242,158.920 65.256 C 161.682 66.345,161.533 67.061,158.198 68.740 C 153.233 71.240,142.883 72.046,138.950 70.238 C 133.637 67.795,129.761 67.773,121.461 70.138 C 116.751 71.480,113.899 71.751,111.915 71.047 C 110.048 70.384,105.675 70.403,104.930 71.077 C 104.500 71.467,104.281 71.433,102.992 70.780 C 101.868 70.212,101.076 70.045,99.500 70.045 L 97.461 70.045 97.652 68.423 C 97.893 66.368,96.896 64.445,95.051 63.412 C 91.997 61.702,91.325 61.401,90.567 61.401 C 90.121 61.401,89.392 61.262,88.947 61.093 C 88.321 60.855,87.727 60.918,86.319 61.369 C 83.680 62.216,59.800 62.860,58.374 62.122 C 57.082 61.454,56.680 61.739,56.574 63.397 L 56.483 64.829 55.265 64.918 C 54.441 64.978,53.923 64.858,53.664 64.545 C 53.021 63.771,51.599 63.956,51.256 64.857 C 51.094 65.283,50.695 65.701,50.369 65.786 C 49.979 65.888,49.766 66.210,49.745 66.726 C 49.685 68.214,49.832 69.300,50.107 69.401 C 50.763 69.641,51.267 70.449,51.267 71.263 C 51.267 72.412,52.690 73.321,54.493 73.322 C 55.943 73.324,55.834 73.225,58.779 77.191 C 62.489 82.185,66.724 83.912,77.510 84.828 L 79.759 85.019 81.500 87.060 C 82.547 88.288,83.610 89.223,84.169 89.408 C 86.094 90.043,92.343 91.230,94.701 91.408 L 97.151 91.593 98.352 90.392 C 99.088 89.656,99.553 88.914,99.553 88.475 C 99.553 88.011,99.842 87.586,100.373 87.269 C 100.823 86.999,101.968 86.084,102.916 85.234 L 104.640 83.690 105.316 84.419 C 105.892 85.041,106.364 85.178,108.510 85.348 C 113.158 85.715,115.734 86.769,119.666 89.911 C 123.341 92.847,125.085 93.266,136.960 94.058 C 141.752 94.378,143.961 93.449,143.968 91.111 C 143.974 89.340,144.252 88.525,144.851 88.525 C 145.303 88.525,153.271 91.281,155.278 92.133 C 156.106 92.483,156.898 91.785,156.650 90.925 C 155.640 87.422,156.060 86.965,159.762 87.538 C 163.147 88.062,166.530 87.888,168.659 87.079 C 170.563 86.355,170.774 86.558,171.088 89.416 C 171.364 91.935,171.535 92.210,175.216 96.066 C 176.811 97.738,178.906 99.947,179.871 100.976 C 180.836 102.005,181.903 102.904,182.243 102.973 C 182.583 103.043,183.891 103.330,185.149 103.611 C 187.289 104.089,187.520 104.090,188.735 103.626 C 190.500 102.952,191.953 103.001,195.580 103.855 C 197.273 104.254,199.446 104.736,200.409 104.927 C 201.976 105.237,202.195 105.372,202.496 106.214 C 202.680 106.731,203.536 108.603,204.396 110.375 C 206.008 113.692,206.165 114.158,205.676 114.158 C 204.248 114.158,191.383 120.737,186.055 124.192 C 169.824 134.717,155.296 151.042,157.489 156.292 C 159.331 160.700,161.597 162.157,167.171 162.514 C 175.383 163.041,178.296 162.556,189.866 158.730 C 201.358 154.929,213.773 153.487,216.348 155.653 C 216.857 156.082,217.712 156.527,218.249 156.642 C 221.205 157.275,228.222 160.370,230.152 161.890 C 233.010 164.142,241.570 174.786,242.096 176.742 C 242.457 178.085,244.054 179.784,244.846 179.669 C 245.825 179.527,246.191 178.314,246.195 175.192 C 246.198 173.219,246.355 171.905,246.684 171.081 C 247.289 169.569,247.095 167.428,246.270 166.524 C 245.886 166.103,245.623 165.295,245.528 164.246 C 245.403 162.857,245.232 162.488,244.352 161.712 C 243.787 161.213,243.099 160.441,242.825 159.997 C 242.551 159.552,241.535 158.651,240.567 157.994 C 237.378 155.828,235.576 152.053,236.504 149.478 C 236.740 148.823,236.939 147.868,236.947 147.356 L 236.960 146.426 243.592 149.792 C 253.062 154.599,260.273 157.344,266.678 158.582 C 268.589 158.951,268.759 159.049,272.501 161.929 C 275.184 163.995,277.435 164.925,281.644 165.708 C 284.772 166.289,298.932 172.841,305.365 176.683 C 319.299 185.006,330.947 194.039,327.745 194.039 C 327.212 194.039,326.973 194.199,326.971 194.560 C 326.968 194.847,326.891 195.364,326.798 195.709 C 326.655 196.241,327.256 196.787,330.738 199.286 C 334.909 202.281,347.397 213.817,347.611 214.872 C 347.664 215.135,347.280 215.914,346.757 216.604 C 346.235 217.293,345.651 218.333,345.459 218.914 L 345.110 219.970 186.490 219.970 L 27.869 219.970 26.080 219.121 C 23.930 218.100,22.063 216.161,21.283 214.140 C 20.729 212.703,20.715 210.429,20.715 120.119 L 20.715 27.571 21.343 26.214 C 22.561 23.582,24.751 21.689,27.407 20.972 C 29.511 20.405,189.270 20.401,189.270 20.969 M373.983 21.418 C 376.021 22.339,377.985 24.467,378.794 26.628 L 379.434 28.338 379.434 120.417 C 379.434 225.253,379.731 214.219,376.829 217.047 C 374.015 219.790,373.930 219.809,364.158 219.909 C 359.445 219.957,355.589 219.910,355.589 219.806 C 355.589 219.701,355.847 219.253,356.162 218.810 C 356.772 217.953,357.980 213.559,357.964 212.254 C 357.952 211.301,357.691 210.970,355.500 209.131 C 353.033 207.059,351.528 204.094,352.168 202.564 C 353.009 200.549,351.870 194.991,350.000 191.990 C 346.811 186.874,344.395 185.361,342.651 187.388 C 342.048 188.088,341.770 188.179,340.415 188.117 C 339.264 188.065,338.604 188.210,337.832 188.687 C 336.829 189.307,336.769 189.311,335.983 188.801 C 333.218 187.007,324.421 178.486,319.081 172.429 C 317.636 170.790,316.004 168.951,315.454 168.343 C 314.904 167.735,314.111 166.729,313.691 166.108 C 308.380 158.245,299.481 153.798,285.203 151.873 C 283.454 151.638,280.810 150.031,278.319 147.690 C 277.272 146.706,274.144 144.028,271.367 141.738 C 268.591 139.448,265.782 137.078,265.127 136.471 C 264.471 135.864,263.599 135.091,263.189 134.753 C 261.991 133.766,261.907 133.694,259.251 131.400 C 252.855 125.876,247.563 121.531,243.867 118.771 C 241.273 116.833,239.928 114.453,238.315 108.942 C 236.666 103.310,232.915 99.183,225.775 95.145 C 221.847 92.923,221.872 92.963,221.643 88.525 L 221.451 84.799 220.412 83.950 C 218.989 82.787,218.990 81.616,220.417 80.309 C 221.880 78.969,221.979 75.446,220.615 73.307 C 219.097 70.927,211.879 60.975,211.051 60.120 C 209.940 58.973,207.290 58.304,204.878 58.563 C 202.100 58.860,200.863 58.374,199.329 56.385 C 198.633 55.481,197.371 54.299,196.526 53.758 L 194.990 52.775 193.247 53.226 C 192.289 53.474,190.842 53.873,190.031 54.113 C 188.328 54.615,188.275 54.581,187.807 52.646 C 187.395 50.951,187.469 50.830,190.134 48.819 C 192.708 46.876,195.231 44.680,195.231 44.382 C 195.231 44.234,194.124 44.104,192.772 44.092 C 188.878 44.059,188.802 43.959,190.934 41.701 C 195.899 36.443,199.365 29.734,195.873 32.140 C 194.660 32.976,189.270 34.385,189.270 33.866 C 189.270 33.776,189.802 32.878,190.452 31.872 C 191.981 29.507,192.718 27.496,193.312 24.077 C 193.576 22.556,193.844 21.143,193.907 20.936 C 193.999 20.636,211.760 20.577,283.226 20.638 L 372.429 20.715 373.983 21.418 M399.783 28.018 C 399.783 28.756,399.841 29.057,399.912 28.689 C 399.983 28.320,399.983 27.716,399.912 27.347 C 399.841 26.978,399.783 27.280,399.783 28.018 M328.316 33.274 C 323.010 34.592,322.651 35.311,317.531 54.920 C 313.123 71.804,312.844 73.408,314.040 75.014 C 316.470 78.278,326.809 77.888,329.434 74.434 C 330.677 72.798,332.631 67.530,332.637 65.797 C 332.638 65.674,331.313 65.574,329.693 65.574 L 326.749 65.574 326.244 67.586 C 325.291 71.380,324.608 72.131,322.109 72.131 C 318.868 72.131,318.760 73.428,323.543 54.989 C 328.081 37.497,327.807 38.152,330.588 38.152 C 333.512 38.152,333.723 38.750,332.489 43.517 C 332.086 45.075,331.753 46.449,331.750 46.572 C 331.746 46.695,333.068 46.796,334.686 46.796 L 337.628 46.796 338.591 43.159 C 340.716 35.127,339.615 33.281,332.638 33.180 C 330.589 33.150,328.644 33.192,328.316 33.274 M339.997 54.769 C 336.928 66.695,334.419 76.623,334.422 76.831 C 334.425 77.128,335.824 77.192,340.890 77.130 L 347.354 77.049 347.888 74.963 C 348.181 73.815,348.425 72.709,348.428 72.504 C 348.433 72.227,347.555 72.131,345.007 72.131 C 343.122 72.131,341.580 72.051,341.580 71.952 C 341.580 71.854,343.793 63.224,346.498 52.775 C 349.203 42.326,351.416 33.621,351.416 33.431 C 351.416 33.192,350.512 33.085,348.497 33.085 L 345.577 33.085 339.997 54.769 M362.178 34.203 C 358.630 47.920,351.443 76.010,351.368 76.453 C 351.272 77.016,351.432 77.049,354.216 77.049 L 357.166 77.049 362.780 55.291 C 365.868 43.323,368.397 33.431,368.400 33.308 C 368.403 33.186,367.069 33.085,365.436 33.085 L 362.467 33.085 362.178 34.203 M85.410 78.167 C 85.523 78.536,85.805 79.055,86.037 79.320 C 86.847 80.245,88.519 83.226,88.366 83.473 C 87.751 84.469,83.675 81.841,83.024 80.030 C 82.079 77.398,82.053 77.496,83.715 77.496 C 85.002 77.496,85.234 77.588,85.410 78.167 M223.672 136.396 C 224.334 136.650,224.260 137.208,223.398 138.478 C 222.962 139.120,222.653 140.000,222.653 140.596 C 222.653 141.336,222.349 141.978,221.546 142.939 L 220.440 144.262 215.778 144.262 C 210.587 144.262,207.386 144.012,207.518 143.615 C 207.566 143.471,208.879 142.907,210.435 142.360 C 213.660 141.227,219.403 138.558,221.610 137.166 C 223.341 136.074,223.084 136.170,223.672 136.396 M399.848 275.410 C 399.848 303.361,399.883 314.795,399.925 300.820 C 399.968 286.844,399.968 263.975,399.925 250.000 C 399.883 236.025,399.848 247.459,399.848 275.410 M62.345 241.832 C 62.618 241.964,63.859 243.599,65.102 245.465 L 67.362 248.859 67.362 256.190 C 67.362 264.737,67.198 265.711,65.453 267.524 C 63.379 269.678,62.867 269.747,48.907 269.747 L 36.820 269.747 40.537 266.021 L 44.253 262.295 50.895 262.295 L 57.537 262.295 57.457 255.663 L 57.377 249.031 48.584 249.031 L 39.791 249.031 39.711 256.036 L 39.631 263.040 36.736 265.946 C 33.473 269.223,33.510 269.207,32.005 267.886 C 29.899 266.037,29.820 265.606,29.814 255.887 C 29.808 243.967,30.387 242.645,36.066 241.628 C 37.379 241.393,61.829 241.582,62.345 241.832 M82.549 249.778 C 85.378 254.369,87.796 258.189,87.922 258.267 C 88.048 258.345,90.267 255.025,92.853 250.888 C 95.439 246.752,97.877 242.932,98.271 242.399 L 98.987 241.431 104.021 241.431 C 106.790 241.431,109.116 241.531,109.190 241.654 C 109.264 241.777,107.740 244.292,105.802 247.243 C 103.865 250.194,99.755 256.461,96.669 261.169 L 91.058 269.730 87.630 269.732 L 84.203 269.734 76.751 257.915 C 72.653 251.415,68.680 245.147,67.922 243.987 C 66.158 241.287,65.923 241.431,72.103 241.431 L 77.404 241.431 82.549 249.778 M138.832 245.227 L 138.915 248.874 128.847 248.953 L 118.778 249.031 118.688 250.590 L 118.598 252.150 125.394 252.230 L 132.191 252.310 132.275 255.509 L 132.360 258.707 125.569 258.787 L 118.778 258.867 118.689 260.581 L 118.599 262.295 128.748 262.295 L 138.897 262.295 138.897 266.024 L 138.897 269.752 123.920 269.675 L 108.942 269.598 108.863 259.194 C 108.793 249.889,108.838 248.708,109.284 248.016 C 109.558 247.591,110.707 245.934,111.837 244.334 L 113.891 241.424 126.320 241.502 L 138.748 241.580 138.832 245.227 M173.617 242.116 C 176.664 243.490,177.332 244.985,177.341 250.457 C 177.350 256.470,175.596 259.016,171.444 259.016 C 170.116 259.016,170.710 259.688,176.315 264.521 C 179.506 267.273,182.116 269.574,182.116 269.635 C 182.116 269.696,179.132 269.744,175.484 269.740 L 168.852 269.733 162.956 264.454 L 157.059 259.175 157.144 256.339 L 157.228 253.502 162.519 253.421 L 167.809 253.339 167.809 251.111 L 167.809 248.882 160.362 248.882 L 152.914 248.882 152.835 259.240 L 152.757 269.598 147.914 269.680 L 143.070 269.761 143.070 255.795 C 143.070 248.113,143.166 241.732,143.284 241.614 C 143.815 241.083,172.375 241.555,173.617 242.116 M189.514 242.548 C 189.820 243.163,191.128 246.248,192.422 249.404 C 194.962 255.599,195.031 255.695,195.728 254.024 C 197.199 250.497,200.708 242.673,201.074 242.101 C 201.583 241.307,207.390 241.056,207.962 241.803 C 208.118 242.008,209.562 245.168,211.169 248.826 C 212.777 252.483,214.194 255.367,214.319 255.234 C 214.517 255.023,215.329 253.135,219.298 243.666 L 220.172 241.580 224.840 241.498 C 227.408 241.453,229.508 241.489,229.508 241.579 C 229.508 241.669,227.879 245.462,225.887 250.007 C 223.896 254.552,221.154 260.820,219.796 263.934 L 217.325 269.598 213.827 269.598 L 210.329 269.598 208.512 265.574 C 207.513 263.361,206.167 260.309,205.522 258.793 C 204.081 255.406,204.265 255.378,202.552 259.240 C 201.770 261.002,200.382 264.091,199.468 266.105 L 197.807 269.765 194.566 269.681 L 191.325 269.598 190.190 267.064 C 185.081 255.656,179.136 242.054,179.136 241.774 C 179.136 241.529,180.544 241.431,184.048 241.431 L 188.960 241.431 189.514 242.548 M251.671 246.572 C 253.522 249.400,256.334 253.692,257.921 256.110 C 262.583 263.217,266.341 268.974,266.579 269.374 C 266.754 269.667,265.630 269.746,261.344 269.745 L 255.887 269.742 250.238 260.932 C 247.131 256.086,244.494 252.063,244.378 251.991 C 244.262 251.920,243.596 252.767,242.897 253.874 C 242.198 254.981,240.532 257.563,239.194 259.613 C 237.857 261.662,235.835 264.778,234.701 266.537 L 232.638 269.736 227.340 269.741 L 222.043 269.747 222.564 268.927 C 222.851 268.476,224.173 266.498,225.502 264.531 C 226.831 262.563,230.707 256.796,234.115 251.714 C 237.523 246.632,240.517 242.239,240.769 241.952 C 241.155 241.510,241.766 241.431,244.765 241.431 L 248.305 241.431 251.671 246.572 M295.678 241.731 C 295.678 241.896,294.654 243.569,293.401 245.450 L 291.125 248.868 286.322 248.950 L 281.520 249.031 281.442 259.389 L 281.363 269.747 276.449 269.747 L 271.535 269.747 271.535 259.314 L 271.535 248.882 265.425 248.882 L 259.314 248.882 259.314 245.355 C 259.314 243.415,259.404 241.739,259.513 241.629 C 259.850 241.292,295.678 241.393,295.678 241.731 M325.710 242.288 C 328.690 243.635,329.653 245.443,329.656 249.702 L 329.657 252.161 324.755 252.161 L 319.852 252.161 319.762 250.596 L 319.672 249.031 311.923 249.031 L 304.173 249.031 304.093 255.663 L 304.012 262.295 311.903 262.295 L 319.793 262.295 319.881 260.432 L 319.970 258.569 324.739 258.569 L 329.508 258.569 329.594 261.177 C 329.708 264.625,329.327 265.920,327.729 267.518 C 325.569 269.678,325.074 269.747,311.772 269.747 C 294.391 269.747,294.185 269.601,294.191 257.320 L 294.193 251.118 297.246 246.437 C 298.925 243.862,300.499 241.695,300.745 241.620 C 302.653 241.039,324.225 241.617,325.710 242.288 M343.368 246.434 L 343.517 251.288 351.801 251.287 C 356.357 251.287,360.223 251.201,360.393 251.096 C 360.591 250.974,360.674 249.224,360.623 246.242 L 360.543 241.580 365.368 241.498 L 370.194 241.416 370.194 255.589 L 370.194 269.761 365.350 269.680 L 360.507 269.598 360.507 264.307 L 360.507 259.016 351.937 259.016 L 343.368 259.016 343.368 264.382 L 343.368 269.747 338.450 269.747 L 333.532 269.747 333.532 255.787 C 333.532 248.110,333.625 241.735,333.738 241.622 C 333.851 241.509,336.031 241.453,338.582 241.498 L 343.219 241.580 343.368 246.434 M254.499 283.919 C 254.555 283.970,253.600 285.462,252.375 287.236 C 251.151 289.010,249.570 291.300,248.863 292.325 L 247.576 294.188 230.644 294.188 L 213.711 294.188 213.711 304.471 L 213.711 314.754 227.284 314.754 L 240.857 314.754 240.771 311.997 L 240.686 309.240 231.669 309.161 C 226.710 309.118,222.653 309.007,222.653 308.915 C 222.653 308.823,224.143 306.545,225.964 303.852 L 229.276 298.957 242.060 298.957 L 254.844 298.957 254.844 308.297 C 254.844 326.237,255.426 325.888,225.736 325.707 C 204.664 325.579,205.717 325.701,203.964 323.172 C 203.312 322.231,202.019 320.361,201.091 319.017 L 199.404 316.574 199.407 304.263 C 199.412 289.697,199.568 288.664,202.136 286.248 C 203.895 284.593,205.266 284.110,209.240 283.747 C 211.523 283.539,254.253 283.701,254.499 283.919 M43.445 299.329 L 43.523 314.754 58.857 314.754 L 74.191 314.754 74.372 315.723 C 74.472 316.256,74.512 318.703,74.460 321.162 L 74.367 325.633 52.310 325.633 L 30.253 325.633 30.177 304.689 L 30.100 283.744 36.734 283.824 L 43.368 283.905 43.445 299.329 M125.484 289.270 L 125.484 294.784 110.457 294.784 C 100.941 294.784,95.393 294.891,95.330 295.075 C 95.276 295.235,95.275 296.375,95.329 297.609 L 95.427 299.851 105.538 299.851 L 115.648 299.851 115.648 304.620 L 115.648 309.389 105.503 309.389 L 95.357 309.389 95.443 311.997 L 95.529 314.605 112.646 314.673 C 122.061 314.710,129.883 314.780,130.028 314.828 C 130.173 314.876,129.419 316.187,128.352 317.741 C 127.285 319.295,125.659 321.672,124.738 323.024 C 122.638 326.106,125.194 325.812,101.341 325.716 L 80.924 325.633 80.847 304.694 L 80.771 283.756 103.128 283.756 L 125.484 283.756 125.484 289.270 M170.594 284.873 C 171.396 286.143,175.979 293.148,181.466 301.490 C 186.105 308.543,189.634 313.933,191.514 316.841 C 192.309 318.070,193.873 320.464,194.990 322.160 C 196.106 323.856,196.944 325.365,196.853 325.513 C 196.760 325.662,193.255 325.782,188.983 325.782 L 181.279 325.782 179.378 322.876 C 177.632 320.208,174.091 314.718,169.377 307.370 C 168.354 305.776,166.744 303.231,165.800 301.715 C 164.856 300.200,163.981 298.959,163.855 298.958 C 163.629 298.957,158.012 307.423,152.143 316.612 C 151.333 317.879,149.665 320.428,148.435 322.275 L 146.200 325.633 138.768 325.713 C 134.681 325.757,131.225 325.681,131.089 325.545 C 130.952 325.408,132.016 323.553,133.453 321.423 C 134.890 319.293,138.939 313.266,142.451 308.030 C 145.963 302.794,149.709 297.235,150.775 295.678 C 151.842 294.121,153.914 291.036,155.380 288.823 C 156.847 286.610,158.252 284.564,158.503 284.277 C 158.907 283.816,159.593 283.756,164.424 283.756 L 169.888 283.756 170.594 284.873 M276.900 299.258 L 276.900 314.760 289.940 314.683 L 302.981 314.605 303.026 313.860 C 303.051 313.450,303.084 306.506,303.100 298.429 L 303.130 283.744 309.762 283.824 L 316.393 283.905 316.473 299.106 C 316.581 319.630,316.299 321.604,312.925 323.870 C 310.392 325.571,309.573 325.633,289.717 325.633 C 261.796 325.633,263.712 327.398,263.548 301.543 C 263.489 292.228,263.514 284.415,263.603 284.181 C 263.738 283.830,264.919 283.756,270.333 283.756 L 276.900 283.756 276.900 299.258 M370.194 288.969 L 370.194 294.183 354.322 294.260 L 338.450 294.337 338.363 296.498 L 338.275 298.659 347.364 298.659 C 358.099 298.659,356.958 297.981,356.841 304.295 L 356.753 309.082 347.601 309.161 L 338.450 309.240 338.450 311.923 L 338.450 314.605 354.478 314.682 L 370.505 314.759 370.424 320.130 L 370.343 325.500 347.839 325.500 L 325.335 325.500 325.259 304.628 L 325.182 283.756 347.688 283.756 L 370.194 283.756 370.194 288.969 M382.563 349.947 C 381.908 350.262,381.706 350.437,382.116 350.335 C 382.960 350.125,384.510 349.348,384.054 349.363 C 383.890 349.369,383.219 349.632,382.563 349.947 M113.338 353.130 C 161.002 353.171,238.998 353.171,286.662 353.130 C 334.326 353.088,295.328 353.054,200.000 353.054 C 104.672 353.054,65.674 353.088,113.338 353.130 " stroke="none" fill="#fbfbfb" fill-rule="evenodd"></path></g></svg>