<?xml version="1.0" encoding="UTF-8"?>
<svg width="400" height="353.2" display="block" version="1.1" viewBox="0 0 400 353.2041728763041" xmlns="http://www.w3.org/2000/svg">
    <g fill-rule="evenodd">
        <path d="m27.939 20.891c-3.722 0.876-6.382 3.689-7.085 7.492-0.484 2.62-0.238 183.99 0.252 185.41 0.634 1.845 2.717 4.132 4.673 5.132l1.75 0.895 158.79 0.076 158.79 0.075 0.193-0.878c0.106-0.484 0.653-1.482 1.216-2.219s1.023-1.567 1.023-1.845c0-1.151-12.074-12.326-17.288-16.001-1.885-1.329-3.474-2.45-3.531-2.491-0.493-0.353 0.386-2.499 1.024-2.499 1.217 0 0.864-0.429-3.677-4.469-8.926-7.939-33.855-21.936-42.24-23.716-5.49-1.165-6.849-1.783-10.704-4.869-1.455-1.165-2.888-2.118-3.184-2.118-3.741 0-15.778-4.518-25.497-9.57-5.828-3.03-5.484-2.918-5.484-1.79 0 0.473-0.217 1.532-0.483 2.354l-0.482 1.494 1.08 2.247c0.76 1.58 1.486 2.584 2.446 3.383 3.05 2.541 3.698 3.162 3.698 3.549 0 0.222 0.408 0.616 0.907 0.874 1.051 0.543 1.475 1.464 1.483 3.216 4e-3 0.937 0.189 1.423 0.745 1.95 0.878 0.833 1.01 2.995 0.301 4.961-0.264 0.733-0.434 2.37-0.442 4.247-0.022 5.184-3.254 5.521-4.326 0.451-0.112-0.531-0.343-1.051-0.513-1.156s-1.307-1.546-2.527-3.202c-6.758-9.172-9.807-11.567-18.362-14.426-2.019-0.675-3.831-1.476-4.269-1.887-2.258-2.121-15.378-0.405-27.454 3.593-9.921 3.284-12.135 3.688-19.177 3.502-7.648-0.201-8.113-0.387-10.973-4.379-2.839-3.961-1.364-7.621 6.6-16.384 10.372-11.411 22.473-20.054 36.725-26.231 1.968-0.853 3.681-1.65 3.807-1.773 0.127-0.122-0.434-1.507-1.246-3.078s-1.641-3.407-1.843-4.08c-0.419-1.4-0.139-1.283-6.514-2.707-4.65-1.039-5.253-1.071-7.176-0.388-1.26 0.447-1.669 0.462-3.468 0.124-3.697-0.695-3.629-0.647-8.874-6.155-5.384-5.652-5.358-5.612-5.67-8.579-0.256-2.421-0.41-2.515-2.796-1.711-2.115 0.712-5.139 0.799-8.902 0.255-3.058-0.443-3.154-0.368-2.752 2.13 0.413 2.559 0.031 3.023-1.861 2.263-3.231-1.299-9.65-3.44-9.959-3.321-0.189 0.072-0.405 0.881-0.481 1.797-0.31 3.738-1.924 4.164-12.463 3.292-7.6-0.629-9.098-1.151-13.237-4.612-2.518-2.106-5.373-3.216-9.337-3.629-2.846-0.297-3.277-0.419-3.857-1.092l-0.653-0.758-1.433 1.333c-0.789 0.733-1.937 1.714-2.551 2.179-0.615 0.466-1.123 1.065-1.129 1.332-0.038 1.783-2.268 3.418-4.311 3.163-2.309-0.288-6.295-1.018-9.147-1.674l-2.59-0.596-1.924-2.15-1.924-2.149-4.011-0.379c-9.974-0.94-13.327-2.571-17.875-8.694l-1.881-2.534-1.68-0.15c-2.024-0.181-2.791-0.784-3.049-2.397-0.123-0.77-0.345-1.178-0.639-1.178-1.19 0-1.46-3.703-0.292-3.996 0.457-0.115 0.812-0.47 0.927-0.927 0.218-0.87 1.866-1.063 2.505-0.293 0.655 0.788 2.683 0.591 2.683-0.261 0-2.405 0.69-3.089 2.171-2.155 1.038 0.655 26.387-0.109 28.058-0.845 0.71-0.313 1.47-0.44 1.938-0.324 0.423 0.105 1.492 0.308 2.376 0.452 0.976 0.158 2.089 0.605 2.832 1.135 0.673 0.481 1.492 0.958 1.82 1.06 1.157 0.36 2.296 2.779 2.185 4.641l-0.099 1.662 2.389 0.156c1.766 0.115 2.674 0.332 3.482 0.831 0.981 0.606 1.119 0.625 1.362 0.191 0.435-0.776 4.732-0.967 6.509-0.288 2.023 0.772 6.179 0.48 10.218-0.718 8.192-2.43 11.843-2.36 18.064 0.346 3.492 1.52 13.591 0.583 18.42-1.709 3.622-1.72 3.645-2.337 0.138-3.718-2.008-0.791-2.029-0.866-0.695-2.494 1.411-1.722 1.554-2.525 0.761-4.27-0.361-0.793-0.697-2.113-0.747-2.932-0.05-0.82-0.102-1.548-0.115-1.617-0.013-0.07-0.359 0.189-0.77 0.574-0.965 0.907-1.351 2.357-1.127 4.244 0.233 1.97-0.085 1.751-1.863-1.282-1.875-3.197-2.004-4.369-0.772-7.002 1.201-2.565 1.198-2.582-0.566-3.715-1.475-0.946-3.704-3.24-3.422-3.521 0.079-0.079 0.677 0.096 1.328 0.39 1.57 0.707 3.49 0.49 4.853-0.55 0.567-0.432 1.17-0.785 1.341-0.785 0.17 0 0.4-0.637 0.51-1.416 0.341-2.418 1.485-4.322 4.111-6.839 3.489-3.343 4.964-4.886 5.645-5.903l0.599-0.894-0.173 2.682c-0.096 1.476-0.32 3.198-0.497 3.828-0.463 1.646-0.194 1.624 0.896-0.075 2.264-3.528 5.148-5.07 13.132-7.021 4.73-1.156 8.644-3.587 8.644-5.369 0-0.521-159.12-0.649-161.33-0.129m-27.791 155.56c0 82.377 0.034 116.08 0.076 74.888 0.041-41.188 0.041-108.59 0-149.78-0.042-41.189-0.076-7.489-0.076 74.888m82.415-98.47c0 2.167 1.949 4.577 4.186 5.18 1.319 0.355 1.675 0.259 1.35-0.363-2.104-4.035-3.153-5.304-4.388-5.304-0.863 0-1.148 0.121-1.148 0.487m138.82 59.412c-1.942 1.232-8.244 4.116-11.077 5.07-1.302 0.438-2.413 0.934-2.469 1.102-0.188 0.564 11.846 1.01 12.586 0.467 1.175-0.861 2.235-2.563 2.235-3.588 0-0.701 0.281-1.526 0.759-2.23 1.279-1.883 0.277-2.287-2.034-0.821m-185.42 104.35c-5.407 0.825-6.143 2.475-6.145 13.783-2e-3 9.362 0.135 10.195 1.978 12.038 1.68 1.68 1.491 1.748 4.896-1.772l2.955-3.055 3e-3 -6.93 2e-3 -6.93h8.942 8.942v6.707 6.706h-6.636-6.637l-3.498 3.507c-1.923 1.928-3.497 3.611-3.497 3.738s5.533 0.192 12.295 0.145l12.295-0.087 1.744-0.856c1.302-0.64 1.962-1.201 2.608-2.22l0.864-1.363v-8.307-8.308l-2.123-3.233c-1.174-1.788-2.406-3.332-2.757-3.455-0.934-0.325-24.182-0.421-26.231-0.108m30.921 0.046c-0.072 0.118 1.584 2.92 3.681 6.228 2.096 3.308 6.034 9.515 8.751 13.795l4.939 7.781 3.338 0.084 3.338 0.084 5.732-8.717c3.152-4.794 7.289-11.069 9.193-13.944s3.431-5.265 3.393-5.312c-0.371-0.456-10.47-0.056-10.828 0.429-0.223 0.302-2.588 4.032-5.256 8.287s-4.969 7.772-5.113 7.815c-0.145 0.043-2.554-3.64-5.355-8.184l-5.091-8.262-5.295-0.149c-2.912-0.082-5.354-0.053-5.427 0.065m59.03-0.136l-12.247 0.077-2.281 3.35-2.281 3.35-0.017 10.581-0.017 10.582 14.918 0.077 14.918 0.077v-3.728-3.729h-10.149-10.149l0.09-1.714 0.089-1.714 6.791-0.08 6.791-0.08-0.085-3.198-0.084-3.199-6.781-0.08-6.781-0.08v-1.634-1.634h10.143 10.144l-0.084-3.627c-0.05-2.142-0.206-3.637-0.382-3.651-0.164-0.013-5.809 0.011-12.546 0.054m17.331 6e-3c-0.091 0.09-0.165 6.449-0.165 14.131v13.966l4.775-0.081 4.774-0.082 0.069-10.284 0.069-10.283 7.526-0.079 7.526-0.08v2.206c0 2.702 0.325 2.564-6.036 2.569l-4.694 4e-3v2.699 2.698l1.714 1.574c0.942 0.865 3.617 3.273 5.943 5.349l4.229 3.776h6.426c3.535 0 6.418-0.101 6.406-0.224s-2.56-2.418-5.663-5.101c-6.314-5.458-6.156-5.254-4.251-5.515 4.232-0.58 5.315-2.29 5.315-8.385 0-6.613-0.998-8.125-5.812-8.802-2.277-0.32-27.837-0.371-28.151-0.056m36.026 0.103c-0.063 0.102 2.655 6.444 6.041 14.093l6.157 13.906 3.153-0.084 3.153-0.084 0.447-0.907c0.246-0.498 1.636-3.55 3.089-6.781s2.743-5.874 2.867-5.874 1.558 3.051 3.186 6.781l2.96 6.781 3.432 0.083 3.433 0.084 4.666-10.665c2.566-5.866 5.329-12.163 6.139-13.993 0.811-1.831 1.396-3.407 1.301-3.503-0.362-0.361-8.295-0.182-8.799 0.199-0.409 0.31-2.864 5.806-5.458 12.22-0.794 1.962-0.858 1.885-3.46-4.118-1.274-2.94-2.655-6.054-3.07-6.921l-0.754-1.577-3.118 0.046c-3.725 0.054-2.976-0.785-6.565 7.355-1.608 3.647-3.003 6.628-3.1 6.624-0.098-4e-3 -1.442-3.089-2.988-6.855-1.546-3.767-2.887-6.849-2.98-6.851-7.651-0.121-9.638-0.113-9.732 0.041m61.288 0.558c-3.711 5.337-17.906 26.504-18.082 26.962-0.255 0.664 9.755 0.694 10.305 0.031 0.196-0.236 2.803-4.219 5.794-8.85 2.992-4.631 5.564-8.456 5.717-8.499 0.152-0.043 1.954 2.559 4.003 5.782 2.049 3.224 4.629 7.241 5.733 8.928l2.007 3.068h5.253c4.404 0 5.227-0.068 5.091-0.422-0.15-0.392-8.164-12.748-14.551-22.435-1.533-2.325-2.922-4.446-3.086-4.713-0.57-0.93-7.523-0.804-8.184 0.148m18.89-0.621c-0.069 0.068-0.125 1.711-0.125 3.651v3.527h6.107 6.106l0.079 10.358 0.078 10.358h4.769 4.769l0.078-10.358 0.079-10.358h4.859 4.858l2.216-3.353c1.218-1.844 2.216-3.459 2.216-3.589 1e-3 -0.237-35.854-0.471-36.089-0.236m74.223 0.117c-0.075 0.195-0.101 6.525-0.059 14.066l0.078 13.711h4.769 4.769l0.081-5.291 0.082-5.291h8.637 8.637v5.366 5.365h4.772 4.772l-0.078-14.084-0.077-14.083h-4.62-4.62l-0.149 4.918-0.149 4.918-8.57 0.079-8.569 0.079v-4.891c0-3.963-0.081-4.921-0.426-5.054-0.896-0.344-9.14-0.174-9.28 0.192m-36.207 4.453l-2.967 4.546-1e-3 7.169-1e-3 7.17 0.9 1.419c0.692 1.092 1.292 1.602 2.608 2.219l1.708 0.801 11.326 0.096c16.766 0.143 18.472-0.595 18.478-7.995l2e-3 -3.13-4.15-0.094c-5.643-0.127-5.537-0.166-5.537 2.037v1.783h-7.898-7.899v-6.706-6.707h7.899 7.898v1.64 1.639h4.953 4.953l-0.127-2.906c-0.187-4.286-1.233-5.957-4.431-7.085-1.022-0.361-3.392-0.441-12.999-0.441h-11.749l-2.966 4.545m-283.92 101.83c0.271 0.438 1.35 0.597 1.56 0.231 0.108-0.19 0.094-0.253-0.031-0.14-0.125 0.112-0.556 0.079-0.959-0.074-0.402-0.153-0.659-0.161-0.57-0.017" fill="#2b2f31"/>
        <path d="m193.91 20.936c-0.063 0.207-0.331 1.62-0.595 3.141-0.594 3.419-1.331 5.43-2.86 7.795-0.65 1.006-1.182 1.904-1.182 1.994 0 0.519 5.39-0.89 6.603-1.726 3.492-2.406 0.026 4.303-4.939 9.561-2.132 2.258-2.056 2.358 1.838 2.391 1.352 0.012 2.459 0.142 2.459 0.29 0 0.298-2.523 2.494-5.097 4.437-2.665 2.011-2.739 2.132-2.327 3.827 0.468 1.935 0.521 1.969 2.224 1.467 0.811-0.24 2.258-0.639 3.216-0.887l1.743-0.451 1.536 0.983c0.845 0.541 2.107 1.723 2.803 2.627 1.534 1.989 2.771 2.475 5.549 2.178 2.412-0.259 5.062 0.41 6.173 1.557 0.828 0.855 8.046 10.807 9.564 13.187 1.364 2.139 1.265 5.662-0.198 7.002-1.427 1.307-1.428 2.478-5e-3 3.641l1.039 0.849 0.192 3.726c0.229 4.438 0.204 4.398 4.132 6.62 7.14 4.038 10.891 8.165 12.54 13.797 1.613 5.511 2.958 7.891 5.552 9.829 3.696 2.76 8.988 7.105 15.384 12.629 2.656 2.294 2.74 2.366 3.938 3.353 0.41 0.338 1.282 1.111 1.938 1.718 0.655 0.607 3.464 2.977 6.24 5.267 2.777 2.29 5.905 4.968 6.952 5.952 2.491 2.341 5.135 3.948 6.884 4.183 14.278 1.925 23.177 6.372 28.488 14.235 0.42 0.621 1.213 1.627 1.763 2.235s2.182 2.447 3.627 4.086c5.34 6.057 14.137 14.578 16.902 16.372 0.786 0.51 0.846 0.506 1.849-0.114 0.772-0.477 1.432-0.622 2.583-0.57 1.355 0.062 1.633-0.029 2.236-0.729 1.744-2.027 4.16-0.514 7.349 4.602 1.87 3.001 3.009 8.559 2.168 10.574-0.64 1.53 0.865 4.495 3.332 6.567 2.191 1.839 2.452 2.17 2.464 3.123 0.016 1.305-1.192 5.699-1.802 6.556-0.315 0.443-0.573 0.891-0.573 0.996 0 0.104 3.856 0.151 8.569 0.103 9.772-0.1 9.857-0.119 12.671-2.862 2.902-2.828 2.605 8.206 2.605-96.63v-92.079l-0.64-1.71c-0.809-2.161-2.773-4.289-4.811-5.21l-1.554-0.703-89.203-0.077c-71.466-0.061-89.227-2e-3 -89.319 0.298m205.94 106.04c0 53.852 0.035 75.883 0.076 48.956 0.042-26.926 0.042-70.987 0-97.913-0.041-26.926-0.076-4.896-0.076 48.957m-62.473-93.145c2.507 1.477 2.766 3.467 1.215 9.329l-0.963 3.637h-2.942c-1.618 0-2.94-0.101-2.936-0.224 3e-3 -0.123 0.336-1.497 0.739-3.055 1.234-4.767 1.023-5.365-1.901-5.365-2.781 0-2.507-0.655-7.045 16.837-4.783 18.439-4.675 17.142-1.434 17.142 2.499 0 3.182-0.751 4.135-4.545l0.505-2.012h2.944c1.62 0 2.945 0.1 2.944 0.223-6e-3 1.733-1.96 7.001-3.203 8.637-2.625 3.454-12.964 3.844-15.394 0.58-1.196-1.606-0.917-3.21 3.491-20.094 5.12-19.609 5.479-20.328 10.785-21.646 1.704-0.424 8.059-0.033 9.06 0.556m14.04-0.399c0 0.19-2.213 8.895-4.918 19.344s-4.918 19.079-4.918 19.177c0 0.099 1.542 0.179 3.427 0.179 2.548 0 3.426 0.096 3.421 0.373-3e-3 0.205-0.247 1.311-0.54 2.459l-0.534 2.086-6.464 0.081c-5.066 0.062-6.465-2e-3 -6.468-0.299-3e-3 -0.208 2.506-10.136 5.575-22.062l5.58-21.684h2.92c2.015 0 2.919 0.107 2.919 0.346m16.984-0.123c-3e-3 0.123-2.532 10.015-5.62 21.983l-5.614 21.758h-2.95c-2.784 0-2.944-0.033-2.848-0.596 0.075-0.443 7.262-28.533 10.81-42.25l0.289-1.118h2.969c1.633 0 2.967 0.101 2.964 0.223m-294.7 28.903c0.451 0.068 1.189 0.068 1.639 0 0.451-0.069 0.082-0.125-0.819-0.125-0.902 0-1.271 0.056-0.82 0.125m-11.475 0.294c0.368 0.071 0.972 0.071 1.341 0s0.067-0.129-0.671-0.129c-0.737 0-1.039 0.058-0.67 0.129m-5.818 1.28c0 0.574 0.061 0.809 0.136 0.522s0.075-0.756 0-1.043-0.136-0.052-0.136 0.521m50.378 6.763c0.287 0.075 0.756 0.075 1.043 0s0.052-0.136-0.521-0.136c-0.574 0-0.809 0.061-0.522 0.136m6.706 0.899c0.369 0.071 0.973 0.071 1.342 0 0.368-0.071 0.067-0.129-0.671-0.129s-1.04 0.058-0.671 0.129m29.061-5e-3c0.287 0.075 0.757 0.075 1.044 0s0.052-0.136-0.522-0.136-0.808 0.061-0.522 0.136m1.491 19.02c4e-3 0.656 0.065 0.889 0.136 0.518s0.069-0.907-6e-3 -1.192-0.133 0.018-0.13 0.674m23.1 72.192c0.368 0.072 0.972 0.072 1.341 0 0.369-0.071 0.067-0.129-0.671-0.129-0.737 0-1.039 0.058-0.67 0.129m-98.138 78.98c4.366 0.215 8.726 0.225 8.599 0.02-0.076-0.123-2.445-0.197-5.263-0.166-2.818 0.032-4.319 0.097-3.336 0.146m32.862 0.018c1.188 0.057 3.133 0.057 4.322 0 1.188-0.057 0.216-0.103-2.161-0.103s-3.35 0.046-2.161 0.103m18.053 2e-3c3.412 0.048 8.912 0.048 12.22 0 3.309-0.048 0.517-0.087-6.205-0.087-6.721 0-9.428 0.039-6.015 0.087m62.262-3e-3c1.099 0.058 2.977 0.058 4.173 1e-3 1.195-0.056 0.296-0.103-1.999-0.104-2.295 0-3.274 0.046-2.174 0.103m60.828 0c0.949 0.06 2.424 0.059 3.279-1e-3s0.079-0.108-1.725-0.108c-1.803 1e-3 -2.502 0.05-1.554 0.109m25.495 3e-3c4.807 0.046 12.586 0.046 17.288 0 4.701-0.046 0.768-0.084-8.74-0.084s-13.355 0.038-8.548 0.084m37.982 0c3.074 0.048 8.103 0.048 11.177 0 3.074-0.049 0.559-0.088-5.588-0.088-6.148 0-8.663 0.039-5.589 0.088m-239.29 14.68c0 4.344 0.042 6.121 0.093 3.949s0.051-5.726 0-7.898c-0.051-2.173-0.093-0.395-0.093 3.949m41.733 2.533c0 5.738 0.04 8.043 0.089 5.123 0.049-2.921 0.049-7.615 0-10.432-0.049-2.818-0.089-0.428-0.089 5.309m43.814 0.596c0 5.41 0.041 7.665 0.09 5.012 0.049-2.654 0.049-7.08 0-9.836s-0.089-0.585-0.09 4.824m141.57-1.937c0 3.689 0.043 5.198 0.095 3.353 0.053-1.844 0.053-4.862 0-6.706-0.052-1.844-0.095-0.335-0.095 3.353m53.616-6.036c2.264 0.05 5.886 0.05 8.048-1e-3 2.162-0.05 0.31-0.092-4.116-0.092s-6.196 0.042-3.932 0.093m-188.24 2.085c1.352 0.055 3.566 0.055 4.918 0 1.353-0.055 0.246-0.1-2.459-0.1s-3.811 0.045-2.459 0.1m200.79 10.807c0 2.868 0.045 4.042 0.1 2.608 0.054-1.435 0.054-3.782 0-5.217-0.055-1.434-0.1-0.26-0.1 2.609m-322.05-0.373l-1.027 1.118 1.118-1.027c1.04-0.957 1.254-1.209 1.027-1.209-0.05 0-0.553 0.503-1.118 1.118m170.81 19.738c-3.974 0.363-5.345 0.846-7.104 2.501-2.568 2.416-2.724 3.449-2.729 18.015l-3e-3 12.311 1.687 2.443c0.928 1.344 2.221 3.214 2.873 4.155 1.753 2.529 0.7 2.407 21.772 2.535 29.69 0.181 29.108 0.53 29.108-17.41v-9.34h-12.784-12.784l-3.312 4.895c-1.821 2.693-3.311 4.971-3.311 5.063s4.057 0.203 9.016 0.246l9.017 0.079 0.085 2.757 0.086 2.757h-13.573-13.573v-10.283-10.283h16.933 16.932l1.287-1.863c0.707-1.025 2.288-3.315 3.512-5.089 1.225-1.774 2.18-3.266 2.124-3.317-0.246-0.218-42.976-0.38-45.259-0.172m-179.06 20.942l0.076 20.944h22.057 22.057l0.093-4.471c0.052-2.459 0.012-4.906-0.088-5.439l-0.181-0.969h-15.334-15.334l-0.078-15.425-0.077-15.424-6.634-0.081-6.634-0.08 0.077 20.945m50.67 5e-3l0.077 20.939 20.417 0.083c23.853 0.096 21.297 0.39 23.397-2.692 0.921-1.352 2.547-3.729 3.614-5.283s1.821-2.865 1.676-2.913-7.967-0.118-17.382-0.155l-17.117-0.068-0.086-2.608-0.086-2.608h10.146 10.145v-4.769-4.769h-10.11-10.111l-0.098-2.242c-0.054-1.234-0.053-2.374 1e-3 -2.534 0.063-0.184 5.611-0.291 15.127-0.291h15.027v-5.514-5.514h-22.356-22.357l0.076 20.938m77.656-20.417c-0.251 0.287-1.656 2.333-3.123 4.546-1.466 2.213-3.538 5.298-4.605 6.855-1.066 1.557-4.812 7.116-8.324 12.352s-7.561 11.263-8.998 13.393-2.501 3.985-2.364 4.122c0.136 0.136 3.592 0.212 7.679 0.168l7.432-0.08 2.235-3.358c1.23-1.847 2.898-4.396 3.708-5.663 5.869-9.189 11.486-17.655 11.712-17.654 0.126 1e-3 1.001 1.242 1.945 2.757 0.944 1.516 2.554 4.061 3.577 5.655 4.714 7.348 8.255 12.838 10.001 15.506l1.901 2.906h7.704c4.272 0 7.777-0.12 7.87-0.269 0.091-0.148-0.747-1.657-1.863-3.353-1.117-1.696-2.681-4.09-3.476-5.319-1.88-2.908-5.409-8.298-10.048-15.351-5.487-8.342-10.07-15.347-10.872-16.617l-0.706-1.117h-5.464c-4.831 0-5.517 0.06-5.921 0.521m105.1-0.096c-0.089 0.234-0.114 8.047-0.055 17.362 0.164 25.855-1.752 24.09 26.169 24.09 28.715 0 26.905 1.795 26.756-26.527l-0.08-15.201-6.631-0.081-6.632-0.08-0.03 14.685c-0.016 8.077-0.049 15.021-0.074 15.431l-0.045 0.745-13.041 0.078-13.04 0.077v-15.502-15.502h-6.567c-5.414 0-6.595 0.074-6.73 0.425m61.656 20.447l0.076 20.872h22.504 22.504l0.081-5.37 0.081-5.371-16.027-0.077-16.028-0.077v-2.682-2.683l9.151-0.079 9.152-0.079 0.088-4.787c0.117-6.314 1.258-5.636-9.477-5.636h-9.089l0.088-2.161 0.087-2.161 15.872-0.077 15.872-0.077v-5.214-5.213h-22.506-22.506l0.077 20.872" fill="#fa9928"/>
        <path d="m113.34 0.224c47.664 0.041 125.66 0.041 173.32 0 47.664-0.042 8.666-0.076-86.662-0.076s-134.33 0.034-86.662 0.076m-89.319 1.009c0.144 0.233-0.076 0.296-0.712 0.202-0.524-0.077-0.847-0.016-0.75 0.142 0.101 0.163-0.301 0.201-0.984 0.092-0.636-0.102-1.357-0.05-1.603 0.116-0.327 0.22-0.167 0.26 0.596 0.149l1.044-0.151-0.895 0.341c-0.491 0.187-1.044 0.459-1.229 0.604-0.184 0.144-0.544 0.182-0.801 0.084-0.257-0.099-0.71-0.028-1.007 0.158-0.468 0.293-0.441 0.314 0.206 0.164 0.557-0.129 0.472-0.023-0.333 0.42-0.593 0.326-1.253 0.632-1.466 0.68s-0.599 0.264-0.859 0.479c-0.999 0.828-2.758 1.848-2.966 1.72-0.119-0.074-0.412 4e-3 -0.65 0.172-0.339 0.241-0.304 0.268 0.163 0.129 0.494-0.147 0.468-0.075-0.149 0.419-0.409 0.328-0.943 0.764-1.186 0.969-0.242 0.205-0.554 0.336-0.693 0.291-0.138-0.045-0.185 0.026-0.104 0.157 0.082 0.132-0.409 0.772-1.091 1.423-0.681 0.652-0.985 0.883-0.675 0.514 0.857-1.021 0.402-0.8-0.591 0.286-0.482 0.527-0.641 0.779-0.354 0.56s0.522-0.264 0.522-0.1c0 0.45-0.766 0.993-1.044 0.741-0.135-0.121-0.144-0.047-0.022 0.165 0.296 0.512-0.432 1.427-0.739 0.93-0.296-0.479-0.977 0.807-0.795 1.502 0.075 0.286-0.112 0.843-0.414 1.236-0.376 0.49-0.553 0.574-0.561 0.268-0.01-0.397-0.043-0.397-0.3 0-0.373 0.577-0.379 0.98-0.012 0.753 0.169-0.105 0.157 0.191-0.029 0.727-0.365 1.047-0.684 1.228-0.412 0.234 0.16-0.584 0.141-0.603-0.147-0.143-0.182 0.29-0.252 0.776-0.156 1.079 0.115 0.361-0.083 0.797-0.573 1.261-0.411 0.39-0.748 0.843-0.748 1.007s0.143 0.097 0.319-0.149c0.25-0.35 0.282-0.286 0.148 0.298-0.094 0.41-0.172 0.921-0.175 1.136-2e-3 0.214-0.104 0.329-0.227 0.254-0.466-0.283-0.488 6.386-0.505 154.05-0.016 143.52 0.015 153.59 0.467 153.95 0.103 0.082 0.27 0.619 0.372 1.193 0.136 0.763 0.112 0.883-0.09 0.447-0.187-0.403-0.282-0.451-0.293-0.149-9e-3 0.246 0.113 0.648 0.272 0.894s0.291 0.317 0.294 0.157c2e-3 -0.159 0.213 9e-3 0.469 0.373 0.255 0.365 0.381 0.797 0.28 0.961-0.101 0.163-0.034 0.297 0.15 0.297 0.183 0 0.241 0.149 0.128 0.332-0.113 0.182-0.02 0.448 0.206 0.591 0.322 0.204 0.327 0.261 0.021 0.265-0.215 2e-3 -0.306 0.141-0.203 0.307 0.103 0.167 0.299 0.234 0.437 0.149 0.137-0.085 0.193 0.148 0.125 0.517-0.069 0.369-0.042 0.494 0.059 0.277 0.188-0.4 0.932 0.345 0.954 0.957 6e-3 0.145 0.122 0.346 0.259 0.447 0.621 0.454 1.597 2.166 1.409 2.47-0.117 0.19-0.077 0.256 0.092 0.152 0.405-0.251 1.695 1.156 1.44 1.569-0.114 0.184-0.029 0.292 0.192 0.246 0.217-0.045 0.358 0.096 0.313 0.313s0.036 0.322 0.18 0.232c0.36-0.222 1.602 1.145 1.32 1.455-0.124 0.137-0.06 0.154 0.143 0.037 0.225-0.13 0.861 0.288 1.628 1.07 0.692 0.705 1.141 1.091 0.997 0.858-0.153-0.249 0.053-0.188 0.503 0.149 0.42 0.315 0.703 0.672 0.63 0.793-0.074 0.121 0.064 0.144 0.305 0.052 0.242-0.093 0.719 0.11 1.059 0.45 0.341 0.341 0.761 0.619 0.935 0.619s0.234 0.133 0.134 0.295c-0.103 0.165 0.01 0.221 0.255 0.127 0.241-0.093 0.818 0.051 1.283 0.32 0.464 0.269 0.576 0.4 0.248 0.292-1.379-0.455-1.456-0.457-0.745-0.024 0.409 0.25 0.978 0.385 1.264 0.299 0.285-0.085 0.688-0.048 0.894 0.083s0.442 0.252 0.524 0.268 0.527 0.186 0.988 0.377c0.462 0.191 1.065 0.35 1.342 0.352 0.435 4e-3 0.442 0.046 0.055 0.309-0.321 0.219-0.119 0.248 0.713 0.104 0.832-0.145 1.102-0.106 0.952 0.137-0.156 0.252 44.499 0.338 175.8 0.338 116.42-1e-3 176.07-0.101 176.19-0.298 0.101-0.163 0.41-0.287 0.687-0.275 0.411 0.017 0.394 0.068-0.092 0.277-0.49 0.21-0.506 0.26-0.089 0.277 0.278 0.012 0.614-0.153 0.745-0.367 0.321-0.522 2.638-1.174 3.456-0.972 0.361 0.089 0.489 0.085 0.285-9e-3 -0.636-0.292-0.417-0.583 0.745-0.986 0.614-0.213 1.997-0.911 3.073-1.55 1.075-0.639 2.174-1.162 2.441-1.162 0.268 0 0.582-0.155 0.699-0.344 0.139-0.225 0.067-0.272-0.206-0.135-0.23 0.114-0.032-0.1 0.44-0.476 0.473-0.376 1.742-1.59 2.82-2.696 1.079-1.107 2.137-2.012 2.352-2.012s0.533-0.369 0.706-0.82c0.822-2.132 1.916-3.953 2.288-3.81 0.217 0.084 0.312 0.017 0.21-0.149-0.288-0.464 0.45-2.412 0.825-2.18 0.207 0.128 0.256 0.022 0.136-0.291-0.104-0.271 0.074-1.064 0.396-1.763l0.585-1.27-0.148 1.043-0.148 1.043 0.452-1.179c0.441-1.151 0.73-305.78 0.29-306.22-0.288-0.288-0.146-1.871 0.151-1.687 0.164 0.101 0.298-0.021 0.298-0.271 0-0.257-0.173-0.389-0.398-0.303-0.426 0.164-0.57-0.7-0.201-1.214 0.217-0.304-0.224-2.406-0.456-2.174-0.07 0.07-5e-3 0.554 0.145 1.076s0.175 0.949 0.057 0.949c-0.119 0-0.402-0.637-0.63-1.416-0.413-1.41-0.457-1.639-0.58-3.055-0.061-0.689-0.084-0.7-0.317-0.149-0.223 0.527-0.277 0.484-0.464-0.373-0.116-0.533-0.32-0.969-0.452-0.969-0.263 0-0.737-1.192-0.631-1.587 0.037-0.135-0.093-0.146-0.289-0.025-0.245 0.151-0.295 0.06-0.16-0.292 0.108-0.281 0.096-0.449-0.026-0.374s-0.618-0.421-1.102-1.102c-0.484-0.682-0.651-1.055-0.371-0.83 0.32 0.256 0.51 0.287 0.51 0.082 0-0.18-0.369-0.523-0.82-0.763s-1.49-1.146-2.31-2.012c-0.82-0.867-1.222-1.378-0.894-1.137 0.552 0.407 0.566 0.401 0.187-0.082-0.225-0.287-0.576-0.521-0.78-0.521-0.524 0-1.976-1.192-1.799-1.478 0.081-0.131-0.22-0.313-0.668-0.405s-1.083-0.386-1.411-0.655c-0.328-0.268-0.429-0.402-0.224-0.298 0.205 0.103 0.373 0.032 0.373-0.159s-0.18-0.279-0.399-0.195c-0.22 0.085-1.192-0.233-2.161-0.706s-1.93-0.863-2.134-0.867c-0.483-8e-3 -0.483-0.503 0-0.724 0.204-0.094 0.097-0.105-0.24-0.023-0.732 0.177-4.993-0.857-4.708-1.143 0.11-0.109-79.1-0.199-176.02-0.2-131.16-1e-3 -176.17 0.085-176.01 0.336m358.4 1.96c0.246 0.092 0.716 0.29 1.044 0.44 0.586 0.27 0.586 0.267 0.017-0.189-0.318-0.255-0.788-0.453-1.043-0.44-0.402 0.02-0.404 0.046-0.018 0.189m-193.14 17.776c0 2-3.505 4.141-9.24 5.645-7.475 1.959-9.684 3.098-11.99 6.179-1.865 2.493-2.057 2.558-1.522 0.515 0.225-0.86 0.483-2.57 0.573-3.8l0.164-2.235-0.659 0.894c-0.362 0.492-2.313 2.504-4.335 4.471-3.913 3.806-5.173 5.734-5.179 7.923-3e-3 0.947-0.165 1.172-1.441 1.999-2.593 1.681-3.715 1.825-5.818 0.75-0.466-0.238-0.903-0.377-0.971-0.309-0.181 0.181 2.931 3.172 4.017 3.86 1.123 0.711 1.146 1.063 0.196 3.071-1.451 3.068-1.358 3.892 0.872 7.678 1.311 2.226 1.777 2.527 1.483 0.959-0.279-1.487 0.073-2.97 0.952-4.015 1.07-1.271 1.303-1.137 1.303 0.748 0 1.063 0.212 2.068 0.596 2.82 0.96 1.881 0.755 2.854-0.991 4.697-1.106 1.169-0.935 1.423 1.64 2.437 2.762 1.089 2.613 1.805-0.722 3.484-4.965 2.5-15.315 3.306-19.248 1.498-5.313-2.443-9.189-2.465-17.489-0.1-4.71 1.342-7.562 1.613-9.546 0.909-1.867-0.663-6.24-0.644-6.985 0.03-0.43 0.39-0.649 0.356-1.938-0.297-1.124-0.568-1.916-0.735-3.492-0.735h-2.039l0.191-1.622c0.241-2.055-0.756-3.978-2.601-5.011-3.054-1.71-3.726-2.011-4.484-2.011-0.446 0-1.175-0.139-1.62-0.308-0.626-0.238-1.22-0.175-2.628 0.276-2.639 0.847-26.519 1.491-27.945 0.753-1.292-0.668-1.694-0.383-1.8 1.275l-0.091 1.432-1.218 0.089c-0.824 0.06-1.342-0.06-1.601-0.373-0.643-0.774-2.065-0.589-2.408 0.312-0.162 0.426-0.561 0.844-0.887 0.929-0.39 0.102-0.603 0.424-0.624 0.94-0.06 1.488 0.087 2.574 0.362 2.675 0.656 0.24 1.16 1.048 1.16 1.862 0 1.149 1.423 2.058 3.226 2.059 1.45 2e-3 1.341-0.097 4.286 3.869 3.71 4.994 7.945 6.721 18.731 7.637l2.249 0.191 1.741 2.041c1.047 1.228 2.11 2.163 2.669 2.348 1.925 0.635 8.174 1.822 10.532 2l2.45 0.185 1.201-1.201c0.736-0.736 1.201-1.478 1.201-1.917 0-0.464 0.289-0.889 0.82-1.206 0.45-0.27 1.595-1.185 2.543-2.035l1.724-1.544 0.676 0.729c0.576 0.622 1.048 0.759 3.194 0.929 4.648 0.367 7.224 1.421 11.156 4.563 3.675 2.936 5.419 3.355 17.294 4.147 4.792 0.32 7.001-0.609 7.008-2.947 6e-3 -1.771 0.284-2.586 0.883-2.586 0.452 0 8.42 2.756 10.427 3.608 0.828 0.35 1.62-0.348 1.372-1.208-1.01-3.503-0.59-3.96 3.112-3.387 3.385 0.524 6.768 0.35 8.897-0.459 1.904-0.724 2.115-0.521 2.429 2.337 0.276 2.519 0.447 2.794 4.128 6.65 1.595 1.672 3.69 3.881 4.655 4.91s2.032 1.928 2.372 1.997c0.34 0.07 1.648 0.357 2.906 0.638 2.14 0.478 2.371 0.479 3.586 0.015 1.765-0.674 3.218-0.625 6.845 0.229 1.693 0.399 3.866 0.881 4.829 1.072 1.567 0.31 1.786 0.445 2.087 1.287 0.184 0.517 1.04 2.389 1.9 4.161 1.612 3.317 1.769 3.783 1.28 3.783-1.428 0-14.293 6.579-19.621 10.034-16.231 10.525-30.759 26.85-28.566 32.1 1.842 4.408 4.108 5.865 9.682 6.222 8.212 0.527 11.125 0.042 22.695-3.784 11.492-3.801 23.907-5.243 26.482-3.077 0.509 0.429 1.364 0.874 1.901 0.989 2.956 0.633 9.973 3.728 11.903 5.248 2.858 2.252 11.418 12.896 11.944 14.852 0.361 1.343 1.958 3.042 2.75 2.927 0.979-0.142 1.345-1.355 1.349-4.477 3e-3 -1.973 0.16-3.287 0.489-4.111 0.605-1.512 0.411-3.653-0.414-4.557-0.384-0.421-0.647-1.229-0.742-2.278-0.125-1.389-0.296-1.758-1.176-2.534-0.565-0.499-1.253-1.271-1.527-1.715-0.274-0.445-1.29-1.346-2.258-2.003-3.189-2.166-4.991-5.941-4.063-8.516 0.236-0.655 0.435-1.61 0.443-2.122l0.013-0.93 6.632 3.366c9.47 4.807 16.681 7.552 23.086 8.79 1.911 0.369 2.081 0.467 5.823 3.347 2.683 2.066 4.934 2.996 9.143 3.779 3.128 0.581 17.288 7.133 23.721 10.975 13.934 8.323 25.582 17.356 22.38 17.356-0.533 0-0.772 0.16-0.774 0.521-3e-3 0.287-0.08 0.804-0.173 1.149-0.143 0.532 0.458 1.078 3.94 3.577 4.171 2.995 16.659 14.531 16.873 15.586 0.053 0.263-0.331 1.042-0.854 1.732-0.522 0.689-1.106 1.729-1.298 2.31l-0.349 1.056h-158.62-158.62l-1.789-0.849c-2.15-1.021-4.017-2.96-4.797-4.981-0.554-1.437-0.568-3.711-0.568-94.021v-92.548l0.628-1.357c1.218-2.632 3.408-4.525 6.064-5.242 2.104-0.567 161.86-0.571 161.86-3e-3m184.71 0.449c2.038 0.921 4.002 3.049 4.811 5.21l0.64 1.71v92.079c0 104.84 0.297 93.802-2.605 96.63-2.814 2.743-2.899 2.762-12.671 2.862-4.713 0.048-8.569 1e-3 -8.569-0.103 0-0.105 0.258-0.553 0.573-0.996 0.61-0.857 1.818-5.251 1.802-6.556-0.012-0.953-0.273-1.284-2.464-3.123-2.467-2.072-3.972-5.037-3.332-6.567 0.841-2.015-0.298-7.573-2.168-10.574-3.189-5.116-5.605-6.629-7.349-4.602-0.603 0.7-0.881 0.791-2.236 0.729-1.151-0.052-1.811 0.093-2.583 0.57-1.003 0.62-1.063 0.624-1.849 0.114-2.765-1.794-11.562-10.315-16.902-16.372-1.445-1.639-3.077-3.478-3.627-4.086s-1.343-1.614-1.763-2.235c-5.311-7.863-14.21-12.31-28.488-14.235-1.749-0.235-4.393-1.842-6.884-4.183-1.047-0.984-4.175-3.662-6.952-5.952-2.776-2.29-5.585-4.66-6.24-5.267-0.656-0.607-1.528-1.38-1.938-1.718-1.198-0.987-1.282-1.059-3.938-3.353-6.396-5.524-11.688-9.869-15.384-12.629-2.594-1.938-3.939-4.318-5.552-9.829-1.649-5.632-5.4-9.759-12.54-13.797-3.928-2.222-3.903-2.182-4.132-6.62l-0.192-3.726-1.039-0.849c-1.423-1.163-1.422-2.334 5e-3 -3.641 1.463-1.34 1.562-4.863 0.198-7.002-1.518-2.38-8.736-12.332-9.564-13.187-1.111-1.147-3.761-1.816-6.173-1.557-2.778 0.297-4.015-0.189-5.549-2.178-0.696-0.904-1.958-2.086-2.803-2.627l-1.536-0.983-1.743 0.451c-0.958 0.248-2.405 0.647-3.216 0.887-1.703 0.502-1.756 0.468-2.224-1.467-0.412-1.695-0.338-1.816 2.327-3.827 2.574-1.943 5.097-4.139 5.097-4.437 0-0.148-1.107-0.278-2.459-0.29-3.894-0.033-3.97-0.133-1.838-2.391 4.965-5.258 8.431-11.967 4.939-9.561-1.213 0.836-6.603 2.245-6.603 1.726 0-0.09 0.532-0.988 1.182-1.994 1.529-2.365 2.266-4.376 2.86-7.795 0.264-1.521 0.532-2.934 0.595-3.141 0.092-0.3 17.853-0.359 89.319-0.298l89.203 0.077 1.554 0.703m25.8 6.6c0 0.738 0.058 1.039 0.129 0.671 0.071-0.369 0.071-0.973 0-1.342s-0.129-0.067-0.129 0.671m-71.467 5.256c-5.306 1.318-5.665 2.037-10.785 21.646-4.408 16.884-4.687 18.488-3.491 20.094 2.43 3.264 12.769 2.874 15.394-0.58 1.243-1.636 3.197-6.904 3.203-8.637 1e-3 -0.123-1.324-0.223-2.944-0.223h-2.944l-0.505 2.012c-0.953 3.794-1.636 4.545-4.135 4.545-3.241 0-3.349 1.297 1.434-17.142 4.538-17.492 4.264-16.837 7.045-16.837 2.924 0 3.135 0.598 1.901 5.365-0.403 1.558-0.736 2.932-0.739 3.055-4e-3 0.123 1.318 0.224 2.936 0.224h2.942l0.963-3.637c2.125-8.032 1.024-9.878-5.953-9.979-2.049-0.03-3.994 0.012-4.322 0.094m11.681 21.495c-3.069 11.926-5.578 21.854-5.575 22.062 3e-3 0.297 1.402 0.361 6.468 0.299l6.464-0.081 0.534-2.086c0.293-1.148 0.537-2.254 0.54-2.459 5e-3 -0.277-0.873-0.373-3.421-0.373-1.885 0-3.427-0.08-3.427-0.179 0-0.098 2.213-8.728 4.918-19.177s4.918-19.154 4.918-19.344c0-0.239-0.904-0.346-2.919-0.346h-2.92l-5.58 21.684m22.181-20.566c-3.548 13.717-10.735 41.807-10.81 42.25-0.096 0.563 0.064 0.596 2.848 0.596h2.95l5.614-21.758c3.088-11.968 5.617-21.86 5.62-21.983 3e-3 -0.122-1.331-0.223-2.964-0.223h-2.969l-0.289 1.118m-276.77 43.964c0.113 0.369 0.395 0.888 0.627 1.153 0.81 0.925 2.482 3.906 2.329 4.153-0.615 0.996-4.691-1.632-5.342-3.443-0.945-2.632-0.971-2.534 0.691-2.534 1.287 0 1.519 0.092 1.695 0.671m138.26 58.229c0.662 0.254 0.588 0.812-0.274 2.082-0.436 0.642-0.745 1.522-0.745 2.118 0 0.74-0.304 1.382-1.107 2.343l-1.106 1.323h-4.662c-5.191 0-8.392-0.25-8.26-0.647 0.048-0.144 1.361-0.708 2.917-1.255 3.225-1.133 8.968-3.802 11.175-5.194 1.731-1.092 1.474-0.996 2.062-0.77m176.18 139.01c0 27.951 0.035 39.385 0.077 25.41 0.043-13.976 0.043-36.845 0-50.82-0.042-13.975-0.077-2.541-0.077 25.41m-337.5-33.578c0.273 0.132 1.514 1.767 2.757 3.633l2.26 3.394v7.331c0 8.547-0.164 9.521-1.909 11.334-2.074 2.154-2.586 2.223-16.546 2.223h-12.087l3.717-3.726 3.716-3.726h6.642 6.642l-0.08-6.632-0.08-6.632h-8.793-8.793l-0.08 7.005-0.08 7.004-2.895 2.906c-3.263 3.277-3.226 3.261-4.731 1.94-2.106-1.849-2.185-2.28-2.191-11.999-6e-3 -11.92 0.573-13.242 6.252-14.259 1.313-0.235 25.763-0.046 26.279 0.204m20.204 7.946c2.829 4.591 5.247 8.411 5.373 8.489s2.345-3.242 4.931-7.379c2.586-4.136 5.024-7.956 5.418-8.489l0.716-0.968h5.034c2.769 0 5.095 0.1 5.169 0.223s-1.45 2.638-3.388 5.589c-1.937 2.951-6.047 9.218-9.133 13.926l-5.611 8.561-3.428 2e-3 -3.427 2e-3 -7.452-11.819c-4.098-6.5-8.071-12.768-8.829-13.928-1.764-2.7-1.999-2.556 4.181-2.556h5.301l5.145 8.347m56.283-4.551l0.083 3.647-10.068 0.079-10.069 0.078-0.09 1.559-0.09 1.56 6.796 0.08 6.797 0.08 0.084 3.199 0.085 3.198-6.791 0.08-6.791 0.08-0.089 1.714-0.09 1.714h10.149 10.149v3.729 3.728l-14.977-0.077-14.978-0.077-0.079-10.404c-0.07-9.305-0.025-10.486 0.421-11.178 0.274-0.425 1.423-2.082 2.553-3.682l2.054-2.91 12.429 0.078 12.428 0.078 0.084 3.647m34.785-3.111c3.047 1.374 3.715 2.869 3.724 8.341 9e-3 6.013-1.745 8.559-5.897 8.559-1.328 0-0.734 0.672 4.871 5.505 3.191 2.752 5.801 5.053 5.801 5.114s-2.984 0.109-6.632 0.105l-6.632-7e-3 -5.896-5.279-5.897-5.279 0.085-2.836 0.084-2.837 5.291-0.081 5.29-0.082v-2.228-2.229h-7.447-7.448l-0.079 10.358-0.078 10.358-4.843 0.082-4.844 0.081v-13.966c0-7.682 0.096-14.063 0.214-14.181 0.531-0.531 29.091-0.059 30.333 0.502m15.897 0.432c0.306 0.615 1.614 3.7 2.908 6.856 2.54 6.195 2.609 6.291 3.306 4.62 1.471-3.527 4.98-11.351 5.346-11.923 0.509-0.794 6.316-1.045 6.888-0.298 0.156 0.205 1.6 3.365 3.207 7.023 1.608 3.657 3.025 6.541 3.15 6.408 0.198-0.211 1.01-2.099 4.979-11.568l0.874-2.086 4.668-0.082c2.568-0.045 4.668-9e-3 4.668 0.081s-1.629 3.883-3.621 8.428c-1.991 4.545-4.733 10.813-6.091 13.927l-2.471 5.664h-3.498-3.498l-1.817-4.024c-0.999-2.213-2.345-5.265-2.99-6.781-1.441-3.387-1.257-3.415-2.97 0.447-0.782 1.762-2.17 4.851-3.084 6.865l-1.661 3.66-3.241-0.084-3.241-0.083-1.135-2.534c-5.109-11.408-11.054-25.01-11.054-25.29 0-0.245 1.408-0.343 4.912-0.343h4.912l0.554 1.117m62.157 4.024c1.851 2.828 4.663 7.12 6.25 9.538 4.662 7.107 8.42 12.864 8.658 13.264 0.175 0.293-0.949 0.372-5.235 0.371l-5.457-3e-3 -5.649-8.81c-3.107-4.846-5.744-8.869-5.86-8.941-0.116-0.071-0.782 0.776-1.481 1.883s-2.365 3.689-3.703 5.739c-1.337 2.049-3.359 5.165-4.493 6.924l-2.063 3.199-5.298 5e-3 -5.297 6e-3 0.521-0.82c0.287-0.451 1.609-2.429 2.938-4.396 1.329-1.968 5.205-7.735 8.613-12.817s6.402-9.475 6.654-9.762c0.386-0.442 0.997-0.521 3.996-0.521h3.54l3.366 5.141m44.007-4.841c0 0.165-1.024 1.838-2.277 3.719l-2.276 3.418-4.803 0.082-4.802 0.081-0.078 10.358-0.079 10.358h-4.914-4.914v-10.433-10.432h-6.11-6.111v-3.527c0-1.94 0.09-3.616 0.199-3.726 0.337-0.337 36.165-0.236 36.165 0.102m30.032 0.557c2.98 1.347 3.943 3.155 3.946 7.414l1e-3 2.459h-4.902-4.903l-0.09-1.565-0.09-1.565h-7.749-7.75l-0.08 6.632-0.081 6.632h7.891 7.89l0.088-1.863 0.089-1.863h4.769 4.769l0.086 2.608c0.114 3.448-0.267 4.743-1.865 6.341-2.16 2.16-2.655 2.229-15.957 2.229-17.381 0-17.587-0.146-17.581-12.427l2e-3 -6.202 3.053-4.681c1.679-2.575 3.253-4.742 3.499-4.817 1.908-0.581 23.48-3e-3 24.965 0.668m17.658 4.146l0.149 4.854 8.284-1e-3c4.556 0 8.422-0.086 8.592-0.191 0.198-0.122 0.281-1.872 0.23-4.854l-0.08-4.662 4.825-0.082 4.826-0.082v14.173 14.172l-4.844-0.081-4.843-0.082v-5.291-5.291h-8.57-8.569v5.366 5.365h-4.918-4.918v-13.96c0-7.677 0.093-14.052 0.206-14.165s2.293-0.169 4.844-0.124l4.637 0.082 0.149 4.854m-88.869 37.485c0.056 0.051-0.899 1.543-2.124 3.317-1.224 1.774-2.805 4.064-3.512 5.089l-1.287 1.863h-16.932-16.933v10.283 10.283h13.573 13.573l-0.086-2.757-0.085-2.757-9.017-0.079c-4.959-0.043-9.016-0.154-9.016-0.246s1.49-2.37 3.311-5.063l3.312-4.895h12.784 12.784v9.34c0 17.94 0.582 17.591-29.108 17.41-21.072-0.128-20.019-6e-3 -21.772-2.535-0.652-0.941-1.945-2.811-2.873-4.155l-1.687-2.443 3e-3 -12.311c5e-3 -14.566 0.161-15.599 2.729-18.015 1.759-1.655 3.13-2.138 7.104-2.501 2.283-0.208 45.013-0.046 45.259 0.172m-211.05 15.41l0.078 15.425h15.334 15.334l0.181 0.969c0.1 0.533 0.14 2.98 0.088 5.439l-0.093 4.471h-22.057-22.057l-0.076-20.944-0.077-20.945 6.634 0.08 6.634 0.081 0.077 15.424m82.039-10.059v5.514h-15.027c-9.516 0-15.064 0.107-15.127 0.291-0.054 0.16-0.055 1.3-1e-3 2.534l0.098 2.242h10.111 10.11v4.769 4.769h-10.145-10.146l0.086 2.608 0.086 2.608 17.117 0.068c9.415 0.037 17.237 0.107 17.382 0.155s-0.609 1.359-1.676 2.913-2.693 3.931-3.614 5.283c-2.1 3.082 0.456 2.788-23.397 2.692l-20.417-0.083-0.077-20.939-0.076-20.938h22.357 22.356v5.514m45.11-4.397c0.802 1.27 5.385 8.275 10.872 16.617 4.639 7.053 8.168 12.443 10.048 15.351 0.795 1.229 2.359 3.623 3.476 5.319 1.116 1.696 1.954 3.205 1.863 3.353-0.093 0.149-3.598 0.269-7.87 0.269h-7.704l-1.901-2.906c-1.746-2.668-5.287-8.158-10.001-15.506-1.023-1.594-2.633-4.139-3.577-5.655-0.944-1.515-1.819-2.756-1.945-2.757-0.226-1e-3 -5.843 8.465-11.712 17.654-0.81 1.267-2.478 3.816-3.708 5.663l-2.235 3.358-7.432 0.08c-4.087 0.044-7.543-0.032-7.679-0.168-0.137-0.137 0.927-1.992 2.364-4.122s5.486-8.157 8.998-13.393 7.258-10.795 8.324-12.352c1.067-1.557 3.139-4.642 4.605-6.855 1.467-2.213 2.872-4.259 3.123-4.546 0.404-0.461 1.09-0.521 5.921-0.521h5.464l0.706 1.117m106.31 14.385v15.502l13.04-0.077 13.041-0.078 0.045-0.745c0.025-0.41 0.058-7.354 0.074-15.431l0.03-14.685 6.632 0.08 6.631 0.081 0.08 15.201c0.108 20.524-0.174 22.498-3.548 24.764-2.533 1.701-3.352 1.763-23.208 1.763-27.921 0-26.005 1.765-26.169-24.09-0.059-9.315-0.034-17.128 0.055-17.362 0.135-0.351 1.316-0.425 6.73-0.425h6.567v15.502m93.294-10.289v5.214l-15.872 0.077-15.872 0.077-0.087 2.161-0.088 2.161h9.089c10.735 0 9.594-0.678 9.477 5.636l-0.088 4.787-9.152 0.079-9.151 0.079v2.683 2.682l16.028 0.077 16.027 0.077-0.081 5.371-0.081 5.37h-22.504-22.504l-0.076-20.872-0.077-20.872h22.506 22.506v5.213m12.369 60.978c-0.655 0.315-0.857 0.49-0.447 0.388 0.844-0.21 2.394-0.987 1.938-0.972-0.164 6e-3 -0.835 0.269-1.491 0.584m-269.22 3.183c47.664 0.041 125.66 0.041 173.32 0 47.664-0.042 8.666-0.076-86.662-0.076s-134.33 0.034-86.662 0.076" fill="#fbfbfb"/>
    </g>
</svg>
